<?xml version="1.0" encoding="utf-8"?>
<!-- Generator: Adobe Illustrator 24.0.1, SVG Export Plug-In . SVG Version: 6.00 Build 0)  -->
<svg version="1.1" id="Слой_1" xmlns="http://www.w3.org/2000/svg" xmlns:xlink="http://www.w3.org/1999/xlink" x="0px" y="0px"
	 viewBox="0 0 100 100" enable-background="new 0 0 100 100" xml:space="preserve">
<ellipse fill="#E4FFEE" cx="50" cy="49.5" rx="45" ry="44.5"/>
<g>
	<path fill="#40975F" d="M64.8,35.5h-2.6C63.5,32,64.7,26.9,63,23c-1-2.3-2.8-4-5.3-4.8C57.2,18,56.8,18,56.3,18
		c-3.2,0-6.2,3.2-10.5,11.3c-1.9,3.7-4.7,6.7-6.7,8.4c-0.8,0.7-1.5,1.4-2,2.1c-1.5-2.2-4-3.7-6.8-3.7c-4.5,0-8.3,3.7-8.3,8.3v23.9
		c0,4.6,3.7,8.3,8.3,8.3c3,0,5.6-1.6,7.1-4c1.9,2.4,4.9,3.9,8.2,3.9h20.2c8.3,0,9.6-5.4,9.6-8.6V46C75.4,40.2,70.6,35.5,64.8,35.5z
		 M33.3,68.3c0,1.6-1.3,3-3,3c-1.6,0-3-1.3-3-3v-24c0-1.6,1.3-3,3-3c1.6,0,3,1.3,3,3V68.3z M70.1,67.9c0,1.9-0.3,3.3-4.3,3.3H45.6
		c-2.9,0-5.3-2.4-5.3-5.3V46v-0.1v-0.2c0-0.1-0.1-2.1,2.3-4.2c2.3-2,5.6-5.6,7.9-10c3.6-6.9,5.4-8.2,5.8-8.5
		c0.9,0.3,1.5,0.9,1.8,1.7c1.1,2.8-0.3,8.1-2.3,11.9l-2,3.8h10.9c2.9,0,5.3,2.4,5.3,5.3L70.1,67.9L70.1,67.9z"/>
</g>
</svg>
