<?xml version="1.0" encoding="utf-8"?>
<!-- Generator: Adobe Illustrator 24.0.1, SVG Export Plug-In . SVG Version: 6.00 Build 0)  -->
<svg version="1.1" id="Слой_1" xmlns="http://www.w3.org/2000/svg" xmlns:xlink="http://www.w3.org/1999/xlink" x="0px" y="0px"
	 viewBox="0 0 100 100" enable-background="new 0 0 100 100" xml:space="preserve">
<ellipse fill="#F4F4FF" cx="50" cy="49.5" rx="45" ry="44.5"/>
<g>
	<path fill="#2563FF" d="M80.8,33.8c-0.9-1.6-2.3-2.8-4-3.3s-3.6-0.3-5.2,0.5c-1.6,0.9-2.8,2.3-3.3,4c-0.4,1.2-0.4,2.4-0.1,3.5
		l-7.4,3.9c-2.2-3.1-5.7-5.3-9.8-5.8v-6.3c2.9-0.8,5.1-3.4,5.1-6.6c0-3.8-3.1-6.8-6.8-6.8c-3.8,0-6.8,3.1-6.8,6.8
		c0,3.1,2.1,5.8,5.1,6.6v6.3c-5.1,0.6-9.4,4-11.3,8.6L28,43.1c0-1.2-0.3-2.3-0.9-3.4c-0.9-1.6-2.4-2.7-4.1-3.2
		c-3.6-1-7.4,1.2-8.4,4.8c-0.5,1.8-0.2,3.6,0.7,5.2c0.9,1.6,2.4,2.7,4.1,3.2c0.6,0.2,1.2,0.2,1.8,0.2c1.2,0,2.3-0.3,3.4-0.9
		c1.1-0.6,1.9-1.5,2.5-2.5l8.1,2.2C35,49.3,35,50,35,50.6c0,3.3,1.1,6.3,3,8.6l-6,6c-2.6-1.5-6-1.1-8.2,1.1c-2.7,2.7-2.7,7,0,9.6
		c1.3,1.3,3.1,2,4.8,2c1.8,0,3.5-0.7,4.8-2c2.2-2.2,2.6-5.6,1.1-8.2l5.9-5.9c2.4,1.9,5.4,3,8.7,3s6.3-1.1,8.7-3l5.9,5.9
		c-1.5,2.6-1.1,6,1.1,8.2c1.3,1.3,3.1,2,4.8,2c1.8,0,3.5-0.7,4.8-2c2.7-2.7,2.7-7,0-9.6c-2.2-2.2-5.6-2.6-8.2-1.1l-5.9-5.9
		c1.9-2.4,3-5.4,3-8.6c0-1.8-0.3-3.5-0.9-5l7.4-3.9c0.8,0.9,1.8,1.5,3,1.9c0.7,0.2,1.3,0.3,2,0.3c1.1,0,2.2-0.3,3.2-0.8
		c1.6-0.9,2.8-2.3,3.3-4C81.8,37.2,81.6,35.4,80.8,33.8L80.8,33.8z M76.3,39.9c-0.8,0.4-1.7,0.5-2.5,0.2s-1.5-0.8-1.9-1.6
		s-0.5-1.7-0.2-2.5s0.8-1.5,1.6-1.9c0.5-0.3,1-0.4,1.5-0.4c0.3,0,0.6,0,1,0.1c0.8,0.3,1.5,0.8,1.9,1.6s0.5,1.7,0.2,2.5
		C77.6,38.8,77.1,39.4,76.3,39.9z M59.8,50.6c0,5.8-4.8,10.6-10.6,10.6s-10.6-4.7-10.6-10.6S43.4,40,49.2,40S59.8,44.8,59.8,50.6z
		 M45.9,23.8c0-1.8,1.5-3.3,3.3-3.3s3.3,1.5,3.3,3.3s-1.5,3.3-3.3,3.3C47.3,27,45.9,25.6,45.9,23.8z M20.3,46.3
		c-0.8-0.2-1.6-0.8-2-1.5c-0.4-0.8-0.6-1.6-0.3-2.5c0.5-1.7,2.3-2.8,4-2.3c0.8,0.2,1.6,0.8,2,1.5c0.4,0.8,0.6,1.6,0.3,2.5
		C23.8,45.7,22,46.7,20.3,46.3z M31,73.4c-1.3,1.3-3.4,1.3-4.6,0c-1.3-1.3-1.3-3.3,0-4.6c0.6-0.6,1.5-1,2.3-1s1.7,0.3,2.3,1
		C32.2,70,32.2,72.1,31,73.4z M72,68.8c1.3,1.3,1.3,3.3,0,4.6c-1.3,1.3-3.4,1.3-4.6,0c-1.3-1.3-1.3-3.3,0-4.6c0.6-0.6,1.5-1,2.3-1
		C70.5,67.8,71.4,68.1,72,68.8z"/>
</g>
</svg>
