<?xml version="1.0" encoding="utf-8"?>
<!-- Generator: Adobe Illustrator 24.0.1, SVG Export Plug-In . SVG Version: 6.00 Build 0)  -->
<svg version="1.1" id="OBJECTS" xmlns="http://www.w3.org/2000/svg" xmlns:xlink="http://www.w3.org/1999/xlink" x="0px" y="0px"
	 viewBox="0 0 500 500" enable-background="new 0 0 500 500" xml:space="preserve">
<path opacity="0.58" fill="#96FFFA" d="M108.4,273.9H73.2c-5.5,0-10-4.5-10-10v-35.2c0-5.5,4.5-10,10-10h35.2c5.5,0,10,4.5,10,10
	V264C118.4,269.4,113.9,273.9,108.4,273.9z"/>
<path fill="#FCDDFC" d="M141.1,202h-32.6c-5.2,0-9.4-4.2-9.4-9.4v-34.1c0-5.2,4.2-9.4,9.4-9.4h32.6c5.2,0,9.4,4.2,9.4,9.4v34.1
	C150.5,197.8,146.3,202,141.1,202z"/>
<path fill="#FCDDFC" d="M97.7,111.3H81.4c-2.6,0-4.7-2.1-4.7-4.7v-17c0-2.6,2.1-4.7,4.7-4.7h16.3c2.6,0,4.7,2.1,4.7,4.7v17
	C102.4,109.2,100.3,111.3,97.7,111.3z"/>
<path fill="#FCDDFC" d="M260.7,247.7h-16.3c-2.6,0-4.7-2.1-4.7-4.7v-17c0-2.6,2.1-4.7,4.7-4.7h16.3c2.6,0,4.7,2.1,4.7,4.7v17
	C265.4,245.6,263.3,247.7,260.7,247.7z"/>
<path fill="#FCDDFC" d="M284.1,124.5h-16.3c-2.6,0-4.7-2.1-4.7-4.7v-17c0-2.6,2.1-4.7,4.7-4.7h16.3c2.6,0,4.7,2.1,4.7,4.7v17
	C288.8,122.4,286.7,124.5,284.1,124.5z"/>
<path fill="#FCDDFC" d="M430.1,121.3h-16.3c-2.6,0-4.7-2.1-4.7-4.7v-17c0-2.6,2.1-4.7,4.7-4.7h16.3c2.6,0,4.7,2.1,4.7,4.7v17
	C434.8,119.2,432.7,121.3,430.1,121.3z"/>
<path fill="#FCDDFC" d="M59.7,74H49.2c-1.7,0-3-1.4-3-3V60c0-1.7,1.4-3,3-3h10.5c1.7,0,3,1.4,3,3v11C62.8,72.6,61.4,74,59.7,74z"/>
<path fill="#FCDDFC" d="M208.2,82.5h-10.5c-1.7,0-3-1.4-3-3v-11c0-1.7,1.4-3,3-3h10.5c1.7,0,3,1.4,3,3v11
	C211.2,81.2,209.9,82.5,208.2,82.5z"/>
<path fill="#FCDDFC" d="M88.9,330.5H78.4c-1.7,0-3-1.4-3-3v-11c0-1.7,1.4-3,3-3h10.5c1.7,0,3,1.4,3,3v11
	C92,329.1,90.6,330.5,88.9,330.5z"/>
<path fill="#FCDDFC" d="M422.2,405.6h-10.5c-1.7,0-3-1.4-3-3v-11c0-1.7,1.4-3,3-3h10.5c1.7,0,3,1.4,3,3v11
	C425.3,404.2,423.9,405.6,422.2,405.6z"/>
<path fill="#FCDDFC" d="M287.5,365H277c-1.7,0-3-1.4-3-3v-11c0-1.7,1.4-3,3-3h10.5c1.7,0,3,1.4,3,3v11
	C290.5,363.6,289.1,365,287.5,365z"/>
<path fill="#FCDDFC" d="M419.8,160h-8.6c-1.4,0-2.5-1.1-2.5-2.5v-9c0-1.4,1.1-2.5,2.5-2.5h8.6c1.4,0,2.5,1.1,2.5,2.5v9
	C422.2,158.9,421.1,160,419.8,160z"/>
<path opacity="0.58" fill="#96FFFA" d="M358.1,101h-8.6c-1.4,0-2.5-1.1-2.5-2.5v-9c0-1.4,1.1-2.5,2.5-2.5h8.6c1.4,0,2.5,1.1,2.5,2.5
	v9C360.5,99.9,359.4,101,358.1,101z"/>
<path opacity="0.58" fill="#96FFFA" d="M103.4,77.2h-8.6c-1.4,0-2.5-1.1-2.5-2.5v-9c0-1.4,1.1-2.5,2.5-2.5h8.6
	c1.4,0,2.5,1.1,2.5,2.5v9C105.9,76,104.7,77.2,103.4,77.2z"/>
<path opacity="0.58" fill="#96FFFA" d="M50.5,112h-8.6c-1.4,0-2.5-1.1-2.5-2.5v-9c0-1.4,1.1-2.5,2.5-2.5h8.6c1.4,0,2.5,1.1,2.5,2.5
	v9C53,110.9,51.8,112,50.5,112z"/>
<path opacity="0.58" fill="#96FFFA" d="M222.8,202.5h-8.6c-1.4,0-2.5-1.1-2.5-2.5v-9c0-1.4,1.1-2.5,2.5-2.5h8.6
	c1.4,0,2.5,1.1,2.5,2.5v9C225.3,201.4,224.2,202.5,222.8,202.5z"/>
<path opacity="0.58" fill="#96FFFA" d="M436.3,168.2h-8.6c-1.4,0-2.5-1.1-2.5-2.5v-9c0-1.4,1.1-2.5,2.5-2.5h8.6
	c1.4,0,2.5,1.1,2.5,2.5v9C438.8,167.1,437.6,168.2,436.3,168.2z"/>
<path fill="#FCDDFC" d="M374.1,119.9h-10.5c-1.7,0-3-1.4-3-3v-11c0-1.7,1.4-3,3-3h10.5c1.7,0,3,1.4,3,3v11
	C377.2,118.5,375.8,119.9,374.1,119.9z"/>
<path fill="#FCDDFC" d="M207.7,135.2h-10.5c-1.7,0-3-1.4-3-3v-11c0-1.7,1.4-3,3-3h10.5c1.7,0,3,1.4,3,3v11
	C210.8,133.8,209.4,135.2,207.7,135.2z"/>
<path fill="#FCDDFC" d="M234.9,179.8h-10.5c-1.7,0-3-1.4-3-3v-11c0-1.7,1.4-3,3-3h10.5c1.7,0,3,1.4,3,3v11
	C237.9,178.4,236.6,179.8,234.9,179.8z"/>
<path fill="#FCDDFC" d="M450.8,196.9h-10.5c-1.7,0-3-1.4-3-3v-11c0-1.7,1.4-3,3-3h10.5c1.7,0,3,1.4,3,3v11
	C453.8,195.5,452.5,196.9,450.8,196.9z"/>
<circle opacity="0.58" fill="#96FFFA" cx="355.7" cy="285.6" r="89.9"/>
<line fill="none" x1="318.5" y1="103.5" x2="318.5" y2="103.4"/>
<g>
	<path fill="#CCC2FE" d="M122.7,321.9c-10.6-11-31.3-28.7-21.6-46c11.8-21.2,52.4-14.9,71.2-9.5c17,4.9,33.5,15,29.7,35.2
		c-1.6,8.5-8.6,14.2-10.8,22.2c-3.8-1.4-9.1-0.3-13.3-0.5c1.5-5.6,0.5-11.9-3.9-15.9c-6.6-6-24.8-14.6-34-11.4
		c-12.5,4.3,3.7,24.4,7.8,29.8c-5.5-1-10.8,0.4-16.4,0.1"/>
	<g>
		<path fill="#CCC2FE" d="M108.7,330.5h105.6c2.4,0,4.3-1.9,4.3-4.3l0,0c0-2.4-1.9-4.3-4.3-4.3H108.7c-2.4,0-4.3,1.9-4.3,4.3l0,0
			C104.4,328.6,106.3,330.5,108.7,330.5z"/>
		<path fill="#CCC2FE" d="M198.2,421.3L198.2,421.3c0.7,0,1.3-0.6,1.3-1.3v-92.4c0-0.7-0.6-1.3-1.3-1.3l0,0c-0.7,0-1.3,0.6-1.3,1.3
			v92.4C196.9,420.7,197.5,421.3,198.2,421.3z"/>
		<path fill="#CCC2FE" d="M141.6,421.3L141.6,421.3c0.7,0,1.3-0.6,1.3-1.3v-92.4c0-0.7-0.6-1.3-1.3-1.3l0,0c-0.7,0-1.3,0.6-1.3,1.3
			v92.4C140.2,420.7,140.8,421.3,141.6,421.3z"/>
		<path fill="#CCC2FE" d="M167.2,423.6L167.2,423.6c0.7,0,1.3-0.6,1.3-1.3v-92.4c0-0.7-0.6-1.3-1.3-1.3l0,0c-0.7,0-1.3,0.6-1.3,1.3
			v92.4C165.9,423,166.5,423.6,167.2,423.6z"/>
		<path fill="#CCC2FE" d="M114.7,421.3L114.7,421.3c0.7,0,1.3-0.6,1.3-1.3v-92.4c0-0.7-0.6-1.3-1.3-1.3l0,0c-0.7,0-1.3,0.6-1.3,1.3
			v92.4C113.4,420.7,114,421.3,114.7,421.3z"/>
	</g>
</g>
<polygon fill="#EEF4F2" points="321.1,294.5 322.2,296.4 324.2,297.5 322.2,298.6 321.1,300.6 320,298.6 318.1,297.5 320,296.4 "/>
<g>
	
		<polygon fill="#CCC2FE" stroke="#CCC2FE" stroke-width="2" stroke-linecap="round" stroke-linejoin="round" stroke-miterlimit="10" points="
		236.9,313.6 227.9,423.6 243.9,318.1 353.9,318.1 376.4,423.6 360.9,319.6 367.9,319.1 395.9,423.6 369.1,313.6 	"/>
	
		<polygon fill="#CCC2FE" stroke="#CCC2FE" stroke-width="2" stroke-linecap="round" stroke-linejoin="round" stroke-miterlimit="10" points="
		247.1,319.6 263.1,423.6 253.1,319.6 	"/>
	<path fill="#8B77E8" d="M369.1,313.6h-138c-1.8,0-3.2-0.9-3.2-1.9l0,0c0-1.1,1.4-1.9,3.2-1.9h138c1.8,0,3.2,0.9,3.2,1.9l0,0
		C372.3,312.7,370.8,313.6,369.1,313.6z"/>
	<g>
		<path fill="#B3A4F5" d="M302.5,310.7h-27.8c-1.6,0-3-1.3-3-3l0,0c0-1.6,1.3-3,3-3h27.8c1.6,0,3,1.3,3,3l0,0
			C305.5,309.4,304.2,310.7,302.5,310.7z"/>
		<path fill="#CCC2FE" d="M362.5,310.3H301c-1.5,0-2.8-1.2-2.8-2.8v-44.8c0-1.5,1.2-2.8,2.8-2.8h61.4c1.5,0,2.8,1.2,2.8,2.8v44.8
			C365.2,309,364,310.3,362.5,310.3z"/>
		<path fill="#EEF4F2" d="M343.1,285.8c0,3.7-3,6.7-6.7,6.7c-3.7,0-6.7-3-6.7-6.7c0-3.7,3-6.7,6.7-6.7
			C340.1,279.1,343.1,282.1,343.1,285.8z"/>
	</g>
</g>
<path fill="#745CD4" d="M187.8,325.9h-7.5c-6.6,0-12-5.4-12-12v-36c0-6.6,5.4-12,12-12h7.5c6.6,0,12,5.4,12,12v36
	C199.8,320.5,194.4,325.9,187.8,325.9z"/>
<g>
	<path fill="#EAE9C5" d="M153.4,241.9c-1.4-1.9-2.7-3.8-4.1-5.7c-4.6-6.7-11.8-16.1-10.1-24.8c0.7-0.4,1.4-0.7,2.1-0.9
		c0.2-0.1,0.5-0.2,0.8-0.2c0,0,0,0,0,0c1.2-0.4,2.6-0.8,4.1-1.1c2.9-0.7,6-1.3,8.4-1.3c0.5,0,1.7-0.4,3.1-0.8c2.4-0.8,5.2-1.9,6-2.3
		c2.8-1.5,5.2-3.3,7-5.2c4.8-4.8,6.7-10.2,6.8-12.7c0-1.5,0.2-3.7,0.7-6l14.4,0.3c0,1.4-0.1,2.7-0.1,3.7c0,5.7,3.1,10.8,7.2,14.9
		c5,4.9,11.4,8.4,15.4,9.9c1.1,0.1,2.6,0.2,4.2,0.4c1.7,0.2,3.5,0.4,5.2,0.7c0.7,0.1,1.4,0.2,2,0.4c0.3,0.1,0.6,0.1,1,0.2l0,0
		c0.2,0,0.3,0.1,0.5,0.1c0.3,0.1,0.5,0.1,0.8,0.2c0,0,0.1,0,0.1,0c0.3,0.1,0.5,0.1,0.8,0.2c0.1,0,0.2,0.1,0.4,0.1
		c0.2,0.1,0.5,0.2,0.7,0.2c1.8,0.7,3.5,1.7,4.6,3.1c0,0,0,0,0.1,0.1c0.7,0.9,1.2,1.9,1.4,3.2c0.6,3.3,0.2,7.2,0.4,11
		c0.2,2.4-10.7,7.5-15.7,10.2c-1,0.5-1.7,1-2.1,1.3c-1.9,1.5-3.8,3-5.6,4.7c-0.4,0.4-0.9,0.8-1.3,1.2c-4.8,4.7-8.8,10.1-10.8,16.4
		c-0.1,0.3-0.2,0.7-0.3,1.2c0,0.1-0.1,0.3-0.1,0.4c0,0.1-0.1,0.3-0.1,0.4c-0.1,0.3-0.1,0.6-0.2,0.9c-0.5,2.4-0.9,5.4-1.2,8.5
		c-0.1,0.6-0.1,1.2-0.2,1.8L169,276c0-0.6,0-1.1,0-1.7c0-1.4-0.1-2.7-0.2-4c0-0.8-0.1-1.6-0.2-2.4c0-0.3-0.1-0.6-0.1-0.8
		c-0.1-0.4-0.1-0.9-0.2-1.3c0-0.3-0.1-0.6-0.1-0.8c0-0.3-0.1-0.5-0.2-0.8c0-0.3-0.1-0.5-0.2-0.8c-0.1-0.2-0.1-0.5-0.2-0.7
		c-1.4-5.2-4.2-9.9-7.6-14C158.1,246.3,155.8,244,153.4,241.9z"/>
	<path fill="#EAE9C5" d="M136.1,213.2c0.8-1.7,2.5-3.3,5.6-3.8c4.4-0.7,8.9-1.2,13.2-2.1c0.7-0.2,1.5-0.3,2.2-0.5
		c1-0.3,2-0.6,2.9-0.9c4.9-1.8,10.4-5.3,13.9-9.9c0,0,0.1-0.1,0.1-0.1l23.8,0.4c0,0,0.1,0.1,0.1,0.1c0.9,1.2,2,2.3,3.1,3.4
		c0.6,0.5,1.2,1.1,1.8,1.6c1.2,1,2.5,1.9,3.7,2.8c0.1,0.1,0.2,0.1,0.3,0.2c0.5,0.3,1,0.7,1.5,1c0.1,0.1,0.3,0.2,0.4,0.3
		c0.5,0.3,1,0.6,1.5,0.9c0.1,0,0.2,0.1,0.3,0.2c0.6,0.3,1.2,0.6,1.7,0.9c0.1,0,0.2,0.1,0.3,0.1c0,0,0,0,0,0c0.5,0.2,0.9,0.4,1.4,0.6
		c0,0,0.1,0,0.1,0c0.1,0.1,0.3,0.1,0.4,0.2c0.4,0.2,0.7,0.3,1.1,0.5c0.2,0.1,0.3,0.1,0.4,0.2c0.4,0.2,0.8,0.3,1.1,0.4
		c0.2,0.1,0.3,0.1,0.5,0.1c1.2,0.1,2.6,0.2,4.2,0.4c1.8,0.2,3.7,0.4,5.5,0.7c0.7,0.1,1.5,0.2,2.2,0.4c0.3,0.1,0.7,0.1,1,0.2
		c0.2,0,0.3,0.1,0.5,0.1c0.3,0.1,0.6,0.1,0.8,0.2c0,0,0.1,0,0.1,0c0.3,0.1,0.6,0.2,0.8,0.2c0.1,0,0.3,0.1,0.4,0.1
		c0.3,0.1,0.5,0.2,0.7,0.2c1.9,0.7,3.7,1.7,4.9,3.1c0,0,0,0,0.1,0.1c0.2,0.2,0.3,0.4,0.4,0.6c0,0.1,0.1,0.2,0.1,0.2
		c0.1,0.2,0.2,0.3,0.3,0.5c0,0.1,0.1,0.2,0.1,0.2c0.1,0.2,0.2,0.4,0.2,0.6c0.1,0.4,0.2,0.7,0.3,1.1c0.7,3.3,0.2,7.2,0.5,11
		c0,0.1,0,0.2,0,0.3c0,0,0,0.1,0,0.1c0,0.1-0.1,0.2-0.1,0.3c0,0,0,0,0,0.1c-0.1,0.1-0.2,0.2-0.3,0.4c0,0,0,0,0,0
		c-2.1,2.4-9.8,6-14.7,8.4c-0.1,0.1-0.3,0.1-0.4,0.2c-0.1,0.1-0.2,0.1-0.3,0.1c-0.3,0.1-0.5,0.3-0.7,0.4c-1,0.5-1.8,1-2.3,1.3
		c-2,1.5-4,3-6,4.6c-0.5,0.4-0.9,0.8-1.4,1.2c-5.1,4.7-9.3,10.1-11.4,16.4c-0.1,0.3-0.2,0.7-0.3,1.2c0,0.1-0.1,0.3-0.1,0.4
		c0,0.1-0.1,0.3-0.1,0.4c-0.1,0.3-0.1,0.6-0.2,0.9c-0.5,2.4-0.9,5.4-1.3,8.5c-0.1,0.6-0.1,1.2-0.2,1.8c-0.2,2-0.4,3.9-0.5,5.8
		c-0.3,3.2-0.4,6.1-0.5,8.3c0,0.3,0,0.6,0,0.8l0,0.6c-0.1,6.7-6,12-13.2,11.9l-7.4-0.1c-6.1-0.1-11.1-4.9-10.9-10.6c0,0,0-1.2,0-1.2
		c0-1.1,0-2.3,0-3.7c0-1.8,0-3.8,0.1-5.9c0-2.1,0-4.3,0-6.5c0-0.6,0-1.1,0-1.7c-0.1-1.4-0.1-2.7-0.2-4c-0.1-0.8-0.1-1.6-0.2-2.4
		c0-0.3-0.1-0.6-0.1-0.8c-0.1-0.4-0.1-0.9-0.2-1.3c0-0.3-0.1-0.6-0.1-0.8c0-0.3-0.1-0.5-0.2-0.8c0-0.3-0.1-0.5-0.2-0.8
		c-0.1-0.2-0.1-0.5-0.2-0.7c-1.9-6.6-6.7-11.5-11.8-16.2c-4.8-4.4-9.3-9.5-12.8-15C139.8,227.1,133.7,218.2,136.1,213.2z"/>
	<path fill="#745CD4" d="M167.2,265.1c0,0.3,0.1,0.6,0.1,1c0.1,0.6,0.1,1.2,0.2,1.8c0,0.4,0.1,0.7,0.1,1.1c0.1,1,0.2,2.1,0.2,3.2
		c0.1,1.7,0.2,3.6,0.2,5.4c0,0.8,0,1.5,0,2.3c0,2.9,0,5.9,0,8.7c0,2.8,0,5.5-0.1,7.9c0,1.8,0,3.5,0,5c0,0,0,1.6,0,1.6
		c-0.1,7.7,4.9,14.2,11.1,14.3l7.5,0.2c7.2,0.2,13.3-7,13.4-16l0-0.8c0-0.4,0-0.8,0-1.1c0.1-2.8,0.3-6.8,0.5-11.1
		c0.1-2.5,0.3-5.2,0.5-7.8c0.1-0.8,0.1-1.6,0.2-2.4c0.4-4.2,0.8-8.3,1.3-11.5c0.1-0.4,0.1-0.9,0.2-1.3c0-0.1,0-0.2,0.1-0.3H167.2z"
		/>
	<path fill="#B3A4F5" d="M170.6,199.9c3.4,3.5,8.5,5.8,14.3,5.9c6,0.1,11.4-2.2,15-5.9c-4.1-4.1-7.3-9.2-7.3-15c0-1,0.1-2.3,0.1-3.7
		l-14.6-0.3c-0.4,2.4-0.6,4.6-0.7,6.1C177.3,189.5,175.4,195,170.6,199.9z"/>
	<path fill="#EAE9C5" d="M215.7,230.8l18.5,41.6c2.9,6.5,10.6,9.5,17.2,6.6c6.6-2.9,9.6-10.5,6.7-17l-18.5-41.6
		c-1.7-3.9-5.3-6.6-9.2-7.4c0,0-0.1,0-0.1,0c-2.2-0.4-4.4-0.4-6.6,0.3l0,0c-0.4,0.1-0.8,0.3-1.2,0.5c-3.3,1.4-5.7,4.1-6.9,7.2
		c-0.3,0.7-0.5,1.4-0.6,2.1C214.4,225.6,214.6,228.3,215.7,230.8z"/>
	<path fill="#EAE9C5" d="M240.4,257.8c6.9-3.3,15.2-0.4,18.5,6.5c3.3,6.9,0.4,15.1-6.5,18.3c-2,0.9-4,1.3-6,1.3l0,0.1l-43.3,6.3
		l-3.3-6.8l38-23.9C238.4,258.8,239.4,258.2,240.4,257.8z"/>
	<path fill="#EAE9C5" d="M211.5,277.8c2,2,2.8,4.7,2.1,8.1c-0.2,1-0.5,1.9-0.8,2.9l-9.8,1.4l-3.3-6.8l10.3-6.5
		C210.5,277.2,211,277.5,211.5,277.8z"/>
	<polygon fill="#CCC2FE" points="201.5,283.7 202.9,289.6 186,295.8 175.2,294 174.4,289.8 185.3,288.6 193.5,284.5 188.5,283.7 
		181.6,285.4 180.6,283.3 190.7,280.3 	"/>
	<path fill="#EAE9C5" d="M137.6,212.2l-40,22.1c-6.3,3.5-8.5,11.4-5.1,17.6c3.5,6.2,11.5,8.5,17.7,5l40-22.1
		c3.8-2.1,6.1-5.8,6.6-9.8c0,0,0-0.1,0-0.1c0.2-2.2,0-4.4-0.9-6.5l0,0c-0.2-0.4-0.4-0.8-0.6-1.2c-1.7-3.1-4.6-5.2-7.8-6.1
		c-0.7-0.2-1.5-0.3-2.2-0.4C142.7,210.4,140,210.9,137.6,212.2z"/>
	<path fill="#EAE9C5" d="M112.7,239c3.9,6.5,1.8,15-4.8,18.8c-6.6,3.9-15.1,1.7-19-4.8c-1.1-1.8-1.7-3.8-1.9-5.8l0,0L76.7,205
		l6.5-3.9l27.5,35.3C111.5,237.2,112.1,238,112.7,239z"/>
	<path fill="#EAE9C5" d="M90,212.3c-1.8,2.2-4.5,3.2-8,2.8c-1-0.1-2-0.3-3-0.5l-2.3-9.5l6.5-3.9l7.4,9.6
		C90.5,211.3,90.2,211.8,90,212.3z"/>
	<polygon fill="#CCC2FE" points="83.1,203 77.3,204.9 69.5,188.8 70.3,177.9 74.5,176.8 76.7,187.5 81.6,195.2 81.9,190.2 
		79.5,183.5 81.6,182.3 85.5,192.1 	"/>
	<path fill="#D3D1A5" d="M157.2,206.7l53.4,0.9l0-0.1c-0.1,0-0.2-0.1-0.3-0.1c-0.5-0.3-1.1-0.6-1.7-1c-0.1-0.1-0.2-0.1-0.3-0.2
		c-0.5-0.3-1-0.6-1.5-0.9c-0.1-0.1-0.3-0.2-0.4-0.3c-0.5-0.3-1-0.7-1.5-1c-0.1-0.1-0.2-0.1-0.3-0.2c-1.2-0.9-2.4-1.8-3.6-2.9
		c-0.6-0.5-1.2-1.1-1.7-1.6c-1.1-1.1-2.1-2.3-3-3.5l-23-0.4c-3.4,4.7-8.7,8.4-13.4,10.3C159.1,206.1,158.2,206.4,157.2,206.7z"/>
	<path fill="#D3D1A5" d="M155.3,207.2c0.7-0.2,1.4-0.3,2.1-0.5c1-0.3,1.9-0.6,2.8-0.9c2.3-0.9,4.7-2.2,7-3.8l35.7,0.6
		c0.6,0.5,1.3,1,1.9,1.4c0.1,0.1,0.2,0.1,0.3,0.2c0.5,0.3,1,0.7,1.5,1c0.1,0.1,0.3,0.2,0.4,0.3c0.5,0.3,1,0.6,1.5,0.9
		c0.1,0,0.2,0.1,0.3,0.2c0.6,0.3,1.1,0.6,1.7,0.9c0.1,0,0.2,0.1,0.3,0.1c0,0,0,0,0,0c0.4,0.2,0.9,0.4,1.3,0.6c0,0,0,0,0.1,0
		c-0.6-0.1-1.2-0.1-1.8-0.1c-14.4-0.7-26.6,9.6-28.3,23.3l-0.4,0c-1.4-12.8-12.1-23.1-25.7-23.7c-0.2,0-0.4,0-0.6,0
		C155.2,207.5,155.3,207.3,155.3,207.2z"/>
	<path fill="#4A3E93" d="M184,251.5L184,251.5c0.9,0,1.6-1.4,1.7-3.2l0.8-44.6c0-1.8-0.7-3.2-1.5-3.3l0,0c-0.9,0-1.6,1.4-1.7,3.2
		l-0.8,44.6C182.4,250,183.1,251.4,184,251.5z"/>
	<path fill="#4A3E93" d="M185,203.3l0.3,0c1.8,0,3.3-1.4,3.4-3.2l0,0c0-1.8-1.4-3.3-3.2-3.4l-0.3,0c-1.8,0-3.3,1.4-3.4,3.2v0
		C181.7,201.8,183.2,203.3,185,203.3z"/>
	<g>
		<path fill="#B3A4F5" d="M194.5,182.7l0.6,0c1.3,0,2.3-0.9,2.4-2l0.2-4c0-1.2-0.9-2.1-2.2-2.2l-0.6,0c-1.3,0-2.3,0.9-2.4,2l-0.2,4
			C192.3,181.7,193.3,182.6,194.5,182.7z"/>
		<path fill="#B3A4F5" d="M175.1,181.7l0.6,0c1.3,0,2.3-0.9,2.4-2l0.2-4c0-1.2-0.9-2.1-2.2-2.2l-0.6,0c-1.3,0-2.3,0.9-2.4,2l-0.2,4
			C172.8,180.7,173.8,181.7,175.1,181.7z"/>
		<path fill="#CCC2FE" d="M183.7,191.7L183.7,191.7c4.9,0.2,9.1-3.4,9.3-7.9l0.7-16.9c0.2-4.5-3.7-8.4-8.6-8.5l0,0
			c-4.9-0.2-9.1,3.4-9.3,7.9l-0.7,16.9C174.9,187.7,178.8,191.5,183.7,191.7z"/>
	</g>
	<path fill="#EAE9C5" d="M171.7,195.8c0,4.4,2.9,8,6.5,8c3.6,0,6.5-3.6,6.5-8H171.7z"/>
	<path fill="#EAE9C5" d="M184.7,195.8c0,4.4,2.9,8,6.5,8c3.6,0,6.5-3.6,6.5-8H184.7z"/>
</g>
<circle fill="#4A3E93" cx="185.8" cy="184.2" r="2.4"/>
<path fill="#745CD4" d="M190,422.2l0.3,0c2.6,0,4.7-2.1,4.7-4.6l0.4-76.9c0-2.6-2.1-4.7-4.7-4.7l-0.3,0c-2.6,0-4.7,2.1-4.7,4.6
	l-0.4,76.9C185.3,420.1,187.4,422.2,190,422.2z"/>
<path fill="#745CD4" d="M213.7,418.6l0.3,0c2.6,0,4.7-2.1,4.7-4.6l0.4-76.9c0-2.6-2.1-4.7-4.7-4.7l-0.3,0c-2.6,0-4.7,2.1-4.7,4.6
	l-0.4,76.9C209,416.5,211.1,418.6,213.7,418.6z"/>
<path fill="#745CD4" d="M193.2,342.4l-0.9,0.6c-1.5,1.1-3.7,0.7-4.7-0.9l-14.1-20.3c-1.1-1.5-0.7-3.7,0.9-4.7l0.9-0.6
	c1.5-1.1,3.7-0.7,4.7,0.9l14.1,20.3C195.1,339.2,194.7,341.3,193.2,342.4z"/>
<path fill="#745CD4" d="M218.2,339.4l-0.4,0.5c-1.3,1.5-3.7,1.6-5.1,0.2l-21-19.1c-1.5-1.3-1.6-3.7-0.2-5.1l0.4-0.5
	c1.3-1.5,3.7-1.6,5.1-0.2l21,19.1C219.4,335.6,219.5,337.9,218.2,339.4z"/>
<path fill="#4A3E93" d="M197.6,427.3h-10.2c-2,0-3.7-1.7-3.7-3.7l0,0c0-2,1.7-3.7,3.7-3.7h10.2c2,0,3.7,1.7,3.7,3.7l0,0
	C201.3,425.6,199.6,427.3,197.6,427.3z"/>
<path fill="#4A3E93" d="M221.6,422.3h-10.2c-2,0-3.7-1.7-3.7-3.7l0,0c0-2,1.7-3.7,3.7-3.7h10.2c2,0,3.7,1.7,3.7,3.7l0,0
	C225.3,420.6,223.6,422.3,221.6,422.3z"/>
<circle fill="#FFD359" cx="395.9" cy="200.4" r="18.8"/>
<path fill="#EAE9C5" d="M198.8,197.6H171c-0.7,0-1.3-0.6-1.3-1.3v0c0-0.7,0.6-1.3,1.3-1.3h27.7c0.7,0,1.3,0.6,1.3,1.3v0
	C200,197.1,199.5,197.6,198.8,197.6z"/>
<path fill="#4A3E93" d="M193.4,175.4c-3.3-2.1-5.7-6.4-4.7-10.7c-1.5,0.6-3.4,0.6-5,0.7c-4.2,0.2-8.5,0.3-12-2.3
	c-4.1-3-12.3-11.4-6.3-16.3c3.5-2.8,7-2.1,10.2,0.8c2.9,2.6,3.5,6.5,7.2,8.4c3,1.5,5.3,0.7,8.4,1.2c4.9,0.8,4.5,7,3.9,10.7
	C194.7,170.3,194.5,173.4,193.4,175.4z"/>
<g>
	<path fill="#FF75FE" d="M106.7,195.1H64.2c-6.6,0-12-5.4-12-12v-42.5c0-6.6,5.4-12,12-12h42.5c6.6,0,12,5.4,12,12v42.5
		C118.7,189.7,113.3,195.1,106.7,195.1z"/>
	<path opacity="0.56" fill="#FF75FE" d="M109.6,129c-11.2,20.9-20.6,43.2-40,58.1c-3.4,2.6-7,4.9-10.6,6.9c1.6,0.8,3.3,1.2,5.2,1.2
		h42.5c6.6,0,12-5.4,12-12v-42.5C118.7,135,114.8,130.3,109.6,129z"/>
</g>
<g>
	<path fill="#70E5FF" d="M168.1,121.6h-35.2c-5.5,0-10-4.5-10-10V76.4c0-5.5,4.5-10,10-10h35.2c5.5,0,10,4.5,10,10v35.2
		C178.1,117.1,173.6,121.6,168.1,121.6z"/>
	<path opacity="0.56" fill="#FF75FE" d="M170.5,66.8c-9.3,17.3-17.1,35.8-33.1,48.1c-2.8,2.2-5.8,4.1-8.8,5.7c1.3,0.6,2.8,1,4.3,1
		h35.2c5.5,0,10-4.5,10-10V76.4C178.1,71.8,174.8,67.8,170.5,66.8z"/>
</g>
<g>
	<path fill="#70E5FF" d="M410.1,220.9h-31.7c-4.9,0-9-4-9-9v-31.7c0-4.9,4-9,9-9h31.7c4.9,0,9,4,9,9V212
		C419.1,216.9,415,220.9,410.1,220.9z"/>
	<path opacity="0.56" fill="#FF75FE" d="M412.3,171.5c-8.3,15.6-15.4,32.3-29.8,43.4c-2.6,2-5.2,3.7-7.9,5.1
		c1.2,0.6,2.5,0.9,3.9,0.9h31.7c4.9,0,9-4,9-9v-31.7C419.1,176,416.2,172.5,412.3,171.5z"/>
</g>
<g>
	<path fill="#FFD359" d="M244.3,149.4H215c-4.5,0-8.3-3.7-8.3-8.3v-29.3c0-4.5,3.7-8.3,8.3-8.3h29.3c4.5,0,8.3,3.7,8.3,8.3v29.3
		C252.5,145.7,248.8,149.4,244.3,149.4z"/>
	<path opacity="0.56" fill="#FF75FE" d="M246.3,103.8c-7.7,14.4-14.2,29.8-27.5,40c-2.4,1.8-4.8,3.4-7.3,4.7
		c1.1,0.5,2.3,0.8,3.6,0.8h29.3c4.5,0,8.3-3.7,8.3-8.3v-29.3C252.5,108,249.9,104.7,246.3,103.8z"/>
</g>
<path fill="#CCC2FE" d="M300.5,202h-57.7c-3.1,0-5.6-2.5-5.6-5.6l0,0c0-3.1,2.5-5.6,5.6-5.6h57.7c3.1,0,5.6,2.5,5.6,5.6l0,0
	C306.1,199.5,303.6,202,300.5,202z"/>
<path fill="#CCC2FE" d="M450.9,290.7h-57.7c-3.1,0-5.6-2.5-5.6-5.6l0,0c0-3.1,2.5-5.6,5.6-5.6h57.7c3.1,0,5.6,2.5,5.6,5.6l0,0
	C456.4,288.2,453.9,290.7,450.9,290.7z"/>
<path fill="#CCC2FE" d="M305.8,182.7h-47.2c-3.3,0-6-2.7-6-6l0,0c0-3.3,2.7-6,6-6h47.2c3.3,0,6,2.7,6,6l0,0
	C311.9,180,309.2,182.7,305.8,182.7z"/>
<path fill="#CCC2FE" d="M456.5,270.6h-47.2c-3.3,0-6-2.7-6-6l0,0c0-3.3,2.7-6,6-6h47.2c3.3,0,6,2.7,6,6l0,0
	C462.5,267.8,459.8,270.6,456.5,270.6z"/>
<path fill="#8B77E8" d="M393,246.3h-18.2c-3.2,0-5.9-2.7-5.9-5.9l0,0c0-3.2,2.7-5.9,5.9-5.9H393c3.2,0,5.9,2.7,5.9,5.9l0,0
	C398.9,243.7,396.2,246.3,393,246.3z"/>
<path fill="#8B77E8" d="M431.6,246.3h-18.2c-3.2,0-5.9-2.7-5.9-5.9l0,0c0-3.2,2.7-5.9,5.9-5.9h18.2c3.2,0,5.9,2.7,5.9,5.9l0,0
	C437.5,243.7,434.9,246.3,431.6,246.3z"/>
<path fill="#CCC2FE" d="M454.6,220.3h-18.2c-3.2,0-5.9-2.7-5.9-5.9l0,0c0-3.2,2.7-5.9,5.9-5.9h18.2c3.2,0,5.9,2.7,5.9,5.9l0,0
	C460.5,217.6,457.9,220.3,454.6,220.3z"/>
<path fill="#CCC2FE" d="M352.2,157.8H334c-3.2,0-5.9-2.7-5.9-5.9l0,0c0-3.2,2.7-5.9,5.9-5.9h18.2c3.2,0,5.9,2.7,5.9,5.9l0,0
	C358.1,155.1,355.4,157.8,352.2,157.8z"/>
<path fill="#CCC2FE" d="M312.7,157.6h-18.2c-3.2,0-5.9-2.7-5.9-5.9v0c0-3.2,2.7-5.9,5.9-5.9h18.2c3.2,0,5.9,2.7,5.9,5.9v0
	C318.6,154.9,315.9,157.6,312.7,157.6z"/>
<path fill="#CCC2FE" d="M426.1,356.4h-18.2c-3.2,0-5.9-2.7-5.9-5.9l0,0c0-3.2,2.7-5.9,5.9-5.9h18.2c3.2,0,5.9,2.7,5.9,5.9l0,0
	C432,353.8,429.3,356.4,426.1,356.4z"/>
<path fill="#8B77E8" d="M350.8,182.7h-18.2c-3.2,0-5.9-2.7-5.9-5.9v0c0-3.2,2.7-5.9,5.9-5.9h18.2c3.2,0,5.9,2.7,5.9,5.9v0
	C356.7,180,354.1,182.7,350.8,182.7z"/>
<path fill="#8B77E8" d="M369.6,138.8h-18.2c-3.2,0-5.9-2.7-5.9-5.9l0,0c0-3.2,2.7-5.9,5.9-5.9h18.2c3.2,0,5.9,2.7,5.9,5.9l0,0
	C375.5,136.1,372.9,138.8,369.6,138.8z"/>
<path fill="#8B77E8" d="M446.6,311.5h-18.2c-3.2,0-5.9-2.7-5.9-5.9v0c0-3.2,2.7-5.9,5.9-5.9h18.2c3.2,0,5.9,2.7,5.9,5.9v0
	C452.5,308.8,449.9,311.5,446.6,311.5z"/>
<path fill="#FCDDFC" d="M341.1,389.2h-26.5c-4.2,0-7.7-3.4-7.7-7.7v-27.7c0-4.2,3.4-7.7,7.7-7.7h26.5c4.2,0,7.7,3.4,7.7,7.7v27.7
	C348.8,385.8,345.3,389.2,341.1,389.2z"/>
<g>
	<g>
		<path fill="#FF75FE" d="M316.6,109.5h-29.7c-4.6,0-8.4-3.8-8.4-8.4V71.3c0-4.6,3.8-8.4,8.4-8.4h29.7c4.6,0,8.4,3.8,8.4,8.4v29.7
			C325,105.7,321.2,109.5,316.6,109.5z"/>
		<path opacity="0.56" fill="#FF75FE" d="M318.6,63.2c-7.8,14.6-14.4,30.2-28,40.6c-2.4,1.8-4.9,3.4-7.4,4.8
			c1.1,0.5,2.3,0.8,3.6,0.8h29.7c4.6,0,8.4-3.8,8.4-8.4V71.3C325,67.4,322.3,64.1,318.6,63.2z"/>
	</g>
</g>
<g>
	<path fill="#FFD359" d="M326.5,242.1h-29.3c-4.5,0-8.3-3.7-8.3-8.3v-29.3c0-4.5,3.7-8.3,8.3-8.3h29.3c4.5,0,8.3,3.7,8.3,8.3v29.3
		C334.8,238.4,331.1,242.1,326.5,242.1z"/>
	<path opacity="0.56" fill="#FF75FE" d="M328.5,196.5c-7.7,14.4-14.2,29.8-27.5,40c-2.4,1.8-4.8,3.4-7.3,4.7
		c1.1,0.5,2.3,0.8,3.6,0.8h29.3c4.5,0,8.3-3.7,8.3-8.3v-29.3C334.8,200.7,332.1,197.4,328.5,196.5z"/>
</g>
<path fill="#8B77E8" d="M412.3,424.3h-206c-0.4,0-0.8,0.3-0.8,0.8l0,0c0,0.4,0.3,0.8,0.8,0.8h206c0.4,0,0.8-0.3,0.8-0.8l0,0
	C413.1,424.6,412.7,424.3,412.3,424.3z"/>
<path fill="#CCC2FE" d="M365.1,430.4h-62.4c-0.2,0-0.4,0.2-0.4,0.4v0.7c0,0.2,0.2,0.4,0.4,0.4h62.4c0.2,0,0.4-0.2,0.4-0.4v-0.7
	C365.6,430.5,365.4,430.4,365.1,430.4z"/>
<path fill="#CCC2FE" d="M433.2,430.4h-62.4c-0.2,0-0.4,0.2-0.4,0.4v0.7c0,0.2,0.2,0.4,0.4,0.4h62.4c0.2,0,0.4-0.2,0.4-0.4v-0.7
	C433.6,430.5,433.4,430.4,433.2,430.4z"/>
<path fill="#CCC2FE" d="M295.3,430.4H233c-0.2,0-0.4,0.2-0.4,0.4v0.7c0,0.2,0.2,0.4,0.4,0.4h62.4c0.2,0,0.4-0.2,0.4-0.4v-0.7
	C295.7,430.5,295.6,430.4,295.3,430.4z"/>
<path fill="#CCC2FE" d="M411.3,434.6H276.1c-0.3,0-0.6,0.3-0.6,0.6v0.3c0,0.3,0.3,0.6,0.6,0.6h135.1c0.3,0,0.6-0.3,0.6-0.6v-0.3
	C411.9,434.9,411.6,434.6,411.3,434.6z"/>
<path fill="#CCC2FE" d="M373.6,440.9H238.5c-0.3,0-0.6,0.3-0.6,0.6v0.3c0,0.3,0.3,0.6,0.6,0.6h135.1c0.3,0,0.6-0.3,0.6-0.6v-0.3
	C374.2,441.2,374,440.9,373.6,440.9z"/>
<g>
	<polyline fill="none" stroke="#96FFFA" stroke-width="2" stroke-miterlimit="10" points="122.9,403.6 99.1,403.6 99.1,336 	"/>
	<circle fill="#96FFFA" cx="98.5" cy="335" r="2.6"/>
	<circle fill="#96FFFA" cx="122.9" cy="403.6" r="2.6"/>
</g>
<g>
	<polyline fill="none" stroke="#96FFFA" stroke-width="2" stroke-miterlimit="10" points="464.7,405.9 440.9,405.9 440.9,338.3 	"/>
	<circle fill="#96FFFA" cx="440.3" cy="337.3" r="2.6"/>
	<circle fill="#96FFFA" cx="464.7" cy="405.9" r="2.6"/>
</g>
<g>
	<circle fill="#96FFFA" cx="65.5" cy="288" r="2.6"/>
	<circle fill="#96FFFA" cx="40.3" cy="334.4" r="2.6"/>
	<polyline fill="none" stroke="#96FFFA" stroke-width="2" stroke-miterlimit="10" points="65.5,289.4 65.5,335 41.4,335 	"/>
</g>
<g>
	<circle fill="#96FFFA" cx="60.5" cy="173.7" r="2.6"/>
	<circle fill="#96FFFA" cx="35.3" cy="220" r="2.6"/>
	<polyline fill="none" stroke="#96FFFA" stroke-width="2" stroke-miterlimit="10" points="60.5,175 60.5,220.6 36.4,220.6 	"/>
</g>
<g>
	<circle fill="#96FFFA" cx="289" cy="73" r="2.6"/>
	<circle fill="#96FFFA" cx="242.6" cy="47.7" r="2.6"/>
	<polyline fill="none" stroke="#96FFFA" stroke-width="2" stroke-miterlimit="10" points="287.7,73 242.1,73 242.1,48.8 	"/>
</g>
<g>
	<circle fill="#96FFFA" cx="422.5" cy="55.7" r="2.6"/>
	<circle fill="#96FFFA" cx="397.3" cy="102.1" r="2.6"/>
	<polyline fill="none" stroke="#96FFFA" stroke-width="2" stroke-miterlimit="10" points="422.5,57.1 422.5,102.7 398.3,102.7 	"/>
</g>
</svg>
