<?xml version="1.0" encoding="utf-8"?>
<!-- Generator: Adobe Illustrator 24.0.1, SVG Export Plug-In . SVG Version: 6.00 Build 0)  -->
<svg version="1.1" id="Слой_1" xmlns="http://www.w3.org/2000/svg" xmlns:xlink="http://www.w3.org/1999/xlink" x="0px" y="0px"
	 viewBox="0 0 88 88" enable-background="new 0 0 88 88" xml:space="preserve">
<circle fill="#EAF9FF" cx="44" cy="44" r="44"/>
<g>
	<g>
		<g>
			<path d="M39.7,39.4c0.2,0.2,0.5,0.3,0.8,0.3c0,0,0,0,0,0c0.3,0,0.6-0.1,0.8-0.3l1.1-1.1v9.9c0,0.6,0.6,1.2,1.2,1.2h4.6
				c0.6,0,1.1-0.5,1.1-1.2V29.9c0-1.4-0.8-2.7-2.1-3.2c-1.3-0.5-2.7-0.2-3.7,0.8l-7,7c-0.4,0.4-0.4,1.2,0,1.6L39.7,39.4z M45.1,29.1
				c0.3-0.3,0.8-0.4,1.2-0.3c0.4,0.2,0.7,0.6,0.7,1.1V47h-2.3V35.5c0-0.5-0.3-0.9-0.7-1.1c-0.4-0.2-0.9-0.1-1.2,0.3L40.5,37
				l-1.6-1.6L45.1,29.1z"/>
			<polygon points="38.5,52.6 38.5,52.6 38.5,52.6 38.5,52.6 			"/>
			<path d="M69.1,22.6c-0.1-0.6-0.6-1-1.2-1l-9.4,0.3v-3.7c0-0.6-0.5-1.2-1.1-1.2H30.8c-0.6,0-1.2,0.5-1.2,1.2v3.5h-9.6
				c-0.6,0-1.1,0.4-1.1,1c-1.2,10.2,3.9,15.4,8.3,20c1,1,2,2,2.8,3c1.1,4.2,4,7.8,7.5,9.2c0,0,0,0,0,0c0.5,0.2,1.1,0.4,1.8,0.5v4.7
				c-4.4,1.1-7.7,5.2-7.7,9.9c0,0.6,0.5,1.2,1.2,1.2h22.4c0.6,0,1.1-0.5,1.1-1.2c0-4.8-3.4-8.9-7.8-10v-4.6c0.8-0.1,1.3-0.3,1.8-0.4
				c0,0,0.2-0.1,0.2-0.1c1.8-0.7,3.5-2.1,4.8-3.8c1.2-1.6,2.2-3.5,2.7-5.4c0.8-1,1.8-1.9,2.7-3C65.2,38,70.3,32.8,69.1,22.6z
				 M29.6,41.8c-0.2-0.3-0.5-0.5-0.7-0.8c-4.1-4.2-8.4-8.6-7.8-17.1h8.5V41.8z M31.9,19.3h24.3v2.3H31.9V19.3z M54.1,68.7h-20
				c0.6-3.8,3.9-6.8,7.9-6.8h4.2C50.2,61.9,53.5,64.9,54.1,68.7z M41.7,59.6v-4.1c0.9,0.1,1.8,0.1,2.3,0.1c0.5,0,1.4,0,2.3-0.1v4.1
				c0,0,0,0-0.1,0H42C41.9,59.6,41.8,59.6,41.7,59.6z M56.2,42.9c0,0.3,0,0.6-0.1,1c0,0.3-0.2,0.9-0.2,0.9c-0.9,3.5-3.3,6.7-6.2,7.9
				c0,0,0,0,0,0c-1.1,0.4-4.1,0.7-5.6,0.7c-1.5,0-4.5-0.3-5.6-0.8c0,0,0,0,0,0c-2.8-1.1-5.4-4.3-6.2-7.9c-0.2-0.7-0.3-1.5-0.3-2.5
				V23.9h24.3C56.2,23.9,56.2,42.8,56.2,42.9z M59.2,41c-0.2,0.2-0.4,0.4-0.7,0.7V24.2l8.4-0.3C67.5,32.4,63.2,36.8,59.2,41z"/>
		</g>
	</g>
</g>
</svg>
