<?xml version="1.0" encoding="utf-8"?>
<!-- Generator: Adobe Illustrator 24.0.1, SVG Export Plug-In . SVG Version: 6.00 Build 0)  -->
<svg version="1.1" id="Слой_1" xmlns="http://www.w3.org/2000/svg" xmlns:xlink="http://www.w3.org/1999/xlink" x="0px" y="0px"
	 viewBox="0 0 88 88" enable-background="new 0 0 88 88" xml:space="preserve">
<circle fill="#F4F4FF" cx="44" cy="44" r="44"/>
<g>
	<path d="M19.9,28.6c0.2,0,0.4-0.1,0.6-0.2c0.2-0.2,0.2-0.4,0.2-0.6s-0.1-0.4-0.2-0.6c-0.2-0.2-0.4-0.2-0.6-0.2s-0.4,0.1-0.6,0.2
		c-0.2,0.2-0.2,0.4-0.2,0.6s0.1,0.4,0.2,0.6C19.4,28.5,19.6,28.6,19.9,28.6z"/>
	<path d="M22.5,28.6c0.2,0,0.4-0.1,0.6-0.2c0.2-0.2,0.2-0.4,0.2-0.6s-0.1-0.4-0.2-0.6c-0.2-0.2-0.4-0.2-0.6-0.2s-0.4,0.1-0.6,0.2
		c-0.2,0.2-0.2,0.4-0.2,0.6s0.1,0.4,0.2,0.6C22.1,28.5,22.3,28.6,22.5,28.6z"/>
	<path d="M25.2,28.6c0.2,0,0.4-0.1,0.6-0.2c0.2-0.2,0.2-0.4,0.2-0.6s-0.1-0.4-0.2-0.6c-0.2-0.2-0.4-0.2-0.6-0.2s-0.4,0.1-0.6,0.2
		c-0.2,0.2-0.2,0.4-0.2,0.6s0.1,0.4,0.2,0.6C24.8,28.5,25,28.6,25.2,28.6z"/>
	<path d="M28.8,28.6h34c0.5,0,0.8-0.4,0.8-0.8s-0.4-0.8-0.8-0.8h-34c-0.5,0-0.8,0.4-0.8,0.8S28.3,28.6,28.8,28.6z"/>
	<path d="M66.4,28.6h1.8c0.5,0,0.8-0.4,0.8-0.8s-0.4-0.8-0.8-0.8h-1.8c-0.5,0-0.8,0.4-0.8,0.8S65.9,28.6,66.4,28.6z"/>
	<path d="M64.6,35.9H48.5c-1.4,0-2.6,1.2-2.6,2.6v0.1h-1c-1.4,0-2.6,1.2-2.6,2.6v7.2h-1.9v-2.7c0-1.4-1.2-2.6-2.6-2.6H23.4
		c-1.4,0-2.6,1.2-2.6,2.6v7.2c0,1.4,1.2,2.6,2.6,2.6h14.3c1.4,0,2.6-1.2,2.6-2.6v-2.7h1.9v7.2c0,1.4,1.2,2.6,2.6,2.6h1V60
		c0,1.4,1.2,2.6,2.6,2.6h16.1c1.4,0,2.6-1.2,2.6-2.6v-1.8c0-1.4-1.2-2.6-2.6-2.6H48.5c-1.4,0-2.6,1.2-2.6,2.6v0.1h-1
		c-0.5,0-1-0.4-1-1v-7.2h1.9v0.1c0,1.4,1.2,2.6,2.6,2.6h16.1c1.4,0,2.6-1.2,2.6-2.6v-1.8c0-1.4-1.2-2.6-2.6-2.6H48.5
		c-1.4,0-2.6,1.2-2.6,2.6v0.1h-1.9v-7.2c0-0.5,0.4-1,1-1h1v0.1c0,1.4,1.2,2.6,2.6,2.6h16.1c1.4,0,2.6-1.2,2.6-2.6v-1.8
		C67.2,37,66,35.9,64.6,35.9z M38.7,52.8c0,0.5-0.4,1-1,1H23.4c-0.5,0-1-0.4-1-1v-7.2c0-0.5,0.4-1,1-1h14.3c0.5,0,1,0.4,1,1V52.8z
		 M47.5,58.2c0-0.5,0.4-1,1-1h16.1c0.5,0,1,0.4,1,1V60c0,0.5-0.4,1-1,1H48.5c-0.5,0-1-0.4-1-1V58.2z M47.5,48.3c0-0.5,0.4-1,1-1
		h16.1c0.5,0,1,0.4,1,1v1.8c0,0.5-0.4,1-1,1H48.5c-0.5,0-1-0.4-1-1V48.3z M65.5,40.3c0,0.5-0.4,1-1,1H48.5c-0.5,0-1-0.4-1-1v-1.8
		c0-0.5,0.4-1,1-1h16.1c0.5,0,1,0.4,1,1V40.3z"/>
	<path d="M68.1,23.3H19.9c-2.4,0-4.4,2-4.4,4.4v35.8c0,2.4,2,4.4,4.4,4.4h48.3c2.4,0,4.4-2,4.4-4.4V27.8
		C72.6,25.3,70.6,23.3,68.1,23.3z M19.9,25h48.3c1.5,0,2.7,1.2,2.7,2.7v2.7H17.1v-2.7C17.1,26.3,18.3,25,19.9,25z M68.1,66.3H19.9
		c-1.5,0-2.7-1.2-2.7-2.7V32.2h53.8v31.4C70.9,65,69.7,66.3,68.1,66.3z"/>
</g>
</svg>
