<?xml version="1.0" encoding="utf-8"?>
<!-- Generator: Adobe Illustrator 24.0.1, SVG Export Plug-In . SVG Version: 6.00 Build 0)  -->
<svg version="1.1" id="Слой_1" xmlns="http://www.w3.org/2000/svg" xmlns:xlink="http://www.w3.org/1999/xlink" x="0px" y="0px"
	 viewBox="0 0 88 88" enable-background="new 0 0 88 88" xml:space="preserve">
<circle fill="#FFF6D3" cx="44" cy="44" r="44"/>
<g>
	<path d="M42.4,30.6H14.7c-0.5,0-0.9,0.4-0.9,0.9v8.2c0,0.5,0.4,0.9,0.9,0.9h27.7c0.5,0,0.9-0.4,0.9-0.9v-8.2
		C43.3,31,42.9,30.6,42.4,30.6z M28.5,37.7H16.7V33h11.8V37.7z M42.4,42.7H14.7c-0.5,0-0.9,0.4-0.9,0.9v8.2c0,0.5,0.4,0.9,0.9,0.9
		h27.7c0.5,0,0.9-0.4,0.9-0.9v-8.2C43.3,43.1,42.9,42.7,42.4,42.7z M28.5,49.7H16.7V45h11.8V49.7z M42.4,54.6H14.7
		c-0.5,0-0.9,0.4-0.9,0.9v8.2c0,0.5,0.4,0.9,0.9,0.9h27.7c0.5,0,0.9-0.4,0.9-0.9v-8.2C43.3,55,42.9,54.6,42.4,54.6z M28.5,62H16.7
		v-4.7h11.8V62z M77.3,42.1c0,6.3-5.1,11.4-11.4,11.4H45.4c0.1-0.4,0.2-0.7,0.2-1.1v-1.3h20.3c5,0,9-4,9-9s-4-9-9-9
		c-0.5,0-1,0-1.5,0.1l-0.8,0.1l-0.4-0.6c-1.7-2.5-4.5-4-7.5-4c-0.3,0-0.6,0-0.9,0l-1,0.1l-0.3-1c-1.1-3.9-4.6-6.6-8.7-6.6
		c-4.5,0-8.3,3.4-8.9,7.7h-2.4c0.6-5.7,5.5-10.1,11.3-10.1c4.8,0,9,3,10.7,7.5c3.6,0,7,1.6,9.2,4.5c0.4,0,0.8-0.1,1.1-0.1
		C72.2,30.8,77.3,35.9,77.3,42.1z"/>
</g>
</svg>
