<?xml version="1.0" encoding="utf-8"?>
<!-- Generator: Adobe Illustrator 24.0.1, SVG Export Plug-In . SVG Version: 6.00 Build 0)  -->
<svg version="1.1" id="Слой_1" xmlns="http://www.w3.org/2000/svg" xmlns:xlink="http://www.w3.org/1999/xlink" x="0px" y="0px"
	 viewBox="0 0 88 88" enable-background="new 0 0 88 88" xml:space="preserve">
<circle fill="#FDEEE4" cx="44" cy="44" r="44"/>
<g>
	<g>
		<g>
			<path d="M67.8,34.5H55c-2.5,0-4.6,2.1-4.6,4.6v7.8l-5.5-1.2v-2.3c2.7-1.9,4.4-5,4.6-8.5c2.4-2.5,3.7-5.8,3.7-9.2v-4
				c0-2.3-1.7-4.2-4-4.5c-1.9-3.9-5.9-6.4-10.3-6.4h-1.5c-3,0-5.9,1-8.3,2.8c-3.3,2.6-5.2,6.4-5.2,10.6v1.2v0.3v11.6
				c0,1.5,1.2,2.7,2.7,2.7H29c0.8,1.3,1.8,2.5,3.1,3.4v2.3L25,47.3c-5.5,1.2-9.3,6-9.3,11.6v8.6H55h12.8c2.5,0,4.6-2.1,4.6-4.6V39.1
				C72.4,36.6,70.3,34.5,67.8,34.5z M50.4,48.8v2.9l-2-3.3L50.4,48.8z M26.6,38.2c-0.5,0-0.9-0.4-0.9-0.9v-4.8
				c0.5,0.9,1.1,1.7,1.8,2.5c0,1.2,0.3,2.3,0.6,3.3H26.6z M28.8,28.1h-1.3v3.8c-1.2-1.8-1.8-4-1.8-6.2v-0.3v-1.2
				c0-3.6,1.6-7,4.5-9.2c2-1.6,4.6-2.4,7.1-2.4h1.5c3.9,0,7.3,2.3,8.9,5.8L48,19h0.6c1.5,0,2.7,1.2,2.7,2.7v4c0,2.2-0.6,4.4-1.8,6.2
				v-7.5h-2l-0.3,0.1C41.3,26.9,35.1,28.1,28.8,28.1z M31.2,40H35c0.4,1.1,1.4,1.8,2.6,1.8h1.8c1.5,0,2.7-1.2,2.7-2.7
				s-1.2-2.7-2.7-2.7h-1.8c-1.2,0-2.2,0.8-2.6,1.8h-4.9c-0.5-1.1-0.8-2.4-0.8-3.7v-4.6c6.3-0.1,12.4-1.3,18.3-3.6v8.2
				c0,5-4.1,9.1-9.1,9.1C35.5,43.7,32.9,42.2,31.2,40z M36.7,39.1c0-0.5,0.4-0.9,0.9-0.9h1.8c0.5,0,0.9,0.4,0.9,0.9S39.9,40,39.4,40
				h-1.8C37.1,40,36.7,39.6,36.7,39.1z M26.6,65.6V62h-1.8v3.7h-7.3v-6.7c0-4.8,3.2-8.8,7.9-9.8l3.3-0.7l-2.3,3.9l4.7,2.8l-2.7,6.3
				l5.7,4.3H26.6z M37,65.6l-6.5-4.9l2.8-6.5l-4.5-2.7l2.3-3.8l0,0l1.3-0.3l4.9,18.1H37z M33.9,46.3v-1.8c1.4,0.6,2.9,1,4.6,1
				c1.6,0,3.2-0.4,4.6-1v1.8l-4.6,16.8L33.9,46.3z M39.7,65.6l4.9-18.1l1.3,0.3l0,0l2.3,3.8l-4.5,2.7l2.8,6.5L40,65.6H39.7z
				 M43.1,65.6l5.7-4.3L46.1,55l4.3-2.6v10.5c0,1,0.4,2,0.9,2.7H43.1z M70.5,62.9c0,1.5-1.2,2.7-2.7,2.7H55c-1.5,0-2.7-1.2-2.7-2.7
				V62h18.3V62.9z M70.5,60.1H52.2V40.9h18.3V60.1z M52.2,39.1c0-1.5,1.2-2.7,2.7-2.7h12.8c1.5,0,2.7,1.2,2.7,2.7H52.2z"/>
			<rect x="58.6" y="62.9" width="5.5" height="1.8"/>
		</g>
	</g>
</g>
</svg>
