<?xml version="1.0" encoding="utf-8"?>
<!-- Generator: Adobe Illustrator 24.0.1, SVG Export Plug-In . SVG Version: 6.00 Build 0)  -->
<svg version="1.1" id="Слой_1" xmlns="http://www.w3.org/2000/svg" xmlns:xlink="http://www.w3.org/1999/xlink" x="0px" y="0px"
	 viewBox="0 0 88 88" enable-background="new 0 0 88 88" xml:space="preserve">
<circle fill="#FFECEF" cx="44" cy="44" r="44"/>
<g>
	<path d="M61,19.1h-1.9v-1c0-0.5-0.4-0.9-0.9-0.9s-0.9,0.4-0.9,0.9v1h-3.9v-1c0-0.5-0.4-0.9-0.9-0.9c-0.5,0-0.9,0.4-0.9,0.9v1h-3.9
		v-1c0-0.5-0.4-0.9-0.9-0.9c-0.5,0-0.9,0.4-0.9,0.9v1h-3.9v-1c0-0.5-0.4-0.9-0.9-0.9c-0.5,0-0.9,0.4-0.9,0.9v1h-3.9v-1
		c0-0.5-0.4-0.9-0.9-0.9c-0.5,0-0.9,0.4-0.9,0.9v1h-3.9v-1c0-0.5-0.4-0.9-0.9-0.9c-0.5,0-0.9,0.4-0.9,0.9v1H27
		c-1.5,0-2.8,1.2-2.8,2.8v47.3c0,1.5,1.2,2.8,2.8,2.8h34c1.5,0,2.8-1.2,2.8-2.8V21.9C63.8,20.3,62.5,19.1,61,19.1z M62,69.1
		c0,0.6-0.5,1-1,1H27c-0.6,0-1-0.5-1-1V21.9c0-0.6,0.5-1,1-1h1.9v1c0,0.5,0.4,0.9,0.9,0.9c0.5,0,0.9-0.4,0.9-0.9v-1h3.9v1
		c0,0.5,0.4,0.9,0.9,0.9c0.5,0,0.9-0.4,0.9-0.9v-1h3.9v1c0,0.5,0.4,0.9,0.9,0.9c0.5,0,0.9-0.4,0.9-0.9v-1h3.9v1
		c0,0.5,0.4,0.9,0.9,0.9c0.5,0,0.9-0.4,0.9-0.9v-1h3.9v1c0,0.5,0.4,0.9,0.9,0.9c0.5,0,0.9-0.4,0.9-0.9v-1h3.9v1
		c0,0.5,0.4,0.9,0.9,0.9s0.9-0.4,0.9-0.9v-1H61c0.6,0,1,0.5,1,1V69.1z"/>
	<path d="M41.2,31.3h13.2c0.5,0,0.9-0.4,0.9-0.9s-0.4-0.9-0.9-0.9H41.2c-0.5,0-0.9,0.4-0.9,0.9S40.7,31.3,41.2,31.3z"/>
	<path d="M58.2,33.3h-17c-0.5,0-0.9,0.4-0.9,0.9c0,0.5,0.4,0.9,0.9,0.9h17c0.5,0,0.9-0.4,0.9-0.9C59.1,33.7,58.7,33.3,58.2,33.3z"/>
	<path d="M36.8,28.8l-4.1,4.1l-2.2-2.2c-0.3-0.3-0.9-0.3-1.3,0c-0.3,0.3-0.3,0.9,0,1.3l2.8,2.8c0.2,0.2,0.4,0.3,0.6,0.3
		c0.2,0,0.5-0.1,0.6-0.3L38,30c0.3-0.3,0.3-0.9,0-1.3C37.7,28.4,37.1,28.4,36.8,28.8z"/>
	<path d="M41.2,40.7h13.2c0.5,0,0.9-0.4,0.9-0.9c0-0.5-0.4-0.9-0.9-0.9H41.2c-0.5,0-0.9,0.4-0.9,0.9C40.3,40.3,40.7,40.7,41.2,40.7z
		"/>
	<path d="M58.2,42.7h-17c-0.5,0-0.9,0.4-0.9,0.9s0.4,0.9,0.9,0.9h17c0.5,0,0.9-0.4,0.9-0.9S58.7,42.7,58.2,42.7z"/>
	<path d="M36.8,38.2l-4.1,4.1l-2.2-2.2c-0.3-0.3-0.9-0.3-1.3,0c-0.3,0.3-0.3,0.9,0,1.3l2.8,2.8c0.2,0.2,0.4,0.3,0.6,0.3
		c0.2,0,0.5-0.1,0.6-0.3l4.7-4.7c0.3-0.3,0.3-0.9,0-1.3C37.7,37.9,37.1,37.9,36.8,38.2L36.8,38.2z"/>
	<path d="M41.2,50.2h13.2c0.5,0,0.9-0.4,0.9-0.9c0-0.5-0.4-0.9-0.9-0.9H41.2c-0.5,0-0.9,0.4-0.9,0.9C40.3,49.8,40.7,50.2,41.2,50.2z
		"/>
	<path d="M58.2,52.2h-17c-0.5,0-0.9,0.4-0.9,0.9s0.4,0.9,0.9,0.9h17c0.5,0,0.9-0.4,0.9-0.9S58.7,52.2,58.2,52.2z"/>
	<path d="M36.8,47.7l-4.1,4.1l-2.2-2.2c-0.3-0.3-0.9-0.3-1.3,0c-0.3,0.3-0.3,0.9,0,1.3l2.8,2.8c0.2,0.2,0.4,0.3,0.6,0.3
		c0.2,0,0.5-0.1,0.6-0.3l4.7-4.7c0.3-0.3,0.3-0.9,0-1.3C37.7,47.4,37.1,47.4,36.8,47.7z"/>
	<path d="M41.2,59.6h13.2c0.5,0,0.9-0.4,0.9-0.9s-0.4-0.9-0.9-0.9H41.2c-0.5,0-0.9,0.4-0.9,0.9S40.7,59.6,41.2,59.6z"/>
	<path d="M58.2,61.6h-17c-0.5,0-0.9,0.4-0.9,0.9s0.4,0.9,0.9,0.9h17c0.5,0,0.9-0.4,0.9-0.9S58.7,61.6,58.2,61.6z"/>
	<path d="M36.8,57.1l-4.1,4.1L30.4,59c-0.3-0.3-0.9-0.3-1.3,0c-0.3,0.3-0.3,0.9,0,1.3l2.8,2.8c0.2,0.2,0.4,0.3,0.6,0.3
		c0.2,0,0.5-0.1,0.6-0.3l4.7-4.7c0.3-0.3,0.3-0.9,0-1.3C37.7,56.8,37.1,56.8,36.8,57.1z"/>
</g>
</svg>
