<?xml version="1.0" encoding="utf-8"?>
<!-- Generator: Adobe Illustrator 24.0.1, SVG Export Plug-In . SVG Version: 6.00 Build 0)  -->
<svg version="1.1" id="Слой_1" xmlns="http://www.w3.org/2000/svg" xmlns:xlink="http://www.w3.org/1999/xlink" x="0px" y="0px"
	 viewBox="0 0 88 88" enable-background="new 0 0 88 88" xml:space="preserve">
<circle fill="#E4FFEE" cx="44" cy="44" r="44"/>
<g transform="translate(1)">
	<g>
		<g>
			<path d="M65.1,56.8c-1.1-0.8-2.4-1.2-3.7-1.2c-4.5-2.9-7.4-5.1-9.1-6.9l-4-4c0.4-0.1,0.8-0.2,1-0.2c0.4,0,0.7-0.2,0.8-0.5
				L67,27.3c1.3-1.3,1.3-3.5,0-4.8l-2.2-2.2c-1.3-1.3-3.5-1.3-4.8,0l-17.1,17c-0.2,0.2-0.3,0.6-0.2,0.9c0,0.2-0.1,0.4-0.2,0.7
				l-4.1-4.1c-3.1-3.1-5.2-6-6.9-9.2c-0.1-1.6-0.7-3.2-1.9-4.3c-1.4-1.4-3.4-2.1-5.4-1.9c-0.2,0.1-0.5,0.2-0.6,0.4
				c-0.2,0.2-0.2,0.6,0,0.8l2.3,4.2c-0.5,1.1-1.7,1.7-2.8,1.7l-2.4-4c-0.1-0.2-0.4-0.4-0.7-0.4c-0.2-0.1-0.5,0.1-0.7,0.3
				c-2,3-1.2,7,1.7,9.1c1,0.7,2.2,1.1,3.4,1.2c0,0,0,0,0,0c3.2,1.7,6.1,3.8,9.1,6.8l3.6,3.6l-1.3,1.3c-0.3,0.3-0.3,0.8,0,1.2
				l1.2,1.2L22.5,61.1l-3.7,2.5c-0.2,0.2-0.3,0.3-0.3,0.6l-0.5,4c0,0.2,0.1,0.5,0.2,0.7c0.2,0.2,0.3,0.2,0.6,0.2c0.1,0,0.1,0,0.1,0
				l4-0.5c0.2,0,0.4-0.2,0.6-0.3l2.4-3.5c0,0,0.1-0.1,0.1-0.1l14.5-14.6l1.2,1.2c0.2,0.2,0.3,0.2,0.6,0.2c0.2,0,0.5-0.2,0.7-0.2
				l1.3-1.3l3.5,3.5c1.7,1.7,4,4.8,7,9.3c0.1,1.6,0.8,3.1,1.9,4.2c1.2,1.2,2.9,1.9,4.7,1.9c0.2,0,0.5,0,0.7,0c0.2,0,0.5-0.2,0.7-0.4
				c0.2-0.2,0.2-0.6,0-0.8l-2.4-4.1c0.6-1.1,1.7-1.7,2.9-1.7l2.3,4c0.1,0.2,0.4,0.4,0.7,0.4c0.3-0.1,0.6-0.2,0.7-0.4
				C68.8,62.9,68,58.9,65.1,56.8z M46.4,43.6c-0.6,0.2-1.3,0.7-1.8,1.2c-0.4,0.4-0.6,0.9-0.7,1.5l-3.1-3.1c0.6-0.1,1.2-0.3,1.6-0.7
				c0.6-0.5,1.2-1.7,1.6-2.9l3.7,3.7c-0.3,0.1-0.6,0.2-0.8,0.3C46.6,43.6,46.5,43.6,46.4,43.6z M61.1,21.4c0.7-0.7,1.7-0.7,2.4,0
				l2.2,2.2c0.7,0.7,0.7,1.7,0,2.4L49.2,42.4l-4.7-4.7L61.1,21.4z M20,24.5l1.7,3c0.2,0.2,0.4,0.4,0.7,0.4h0.4
				c1.9,0.1,3.7-0.9,4.5-2.6l0.2-0.4c0.2-0.2,0.2-0.5,0-0.7L25.7,21c1,0.2,1.9,0.7,2.7,1.4c0.9,0.9,1.4,2.1,1.4,3.4
				c0,0.1,0,0.1,0,0.2c0,0.4,0,0.8-0.1,1.1c-0.3,1.2-1.1,2.3-2.1,2.9c-1.7,1.1-3.9,1.1-5.6-0.1C20.2,28.7,19.5,26.4,20,24.5z
				 M27.2,32.1c0.4-0.2,0.9-0.4,1.3-0.7c1.2-0.8,2.1-1.9,2.6-3.2c1.6,2.7,3.6,5.1,6.1,7.6l4.6,4.6c-0.2,0.3-0.4,0.6-0.5,0.8
				c-0.5,0.4-1.7,0.3-2.3,0.3c-0.2,0-0.4,0.1-0.6,0.2l-3.5-3.5C32.2,35.7,29.8,33.7,27.2,32.1z M22.4,66.9l-2.7,0.3l0.3-2.6l2.8-1.9
				l1.4,1.4L22.4,66.9z M25.4,62.9l-1.2-1.2l14-14l1.2,1.2L25.4,62.9z M42.3,49.5l-4.7-4.7l1.2-1.2l4.6,4.6c0,0-0.1,0.1-0.1,0.1
				L42.3,49.5z M45.4,48.9c0.1-0.2,0.2-0.4,0.2-0.6l0,0l0,0c0-0.2-0.1-0.6-0.1-0.9c0-0.5,0.1-1.1,0.4-1.4c0.1-0.1,0.3-0.3,0.5-0.4
				c0,0,0,0,0,0c0.1-0.1,0.2-0.1,0.3-0.2l4.6,4.6c1.5,1.6,4.1,3.6,7.8,6c-0.5,0.2-1.1,0.4-1.6,0.8c-1.2,0.9-2.1,2-2.6,3.4
				c-0.5-0.7-0.9-1.4-1.4-2l1.1-1.1c0.3-0.3,0.3-0.8,0-1.2c-0.3-0.3-0.8-0.3-1.2,0l-1,1c-0.3-0.5-0.7-0.9-1-1.3l0.8-0.8
				c0.3-0.3,0.3-0.8,0-1.2c-0.3-0.3-0.8-0.3-1.2,0l-0.7,0.7c-0.6-0.7-1.1-1.3-1.7-1.8L45.4,48.9z M66,63.7l-1.7-3
				c-0.2-0.2-0.4-0.4-0.7-0.4h-0.4c-1.9-0.2-3.7,0.9-4.5,2.6l-0.2,0.4c-0.2,0.2-0.2,0.5,0,0.7l1.8,3.2c-1-0.2-1.9-0.7-2.7-1.4
				c-0.8-0.9-1.4-2.1-1.4-3.3c0-0.1,0-0.1,0-0.2c0-0.9,0.3-1.8,0.7-2.6c0,0,0,0,0,0c0,0,0,0,0,0c0.4-0.6,0.9-1.2,1.5-1.6
				c0.1-0.1,0.2-0.1,0.3-0.2c0.6-0.3,1.4-0.6,2.2-0.6c0.1,0,0.3,0,0.4-0.1c1,0,1.9,0.4,2.7,0.9C65.8,59.4,66.5,61.7,66,63.7z"/>
			<path d="M48.2,38.9c0.2,0.2,0.3,0.2,0.6,0.2c0.2,0,0.4-0.1,0.6-0.2l14.1-14.1c0.3-0.3,0.3-0.8,0-1.2c-0.3-0.3-0.8-0.3-1.2,0
				L48.2,37.7C47.9,38.1,47.9,38.6,48.2,38.9z"/>
		</g>
	</g>
</g>
</svg>
