<?xml version="1.0" encoding="utf-8"?>
<!-- Generator: Adobe Illustrator 24.0.1, SVG Export Plug-In . SVG Version: 6.00 Build 0)  -->
<svg version="1.1" id="Слой_1" xmlns="http://www.w3.org/2000/svg" xmlns:xlink="http://www.w3.org/1999/xlink" x="0px" y="0px"
	 viewBox="0 0 665 723" enable-background="new 0 0 665 723" xml:space="preserve">
<path fill="#EEEFFE" d="M379,0.9c0-0.3,0-0.6,0-0.8c2.3,0,4.7,0,7,0c0,0.3,0,0.6,0,0.8C383.7,3,381.3,3,379,0.9z"/>
<path fill="#EEECF5" d="M433,557.9c-5.3,9.4-10.6,18.8-18.2,26.7c-18.7,19.3-41.6,31-67.5,37.3c-13.1,3.2-26.3,4.7-39.8,5.2
	c-38.5,1.3-75-6.3-110-21.9c-0.4-0.2-1-0.2-1.5-0.3c0.6-3.3,3.6-3,5.7-3.8c6.4-2.3,10.9-6.3,12.8-12.9c0.9-3,1-5.9,0.3-8.9
	c-2.5-10.7-8.9-18.9-17-25.8c-15.8-13.4-34.4-20.8-54.4-24.8c-5.1-1-10.3-0.7-15.3,1c-3.5,1.2-5.8,0.3-7.1-3.2
	c-6.6-16.8-11.7-34-11.4-52.4c0.2-14.2,5.5-25.7,16.9-34.6c16.9-13.3,36.2-21.8,56.2-28.7c33.6-11.4,68.2-18.2,103.3-22.3
	c20.2-2.4,40.4-3.8,60.6-5.1c15.1-1,30.1-3.3,44.9-6.5c1.5-0.3,2.9-0.8,4.4-0.6c0.6,0.1,1.1,0.3,1.5,0.6c5,6,7.2,13.4,10.3,20.4
	c12.8,28.9,23.5,58.6,30.6,89.5c4.8,20.5,6,41.1-0.7,61.5C436.7,551.8,435.3,555.1,433,557.9z"/>
<path fill="#515EFB" d="M379,0.9c2.3,0,4.7,0,7,0c28.6,2.7,46.9,19.3,59,44.1c1.1,2.5-0.8,3.1-2.5,3.1c-16,0.1-22.6,11.5-28.3,23.8
	c-4.2,9.1-6.6,18.8-9.1,28.5c-2.7,10.8-5.6,21.6-8.9,32.3c-5.8,18.9-17.8,33.4-33,45.3c-18.4,14.4-39.3,24.4-60.7,33.3
	c-4.7,2-9.1,5.1-14.5,4.7c-7-3-12.2-8.6-17.7-13.6c-15.8-14.4-30.4-29.9-40.8-48.8c-8.5-15.4-13.4-31.6-9.8-49.3
	c2.2-10.9,8-20.1,15.2-28.3c9.7-10.8,20.5-20.5,32.6-28.5c2.6-1.8,5.3-3.3,8.3-4.4c18.7-11.2,37.8-21.5,58.1-29.5
	C348.6,7.8,363.2,2.3,379,0.9z"/>
<path fill="#515EFB" d="M452.1,64.1c7.9,35.3,4.2,69.5-10.2,102.4c-12.1,27.8-29.8,51.2-57,66.1c-24,13.2-48.3,13.3-72.1-0.9
	c-5.3-3.2-10.5-6.4-15.7-9.7c-1.4-3.1,1.5-3.2,3-3.9c8.4-3.8,16.8-7.3,25-11.3c16.8-8.2,33-17.4,47.3-29.6
	c17.4-14.9,27.2-34.1,32.7-56c3.9-15.8,7.6-31.8,13.6-47c2-5,4.7-9.6,8.1-13.7c3.6-4.3,8.3-6.7,13.7-7.5c3-0.5,6-0.3,8.4,2.1
	C449.9,58.1,451,61.1,452.1,64.1z"/>
<path fill="#FAFAFA" d="M302,267c9.5-0.2,18.7-2.6,27.8-4.6c21.6-4.8,43.1-10.5,65-14c10.7-1.7,21.6-2.8,32.5-3.5
	c9.6-0.6,19.2-1,28.9-0.7c17.4,0.4,34.6,2,51.8,4.7c15.8,2.5,31.8,4.1,47.6,6.3c7.7,1.1,15.3,2.4,23,3.7c3.1,0.5,4.7-0.1,5.5-3.7
	c1.3-5.9,1.3-11.9,1.5-17.8c0.6-18.4,2.9-36.7,2.3-55.2c-0.6-17-3.9-33-15.7-46c-7.6-8.3-17-14.5-27.3-18.8
	c-16.2-6.9-30.5-16.8-44.4-27.2c-5.4-4-11-7.9-15.6-13c5,0.5,9.3,3.2,13.7,5.2c5.5,2.5,11.4,4.1,16.3,7.8
	c7.5,5.5,15.4,10.4,23.8,14.5c5.7,2.8,10.9,6.9,17.2,8.5c6.6,5.1,14,9.1,20,15c6.6,6.6,12.5,13.7,15.5,22.9c2.7,8.4,4.5,17,5,25.9
	c1.3,23.5-1.8,46.8-2.2,70.3c0,0.3-0.1,0.7-0.1,1c-1.2,11.2-1.2,11.2,10.1,13.5c12.6,2.6,25.1,5.3,37,10.3c4,1.7,7.9,3.6,10.7,7.2
	c-0.7,2.7-1.3,5.3-2,8c-17.5-12.1-38.1-14.7-58.1-18.8c-2.4-0.5-4,0.2-5.3,2.5c-13.3,25.5-34.8,42.5-58.9,57
	c-27.4,16.4-56.6,28.4-87,37.9c-14.4,4.5-29,8.2-43.7,11.4c0,0,0,0,0,0c-1.8-2-3.6-4-3-7c19.7-3.9,38.9-9.5,57.9-16
	c15.4-5.3,30.6-11.1,45.2-18.3c20.4-10,40.1-21.2,57.3-36.4c9.5-8.3,17.4-17.7,23.7-28.5c1.8-3.1,2.3-4.4-2.5-5
	c-21.3-2.6-42.6-5.3-63.8-9c-27-4.7-54.1-5.5-81.3-4.7c-14.4,0.4-28.6,2.5-42.8,5.2c-18.2,3.4-36.2,7.8-54.2,12.2
	c-7,1.7-14.1,3.7-21.5,3.5C306.2,273.1,302.5,270.9,302,267z"/>
<path fill="#FAFAFA" d="M256,267c-7.6-6.1-15.2-12.1-22.8-18.2c-1.5-1.2-2.8-0.5-4.2,0.2c-16.4,8-32.5,16.6-48.3,25.8
	c-19,11.1-37.7,22.8-57.4,32.9c-12.5,6.4-25.4,12.1-40,12.3c-11.5,0.2-20.9-4.1-28.9-12.1c-1.4-1.4-3-2.6-4.4-4
	c-1.5-4.9-1.8-9.9-2-15c4.8,5,8.4,10.9,13.7,15.5c9,7.7,19,9.5,30.1,7.1c18.2-3.9,33.8-13.5,49.7-22.5c19.2-11,37.9-22.7,57.4-33
	c7.9-4.2,15.9-8.4,23.9-12.4c2.6-1.3,3-2.2,0.8-4.6c-18.1-19.9-33.9-41.6-48.4-64.2c-9.7-15.1-18.3-30.9-26.6-46.8
	c-1.2-2.3-2.3-3.2-4.8-3.1c-6,0.2-12-0.1-18,0.1c-16.3,0.6-32.5-1.5-48.8-1c2.7-3,5.3-6,8-9c17.1,1.2,34.2,0.3,51.4,0.5
	c4.2,0,4.6-0.8,2.8-4.9c-4.1-9.3-8-18.6-10.2-28.6c2.7-1.3,5.3-2.7,8-4c1.9,1.2,2.1,3.3,2.7,5.2c2.7,9.1,6.6,17.7,10.1,26.5
	c1.5,3.8,4,5.4,8.1,5c11.8-1.2,23.4-2.8,34.3-7.8c13.2-6.1,17.5-16.9,11.9-30.4c-2.1-5.1-4.7-9.9-7.4-14.7c-1.1-1.8-2.5-3.6-2.7-5.8
	c2.7-1.9,6.2-1.4,9-3c-0.2,2.1,1,3.7,2,5.5c4.5,8.5,10,16.6,10,26.7c0,15-6.5,24.8-20.3,30.4c-10.5,4.3-21.5,6.6-32.8,7.4
	c-2.1,0.1-4.1,0.8-6.9,1.4c6.5,11.6,12.5,22.9,18.9,33.8c11.8,20,25,39.1,39.5,57.3c5.6,7,11.9,13.4,17.8,20.1c1.7,2,3.2,2,5.6,1
	c16.8-7.5,33.9-14.4,51.2-20.7c3.3-0.7,5.2,0.8,6,4c-0.3,2.4-2.3,2.5-4,3.2c-15.9,6.2-32.1,11.9-47.5,19.5c-1.8,0.9-3.3,1.5-1.1,3.3
	c8.5,6.6,16.2,14.3,26.5,18.1c-1.7,3.6-4.1,4.3-10,3C257.4,267,256.7,267,256,267z"/>
<path fill="#F7F7FA" d="M394,370c1,2.4,2.7,4.4,3,7c-14.5,3.6-29.2,5.8-44,7c-17.5,1.4-35,2.3-52.4,4.1c-39.9,4.2-79.3,11-117.4,24
	c-18,6.1-35.3,13.6-50.9,24.7c-9.5,6.8-17.8,14.5-20.1,26.7c-2.2,11.4-1.1,22.8,1.3,34c2.1,9.8,5.3,19.2,8.8,28.5
	c0.9,2.5,1.8,3.7,5,2.4c6.2-2.3,12.6-2.2,19.1-0.7C164.9,532,182.1,539,197,551c9.1,7.3,16.4,15.9,19.1,27.7
	c2.3,10-2.8,19.6-12.3,23.2c-2.6,1-5.5,1.2-7.8,3c-5-2.8-10.4-4.6-15-8c2.1-1.9,4.7-1.2,7.1-1.2c3.7,0,7.3-0.2,10.8-1.6
	c7.8-3.1,10.5-8.9,7.7-16.8c-3-8.3-9-14.3-15.6-19.7c-14.9-12.3-32.7-18.1-51.2-22.1c-1-0.2-2-0.2-3-0.1c-7.7,0.8-8.2,2-4.4,8.7
	c7.4,13.3,15.7,25.9,26.7,36.5c1.1,1.1,2.6,2.2,2,4.2c-8.5-4.2-15.6-10.4-22.8-16.4c-2.1-1.8-5-2.8-6.2-5.6
	c-4-5.5-7.1-11.5-10.6-17.1c-2.1,0.4-2,2.5-3.4,3.1c-2-2.3-4-4.7-6-7c5.3-4.7,5-9.5,2.3-15.9c-5.8-14-10.6-28.5-10.3-44.1
	c-1.2-1.5,0.2-3.5-1-5c0-1,0-2,0-3c1.2-1.5-0.2-3.5,1-5c0-16.4,9-27.6,21.5-36.7c19.7-14.4,41.9-23.3,65.1-30.4
	c17.9-5.5,36.1-9.9,54.5-13.3c14.9-2.8,30-4.9,45.1-6.6c20.7-2.4,41.6-3.2,62.3-5.1C366.4,375.5,380.4,373.6,394,370z"/>
<path fill="#B6BCFD" d="M294,220c-1.9-1.4-3.4-3.6-6-4c0-0.3-0.1-0.6-0.1-0.8c7.7-1.2,14.3-5.1,21.3-8.1c18.8-8.1,36.9-17.5,53.3-30
	c18.1-13.8,29.8-31.7,35.5-53.8c4.5-17.3,8.1-34.9,14.9-51.6c2.8-6.8,6.5-13.1,12-18.2c4.4-4.1,9.5-6.6,15.7-6.6
	c1.6,0,3.9,1,4.4-1.8c1.3,3.4,2.6,6.7,3.9,10.1c-13.9-3.7-21.4,4.3-26.4,14.1c-6.7,13.3-9.9,27.8-13.6,42.1
	c-3.7,14.5-7.2,29-14.9,42.1c-11,18.8-27.6,31.7-45.9,42.6c-15.2,9-31.2,16.3-47.4,23.2c-1.3,0.6-3.6,0.3-3.6,2.8
	C296.1,221.3,295.1,220.7,294,220z"/>
<path fill="#FAFAFA" d="M546.9,453c-3.2-1.8-6.5-0.1-9.5,0.2c-19.4,2.1-38.7,4.8-57.9,8.4c-9.1,1.7-17.8-0.6-26.4-3.4
	c-2.4-0.8-4.7-1.5-7.1-2.2c-2.1-0.6-4.5-0.6-3.2-4c0.9-2.6,1.5-4.7,5.1-3.3c3.7,1.4,7.8,1.8,11.4,3.4c9.4,4,18.8,2.3,28.3,0.5
	c15.8-2.9,31.6-5.3,47.6-6.7c6.3-0.6,12.4-2,18.7-1.9C552.6,447.7,549.1,449.8,546.9,453z"/>
<g>
	<path fill="#EFEDF5" d="M532,317.8c17.8-11.3,34-24.6,45.3-42.9c5.1-8.4,4.5-9.8-5.2-11.1c-28.2-3.7-56.3-8.3-84.6-11.5
		c-24.1-2.7-48.2-2.6-72.2-0.3c-22.6,2.2-44.8,6.8-66.7,12.4c-12.1,3.1-24.3,5.9-36.6,7.6c-8.2,1.6-16.5,1.3-24.8,1.6
		c-10.2,0.3-19.4-2.2-28.2-7.2c-0.7-0.3-1.5-0.6-2.3-0.7c-0.2,0-0.4-0.1-0.5-0.1c-0.3-1.2-1.6-1.8-2.5-2.4
		c-5.6-3.7-10.8-7.8-15.6-12.4c-3.9-3.7-7.6-3.9-12.6-1.4c-25.6,12.6-50,27.3-74.5,41.6c-15.2,8.9-30.3,18-47.1,23.9
		c-18.1,6.3-35,6.1-49.3-8.8c-1.1-1.2-2.2-2.6-4.2-2c1,11.8,3.4,23.5,5.6,35.1c3.8,20.1,8.7,40.1,14.7,59.6c2.6,8.5,4,17.4,8.7,25.2
		c0,0,0,0,0,0c1.5,4.8,0.6,9.4-0.5,14.1c-0.7,3-1.3,6.2-1.4,9.3c-0.8,17.3,1.4,34,8,50.2c6.6,16.3,15.3,31.2,27,44.3
		c6.1-3.5,7.2-6.5,4.9-12.5c-6-15.2-11.1-30.7-11.9-47.2c-0.6-1.7-0.7-3.5-0.6-5.3c0-1,0-2.1,0-3.1c-0.1-1.8,0.1-3.6,0.7-5.4
		c0.6-6,2-11.8,4.9-17.2c6.4-12,17.3-19.1,28.5-25.8c22-13.3,46.3-21,71-27.6c45.5-12,91.9-16.6,138.7-19.5
		c15.6-1,31.1-3.7,46.4-6.9c2.8-0.5,5.5-1.3,8.3-1.9C448.4,358.8,492.2,343.2,532,317.8z"/>
	<path fill="#EFEDF5" d="M638.2,279c-14.6-6.3-30.2-9.1-45.8-11.9c-3.5-0.6-5.7,0.8-7.3,3.8c-10.9,20.6-27.7,35.6-46.6,48.5
		c-19.6,13.3-40.9,23.7-62.8,32.5c-23.2,9.3-47.1,16.6-71.4,22.3c-2.5,0.6-5.3,0.7-7.3,2.9c2.5,5.3,4.9,10.5,7.4,15.8
		c12.1,25.7,21.6,52.4,29.3,79.7c3.4,12.2,6.3,24.7,7.3,37.4c1.3,16.6-1.6,32.7-8,48.1c3-2.1,6-4.2,8.9-6.4
		c18.1-14,35.6-28.6,52.5-44.2c18.6-17.2,35.8-35.6,52.6-54.4c-0.7-3-3.1-1.8-4.8-1.6c-20.7,1.8-41.3,4.8-61.7,8.6
		c-11.9,2.2-22.7-1.9-33.6-5.4c-1.1-0.4-2.2-1-2-2.5c0.3-1.7,1.7-1.8,3.1-1.7c2.3,0.3,4.5,1.1,6.7,1.8c9.9,3.6,19.8,4.5,30.3,2.3
		c16.9-3.5,34.1-5.6,51.3-7.5c5.9-0.6,12-0.2,17.6-3.1c1.5-1.3,3.1-2.5,4.4-4c10.3-13,20.6-25.9,30.4-39.2
		c19.7-26.8,37.3-54.9,51.3-85.1c4.2-9.2,7.8-18.6,9.9-28.6C647.1,282.7,642.6,280.9,638.2,279z"/>
	<path fill="#EFEDF5" d="M242.9,241.1c-4,1.9-4.5,3.7-1.6,6.2c8.1,6.8,16.1,13.9,26.1,18c1.7,0.6,3.4,1.5,5.3,1.3
		c7.6-0.5,15.1-0.5,22.3,2.2c2.5,0.5,4.9-0.4,7.4-0.4c2.2,0,4.3-0.3,6.5-0.6c21.1-3.1,41.7-8.9,62.5-13.5
		c39.2-8.7,78.7-11.4,118.6-6.6c28.8,3.5,57.4,7.7,86.1,11.9c7.3,1.1,9.2,0,9.9-7.3c0.7-7.4,1.5-14.9,1.5-22.4
		c0.1-7.6,0.6-15.3,1.3-22.9c0.9-9.8,0.9-19.6,0.4-29.4c-0.5-9.8-2.3-19.5-6.6-28.5c-7.6-16.2-21.3-25.9-36.8-33
		c-14.7-6.7-28-15.3-41-24.7c-6.6-4.8-12.5-10.6-19.8-14.3c-3.8-1.9-7.7-3.5-11.7-5.2c-7-2.9-14.5-4.3-21.2-7.8
		c-1.7,1.8-0.7,3.8-0.3,5.7c1.4,6.5,2.5,13.1,2.8,19.8c1.4,30.9-4.6,60.4-19.2,87.7c-13,24.3-30.5,44.6-55.9,56.5
		c-18.3,8.6-37,9.9-56.1,1.6c-8.9-3.9-16.9-9.3-25.2-14.3c-1.4-0.6-2.7-1.7-4.4-1.3c-3.1,1.9-6.5,3.2-10,4.5
		C269.9,229.4,256.2,234.7,242.9,241.1z"/>
	<path fill="#EFEDF5" d="M93.6,312.7c15.9-4.1,30-11.7,44.1-19.8c27.9-16,55.2-33,84-47.3c5.7-2.8,6-3.8,1.8-8.8
		c-6.4-7.7-13.2-15-19.3-22.9c-19.2-25.4-37-51.8-50.9-80.6c-3.8-7.8-8.6-10.1-17-9.8c-13.6,0.5-27.3,0.7-40.9-0.6
		c-6-0.6-12.3-1.5-18.2,1.1C65.7,137.7,57,152.8,51.9,170c-4,13.4-6.2,27.2-6.6,41c-0.7,26-1.1,52.1,2.8,78
		C56,305.1,72.2,318.2,93.6,312.7z"/>
	<path fill="#EFEDF5" d="M210.7,72.4c7.4,18.2,2.3,33.9-16.3,41.9c-5.9,2.5-11.9,4.2-18.1,5.5c-5.4,1.1-10.8,1.7-16.3,2.4
		c-5.4,0.7-6,2.1-3.8,6.9c0.5,1.1,1,2.1,1.6,3.1c7.1,12.6,13.9,25.4,21.7,37.6c14,22.1,29.3,43.3,46.9,62.8
		c6.5,7.2,6.9,7.3,15.7,3.4c12.8-5.6,25.7-11.1,38.9-15.7c2.5-0.9,5.2-1.5,7-3.6c0.3-0.5,0.3-1-0.1-1.4c-5.2-4.2-10.5-8.2-15.4-12.6
		C255,187,239.2,170,228.6,148.8c-6.9-13.8-10.8-28.2-7.6-43.8c2.5-12,9.1-21.6,17.1-30.5c11-12.4,24.5-21.9,37.9-31.4
		c-15.4-0.1-30.6,2-45.7,4.8c-9.1,1.7-18.1,3.5-27.2,5.2c-1.6,2.2-0.3,4.1,0.8,6C206.4,63.4,208.8,67.8,210.7,72.4z"/>
	<path fill="#EFEDF5" d="M651.6,240.3c-3.2-19.1-10.7-36.6-20.9-52.9c-14.5-23.2-33.5-42.3-54.8-59.3c-1,1,0,1.5,0.5,2
		c16.8,16.2,19.2,37.4,19.1,58.8c0,10.7-0.1,21.5-1.4,32.2c-1.5,12.1-0.5,24.5-2.9,36.6c-0.4,1.9,0,3,2.3,3.4
		c20.2,3.7,40.5,7,58.5,18C653.5,266.1,653.8,253.1,651.6,240.3z"/>
	<path fill="#EFEDF5" d="M155.5,116.1c13-0.7,25.7-2.7,37.6-8.1c10.2-4.7,16.2-13.4,14.8-22.6c-1.8-11-7.1-20.5-13.9-29.3
		c-10.5,2.3-20.6,5.9-30.5,9.8c-9,3.6-18.1,7.1-26.4,12.2c2.8,12,7.8,23.3,12.7,34.5C151,115.2,152.6,116.3,155.5,116.1z"/>
	<path fill="#EFEDF5" d="M199.9,564.2c-13.3-14.4-30.3-22.4-48.9-27.2c-6.1-1.6-12.2-4.4-18.9-2c-3.7,1.3-5.4,2.4-2.9,6.3
		c3.2,5,6.1,10.3,9.1,15.4c6.2,10.5,14.5,19.4,22.7,28.2c6.1,4.9,13,8.6,20,12c4,0,8,0.4,12-0.1c13.9-1.7,19.9-10.5,13.6-22.8
		C204.8,570.5,202.7,567.2,199.9,564.2z"/>
	<path fill="#EFEDF5" d="M91,117.1c15.9,0,31.9-0.1,47.8,0.1c4.3,0.1,4.4-1.8,2.9-4.6c-3.3-6.3-5.3-13.2-8.3-19.7
		c-1.6-3.5-0.7-8.1-4.4-10.7c-3,1.8-6,3.5-8.9,5.4c-12.8,7.8-24.3,17.2-35,27.6C86.6,116.9,88.7,117.1,91,117.1z"/>
	<path fill="#EFEDF5" d="M118.1,549c4.3,5.1,8.9,9.7,14,14c-2.1-7.4-7.5-13-10.7-20.1C119.3,545,117.8,546.5,118.1,549z"/>
</g>
<path fill="#F7F7FA" d="M258,267c3.2-1.4,7.4,0.4,10-3c1.3,0.7,2.7,1.3,4,2c7.7-0.3,15.4,0.5,23,2c2.3-0.3,4.7-0.7,7-1
	c2.3,3.8,6.5,4.3,10,6c-3.1,2-6.8,1.6-10,1.7c-9.4,0.3-19,1.5-28.3-0.8C268.1,272.6,262.4,271.2,258,267z"/>
<path fill="#F3F3F4" d="M104.1,469c-0.2,1.7,0.7,3.6-1,5C103.3,472.3,102.4,470.4,104.1,469z"/>
<path fill="#F3F3F4" d="M103.1,477c1.7,1.4,0.8,3.3,1,5C102.4,480.6,103.3,478.7,103.1,477z"/>
<path fill="#F0EEF6" d="M295,268c-7.8,0.4-15.4-0.6-23-2C279.9,264.2,287.6,264.3,295,268z"/>
</svg>
