<?xml version="1.0" encoding="utf-8"?>
<!-- Generator: Adobe Illustrator 24.0.1, SVG Export Plug-In . SVG Version: 6.00 Build 0)  -->
<svg version="1.1" id="Слой_1" xmlns="http://www.w3.org/2000/svg" xmlns:xlink="http://www.w3.org/1999/xlink" x="0px" y="0px"
	 viewBox="0 0 296 93" enable-background="new 0 0 296 93" xml:space="preserve">
<path fill="#002C53" d="M46.1,92.9c-0.7-1.6-2.4-1.6-3.6-2.4c-3.9-2.7-5.1-8.1-2.5-12.3c2.5-4.1,8.1-5.5,12.2-3.1
	c0.9,0.6,2.4,1.1,1.5,2.6c-0.7,1.2-1.6,0.3-2.5-0.1c-3.1-1.4-6.2-1.4-8.5,1.6c-1.8,2.4-1.9,4.9-0.2,7.3c2.2,3.1,5.2,3.3,8.4,2
	c1-0.4,2-1.1,2.6-0.1c0.8,1.4-0.7,1.9-1.6,2.5c-1.2,0.8-2.9,0.6-3.8,2C47.4,92.9,46.7,92.9,46.1,92.9z"/>
<path fill="#E7E7E7" d="M293.9,48c0.4-0.9,1.2-1,2-1c0,2.7,0,5.3,0,8c-0.4,0-0.7,0-1.1,0C294.5,52.6,296,50.1,293.9,48z"/>
<path fill="#D0D0D0" d="M0.9,53.1l-0.4,0L0.1,53c0-1.7,0-3.3,0-5c0.3-0.1,0.5-0.1,0.8-0.1C2.6,49.6,2.6,51.3,0.9,53.1z"/>
<path fill="#002C53" d="M0.9,53.1c0-1.7,0-3.4,0-5.1c0.4-2.3,1.9-3.9,3.8-5c2.8-1.6,4.7-1,4.4,2.5c-0.4,4-1.2,8,2.5,10.9
	c4,3.2,8.7,2.9,13.4,2.5c3.2-0.2,6.1-1.6,8.6-3.5c4.6-3.5,4.8-8.8,0.7-12.9c-3.4-3.3-7.7-5.1-11.8-7.2c-3.8-2-7.7-3.9-10.8-7
	c-5.3-5.4-4.9-13,0.8-17.9C19.9,4,34.1,3.5,41.7,9.4c6.8,5.2,6.9,15.3,0.1,20.1c-1.3,0.9-2.8,2.4-4.5,0.9c-1.3-1.1-0.7-2.8-0.3-4.2
	c0.2-0.6,0.6-1.2,0.9-1.8c3.7-7.5,1-12-7.6-12.3c-3.5-0.1-7-0.4-10.2,1.4c-5,2.8-5.8,7.7-1.5,11.4c2.4,2,5.2,3.5,8,5
	c3.9,2.2,8,4,11.7,6.6c9.4,6.6,9.3,17.8,0.1,24.6c-8.1,5.9-22.5,6.3-31,0.9C4,59.9,1.6,57.1,0.9,53.1z"/>
<path fill="#002C53" d="M122.9,91.7c-1.7-4-0.5-8.1-1.4-12.7c-2.7,2.8-3.4,6-5.1,8.7c-0.5,0.8-0.7,2-1.8,2.2
	c-1.6,0.2-1.7-1.3-2.2-2.3c-1.5-2.7-2.8-5.4-4.7-9.2c-1.2,5.2,0.3,9.5-1.2,13.4c-0.5,0-1,0-1.5,0c0-5.4-0.5-10.9,0.3-16.2
	c0.3-2.3,3.2-1.5,4.4,0.5c1.7,2.8,2.4,6.1,4.9,9c1.5-3,2.9-5.8,4.2-8.6c0.7-1.5,1.7-2.4,3.5-2.2c2.4,0.3,1.7,2.2,1.6,3.5
	C123.8,82.4,124.7,87.1,122.9,91.7z"/>
<path fill="#002C53" d="M215.9,86.2c0-3.1,0-6.2,0-9.3c0-0.9-0.4-2.2,1-2.4c1.3-0.2,1.6,0.9,1.6,2c0,4.5,0,8.9,0,13.4
	c0,0.9-0.1,1.7-1.2,1.9c-1.3,0.3-2.2-0.3-3-1.3c-2.7-3.5-5.4-7-8.6-11c-1.8,4.3,0.3,8.6-1.4,12.2c-0.5,0-1,0-1.6,0
	c0-5.4-0.5-10.8,0.2-16.1c0.4-2.8,2.5-0.7,3.5,0.5c2.8,3.4,5.5,7,8.3,10.5C215.2,86.5,215.6,86.3,215.9,86.2z"/>
<path fill="#002C53" d="M234.1,73.8c5.1,1.4,4.8,6.1,7.9,7.8c2.5-2,2.9-6.1,6.3-7.6c1,2.1-0.3,3-0.9,4c-2.2,3.7-5.1,7-4.3,11.8
	c0.1,0.8,0.1,1.7-1.1,1.9c-1,0.1-1.8-0.4-1.6-1.4C241.5,84.1,236.6,79.8,234.1,73.8z"/>
<path fill="#DEDEDE" d="M144.8,32.7c0.3,0.7,0.7,1.4,1,2.2c-0.3,0.8-0.7,1.6-1.4,3.5C143.9,35.7,143.6,34.2,144.8,32.7z"/>
<path fill="#002C53" d="M78.5,73.9c-4.8,0.1-8.9,4.1-9,8.9c-0.1,5,3.9,9.1,9.1,9.1c5.1,0.1,9.4-4.1,9.3-9
	C87.9,78.1,83.4,73.8,78.5,73.9z M78.5,89.6c-3.6-0.5-6-2.7-6.3-6.5c-0.2-3.7,2.8-6.7,6.6-6.5c3.9,0.2,5.9,2.4,6.2,5.4
	C85,86.4,81.7,90.1,78.5,89.6z"/>
<path fill="#002C53" d="M150,74.7c-8-1.2-8-1.3-8,6.8c0,0.5,0,1,0,1.5c0,0,0,0,0.1,0c0,2.5,0,5,0,7.5c0,1,0.6,1.5,1.6,1.4
	c0.8,0,1.4-0.4,1.3-1.2c-0.8-4.5,2.5-4.1,5.2-4.3c3.6-0.3,5.5-2.4,5.4-5.9C155.4,77,153.6,75.2,150,74.7z M148.4,84
	c-2.5,0-3.8-0.5-3.5-3.3c0.2-1.9-0.6-4.4,2.5-3.7c2.9-0.1,5.2,0.5,5.3,3.5C152.9,83.2,151,83.9,148.4,84z"/>
<path fill="#002C53" d="M180.1,76.4c-1.3-2.9-3-3.2-4.4-0.2c-2.2,4.5-4.1,9-6.2,13.5c-0.3,0.7-0.9,1.6,0.3,2
	c0.8,0.3,1.5-0.2,2.1-0.9c3.8-4.3,8.5-4.2,12,0.3c0.6,0.8,1.4,0.8,2.9,0.3C184.6,86.4,182.4,81.4,180.1,76.4z M175.6,84.7
	c-1.4-2.1,1.3-4,2.6-6.3c0.9,2,1.8,4,2.7,6.1C178.9,85.5,176.5,86,175.6,84.7z"/>
<rect fill="none" width="296" height="93"/>
<path fill="#002C53" d="M294.1,47.8c-0.1,0-0.1,0.1-0.2,0.2c-2.8,3-6.1,5-9.9,6.4c-4.3,1.6-6.6,0.4-7.6-4.1
	c-0.9-4.1-0.1-8.3,0.7-12.3c0.6-2.9,2.7-5.6,6.8-5c2.3,0.3,4.6-0.1,6.9,0.1c3,0.2,4.3-1.1,4.1-4c0.1,0,0.2,0,0.3,0c0,0,0,0,0,0
	c-0.4-1.9-2-2-3.5-2.2c-4.8-0.8-4.8-0.8-2.9-5.3c2-4.4,3-8.8,0.9-13.5c-2.6-5.9-8.1-6.6-12.1-1.6c-2.9,3.7-4.9,7.9-6.1,12.5
	c-1.1,4.2-2.6,7.5-7.8,7c-1.2-0.1-2.1,0.8-3.2,1.2c-6.8,2.5-10.8,8.1-14.8,13.6c-3.7,5.1-8.2,9.1-14,11.7c-1.9,0.8-3.8,1.7-6.6,0
	c5.1-2.6,9.1-5.5,10.9-10.5c1.3-3.6,1.6-7.3-1.5-10.1c-3-2.8-6.7-3.7-10.6-2.2c-3.6,1.3-6.2,3.7-7.9,7.2c-1.2,2.5-2.1,5.3-3,7.9
	c-0.7,2.2-1.8,4.3-4.6,3.2c-2.7-1.1-2.1-3.4-1.3-5.5c0.9-2.5,2.5-4.7,3.3-7.3c0.7-2.2,0.8-4.4-1.2-5.9c-2.3-1.7-4.7-1.5-7-0.1
	c-1.5,0.9-2.3,2.4-3,3.9c-1.9,4.2-3.7,8.5-5.3,12.8c0.1,0.4,0.3,0.7,0.6,1c-0.3,0.9-0.7,1.7-1,2.6c-0.7-2-1.3-3.9,0.1-5.7
	c0.2,0.6,0.1,1.3,0.2,2c0.2-0.8,0.6-1.7,0.9-2.7c0.4-2.1,0.9-4.2,1-6.3c0.3-3,1.2-6.8-2.6-8.1c-3.7-1.3-6.1,1.6-8.1,4.3
	c-1.3,1.7-2,3.8-2.8,5.8c-0.9,2.3-1.3,4.8-2.4,7c0,0.1,0,0.1,0,0.2c0.1,0.4,0.3,0.7,0.7,1.1c-0.2,0.9-0.3,1.9-1.6,2.6
	c-0.2-2.1-0.5-4,0.7-5.7c0.2,0.6,0.1,1.3,0.2,2c0.2-0.8,0.5-1.6,0.8-2.4c0.4-3.3,1.2-6.5,1.2-9.9c0-2.3-0.6-4.4-3.1-5.1
	c-2.4-0.7-4.2,0.5-5.5,2.4c-2.1,3-2.8,6.3-2.8,9.9c0,2.2,0.2,4.4-0.9,6.3c-1.5,2.4-3.3,5.8-6.2,4.4c-2.6-1.2-0.7-4.4,0.2-6.7
	c0.6-1.6,1.4-3,2.2-4.5c1-2,1.5-4,1.6-6.2c0.2-5-3.1-7.1-7.5-4.6c-3.1,1.8-5.9,4.1-8.1,6.5c3.1-5.3,5.8-11.2,8.1-17.2
	c1.5-4.1,2.6-8.2,2.3-12.6c-0.2-2.9-1.2-5.1-4.2-5.9c-1.7,0-3.3,0-5,0c-5.8,2.6-9.2,7.3-11,13.2c-1.1,3.8-1.8,7.7-2.8,11.5
	c-0.3,1.3,0.2,3.3-2.2,3.2c-2.6-0.2-5.6,1.1-7.6-0.7c-1.3-1.1,0.9-2.9,1.6-4.3c1.9-4.1,3.9-8.1,2.6-12.8c-0.7-2.6-1.9-5.2-4.8-5.8
	c-3-0.7-4.9,1.4-6.5,3.6c-2.9,3.9-5,8.3-5.8,13c-0.8,4.8-2.7,6.9-7.7,6.1c-2.8-0.4-4.7,0.6-2.9,3.8c-6.1-1.8-6.8-1.3-8.1,5
	c-0.9,4.5-1.8,9.1-2.9,13.6c-0.6,2.5-1.7,5.9-4.9,5.2c-3.4-0.7-1.9-4.1-1.5-6.3c0.6-4.6,1.7-9.1,2.5-13.7c0.3-1.5,0.9-3.5-1.1-4.4
	c-2-0.9-3.4,0.4-4.7,1.8c-1.6,1.8-1.7,4.3-2.9,6.7c-5.3-5.7-11.1-9.7-18.6-8.5C51.9,32.2,46,47.5,52.9,57.4c3,4.3,7.4,5.6,12.2,3.6
	c4.3-1.8,6.5-5.4,8.1-9.6c1.8-4.8,0.7-9.5-0.6-14.5c7.7,3.6,9,6.1,7.9,13.3c-0.4,2.4-0.6,4.9,0.2,7.4c1.3,4,3.5,5.1,7.6,3.6
	c3-1.1,4.9-3.7,7.6-5.1c3.2,5.6,5.3,6.3,11.4,4c1.7-0.6,3.5-1.3,4.9-2.3c2.3-1.6,3.6-2,5.4,0.9c2,3.3,5.4,4.2,9.1,2.5
	c2-0.9,4-1.6,5.9-2.6c2.3-1.2,4.1-2.8,5.3,1.5c0.9,3.2,3.2,2.3,4.6-0.1c1.3-2.3,2.2-4.8,3.6-7.1c2.8-4.5,5.4-9.2,10.7-13.4
	c-1.3,3.3-2.1,5.2-2.8,7.2c-0.8,2.2-1.2,4.5-1,6.8c0.5,7.2,5,10.1,11.4,7.1c2.6-1.2,5-2.7,7.5-4.1c3.2,7,5.6,7.2,10.1,1.3
	c2.7-3.6,3.5-8,6.3-11.9c0.6,3.6,0.6,7.1,0.6,10.7c0,2-0.1,4.6,1.9,5.2c1.9,0.6,3.5-1.5,4.7-3.1c1.7-2.4,3.2-4.9,4.8-7.6
	c3,5.8,5.7,6.8,11.8,5.4c1.3-0.3,2.6-1.9,4.2,0.4c5,6.8,11.1,6.1,17.7,3.4c3.1-1.3,6.3-5,9.2,0.4c0.3,0.5,1.5,0.6,2.3,0.8
	c8.1,2.2,15.3-1.1,22.3-4.3c2.5-1.2,3.6-1.8,5.2,1.2c1.9,3.6,5.2,4.7,9.3,3.1c4.4-1.7,8.4-3.9,12.4-6.2c0.7-2.4,1.1-4.8-0.3-7.2
	C294.4,47.8,294.3,47.8,294.1,47.8z M277.1,25.2c1-4.2,1.9-8.4,3.8-12.2c0.5-1.1,1.2-2.1,2.6-1.8c1.6,0.3,1.2,1.7,1.4,3
	c-0.7,4.4-3.2,8.1-5.2,12.1c-0.4,0.8-1.3,1.2-2,0.7C277.3,26.6,277,25.7,277.1,25.2z M65.8,53.1c-0.9,1.6-2,3.1-4.2,2.9
	c-2.1-0.2-3.1-1.6-3.8-3.4c-1.6-4.1,0.2-12.3,3.5-15.2c2.7-2.4,4.7-1.8,6.2,1.4c0.7,1.6,0.5,3.2,0.6,4.8
	C68.1,47,67.3,50.1,65.8,53.1z M111.6,52.1c-2.5,1.2-5.1,4.1-7.6,2.4c-2.4-1.7-1-5.2-0.7-7.9c0.7-5.2,1.8-10.4,2.7-15.5
	c0,0,0,0-0.1,0c0,0,0.1-0.1,0.1-0.1c0,0,0,0.1,0,0.1c8,0,7.9,0,7.4,7.7c-0.2,2.8,0.2,5.6,0.4,8.4C114.1,49.4,113.8,51.1,111.6,52.1z
	 M121.2,25.1c1.1-4.1,2-8.3,3.9-12.2c0.5-1,1.2-2.1,2.7-1.7c1.5,0.4,1.1,1.8,1.3,3.2c-0.7,4.1-3.2,7.9-5.2,11.8
	c-0.2,0.4-1.1,0.8-1.6,0.7C121.1,26.9,121,26,121.2,25.1z M137.7,38.7c-0.3,1.5-0.8,3-0.5,4.4c1.2,6.2-2.8,8.6-7.4,10.7
	c-6.1,2.8-9.4,0.8-9.5-5.8c0-3.1,0.1-6.4,0.8-9.4c1.2-5.2,5.1-6.4,9.1-5.6c1.5,0,2.2,0.1,2.8,0C138.1,32,138.4,34.8,137.7,38.7z
	 M145.8,34.9c-1.9,0-1.1-1.2-1-2.2c0.7-9.6,2.5-18.9,9.5-26.4C155.2,17,149.4,25.6,145.8,34.9z M223,46.7c-1.8-0.3-0.9-1.8-1.1-2.7
	c0.4-4.4,3.4-8.2,6.2-8c2.2,0.2,2.7,1.8,2.5,3.5C230.5,42,225,47,223,46.7z M252.9,53.1c-0.1,2-1.2,3.4-3.3,3.8
	c-1.9,0.4-3.6-0.2-4.9-1.7c-1.9-2.1,0.6-3,1.4-4c1.6-2.3,3.6-4.2,5.5-6.2c0.4,0.2,0.9,0.3,1.3,0.5C252.9,47.9,253,50.5,252.9,53.1z
	 M269.7,46c0.4,2.1-0.3,3.5-2.3,4.3c-2.4,1-4.7,2.1-7.4,3.4c0.1-4.3,0.1-8.1-1.2-11.7c-1.5-3.9,3.3-5.2,3.4-8.1
	c0.2-3.7,2.4-2.9,4.5-2.7c2.4,0.2,3.5,1.5,3.1,4C269.2,38.8,269,42.4,269.7,46z"/>
</svg>
