<?xml version="1.0" encoding="utf-8"?>
<!-- Generator: Adobe Illustrator 24.0.1, SVG Export Plug-In . SVG Version: 6.00 Build 0)  -->
<svg version="1.1" id="Слой_1" xmlns="http://www.w3.org/2000/svg" xmlns:xlink="http://www.w3.org/1999/xlink" x="0px" y="0px"
	 viewBox="0 0 100 100" enable-background="new 0 0 100 100" xml:space="preserve">
<ellipse fill="#F3F3FE" cx="49.9" cy="50.1" rx="45" ry="44.5"/>
<g>
	<g>
		<g>
			<path fill="#2764FE" d="M74.8,38.2c1.3-7-3.6-12.5-3.9-12.8L69.7,24l-1.3,1.4c-0.2,0.3-5.1,5.8-3.9,12.8h-1.2l1.3,14v21H68V76
				h3.3v-2.7h3.3v-21l1.3-14H74.8z M68.7,31.2c0.3-0.7,0.6-1.3,1-1.9c1.2,1.9,2.6,5.2,1.7,8.9h-3.4C67.4,36,67.7,33.6,68.7,31.2z
				 M71.3,70H68V53.8h3.3V70z M71.5,50.6h-3.6L67,41.4h5.3L71.5,50.6z"/>
		</g>
	</g>
	<g>
		<g>
			<path fill="#2764FE" d="M25.8,25.4v49.5h34.4V25.4H25.8z M56.9,71.6H29.1v-43h27.8L56.9,71.6L56.9,71.6z"/>
		</g>
	</g>
	<g>
		<g>
			<path fill="#2764FE" d="M32.4,31.9v9.7h21.1v-9.7H32.4z M50.2,38.3H35.8v-3.2h14.4V38.3z"/>
		</g>
	</g>
</g>
</svg>
