<?xml version="1.0" encoding="utf-8"?>
<!-- Generator: Adobe Illustrator 24.0.1, SVG Export Plug-In . SVG Version: 6.00 Build 0)  -->
<svg version="1.1" id="Слой_1" xmlns="http://www.w3.org/2000/svg" xmlns:xlink="http://www.w3.org/1999/xlink" x="0px" y="0px"
	 viewBox="0 0 100 100" enable-background="new 0 0 100 100" xml:space="preserve">
<ellipse fill="#FEEBEE" cx="50" cy="49.5" rx="45" ry="44.5"/>
<path fill="#F45868" d="M27.4,65.3c0.4-0.1,0.7-0.2,1-0.3c1.8-0.5,2.6-4.6,5-1.8c1.6,1.8-1.2,2.7-2.2,3.6c-2.1,1.9-4.5,2.5-6.3-0.3
	c-3.1-4.9-4.4-10.5-3.7-16.2c1.3-12.1,7.6-20.9,19.1-25.1c11.8-4.3,22.3-1.4,31,7.5c7.9,8.2,10,20.8,5.5,31c-2.5,5.6-5.7,6-9.4,1.3
	c-0.6-0.8-1.5-1.4-0.4-2.4c0.9-0.9,1.8-0.8,2.6,0.1c3.9,4.5,4.6,0.6,5.5-2.1c0.6-1.7,0.8-3.5,1.2-5.3c0.5-2.6-0.1-4.2-3.3-4
	c-1.1,0.1-2.6,0.2-2.5-1.6c0.1-1.2,1.2-1.6,2.2-1.5c3.5,0.4,3.4-1.4,2.4-3.8c-0.9-2-1.8-3.9-2.7-5.8c-0.9-1.8-1.8-2.8-3.6-0.8
	c-0.9,1-1.8,2.9-3.5,1c-1.5-1.6,0.2-2.4,1.1-3.1c2-1.7,1.6-2.8-0.3-4.2c-2.7-2-5.7-3.5-8.9-4.3c-3.2-0.8-6.9-2.4-6,3.6
	c0.1,1-0.2,2.1-1.5,2.1c-1.3,0-1.7-1-1.6-2c0.8-5.4-2.3-4.6-5.6-3.5c-2.5,0.9-4.9,2-7.1,3.5c-2.5,1.5-3.6,2.9-0.6,5
	c1,0.7,1.8,1.6,0.4,2.8c-1.1,0.9-1.9,0.3-2.5-0.5c-2.7-3.6-3.9-1.1-5.1,1.2c-0.8,1.6-1.6,3.3-2.2,5c-0.8,2.2-1.4,4.3,2.3,3.9
	c1.1-0.1,2.1,0.3,2.2,1.5c0.1,1.3-1.1,1.6-2.1,1.5c-4-0.4-3.9,2.1-3.4,4.8C24.7,59.3,25.4,62.5,27.4,65.3z"/>
<path fill="#F56C7A" d="M50,73.1c3.3,0,6.6,0,9.9,0c1.3,0,2.9-0.2,3,1.7c0.1,2-1.4,2-2.7,2c-6.8,0-13.6,0-20.4,0c-1.3,0-2.9,0-2.7-2
	c0.1-1.9,1.7-1.7,3-1.7C43.4,73.1,46.7,73.1,50,73.1z"/>
<path fill="#F5606F" d="M45.1,48c2.3,1.5,4.7,2.9,7,4.5c1.5,1,2.1,2.2,0.6,3.6c-1.2,1.1-2.4,1-3.4-0.3c-1.7-2.3-3.4-4.7-5-7
	C44.5,48.5,44.8,48.3,45.1,48z"/>
</svg>
