<?xml version="1.0" encoding="utf-8"?>
<!-- Generator: Adobe Illustrator 24.0.1, SVG Export Plug-In . SVG Version: 6.00 Build 0)  -->
<svg version="1.1" id="Слой_1" xmlns="http://www.w3.org/2000/svg" xmlns:xlink="http://www.w3.org/1999/xlink" x="0px" y="0px"
	 viewBox="0 0 100 100" enable-background="new 0 0 100 100" xml:space="preserve">
<ellipse fill="#E4FFEE" cx="49.9" cy="50.1" rx="45" ry="44.5"/>
<g>
	<path fill="#40975F" d="M74,64.3c-1.7-0.6-3.5-1.6-5.5-2.7c-3.8-2.1-7.7-4.2-11.4-4.4c-2.4-0.2-4.3,1.7-4.4,4h-4.5v-4.5
		c0-0.7-0.5-1.2-1.2-1.2h-6.1c-0.7,0-1.2,0.6-1.2,1.2v3h-2.8c-0.5,0-0.9-0.4-0.9-0.9v0c0-1.8-1.5-3.3-3.3-3.3H20
		c-0.7,0-1.2,0.6-1.2,1.2v17.7c0,0.7,0.5,1.2,1.2,1.2h12.5c1.8,0,3.3-1.5,3.3-3.3v0c0-0.5,0.4-0.9,0.9-0.9h2.8v3
		c0,0.7,0.5,1.2,1.2,1.2h6.1c0.7,0,1.2-0.5,1.2-1.2v-4.5h4.5c0.1,2.2,1.9,4,4.2,4c0.1,0,0.2,0,0.3,0c3.7-0.2,7.6-2.4,11.4-4.4
		c2-1.1,3.9-2.1,5.5-2.7c0.5-0.2,0.8-0.6,0.8-1.1C74.8,65,74.4,64.5,74,64.3z M39.5,68.9h-2.8c-1.8,0-3.3,1.5-3.3,3.3v0
		c0,0.5-0.4,0.9-0.9,0.9H21.2V57.9h11.3c0.5,0,0.9,0.4,0.9,0.9v0c0,1.8,1.5,3.3,3.3,3.3h2.8V68.9z M45.7,73.1H42V57.9h3.7V73.1z
		 M61.3,66.7h6.8c-0.3,0.2-0.6,0.3-0.9,0.5c-3.6,1.9-7.2,3.9-10.4,4.1c-1,0.1-1.8-0.7-1.8-1.8v-1c0-0.7-0.5-1.2-1.2-1.2h-5.7v-3.7
		h5.7c0.7,0,1.2-0.5,1.2-1.2v-1c0-1,0.8-1.8,1.8-1.8c3.2,0.2,6.9,2.2,10.4,4.1c0.3,0.2,0.6,0.3,0.9,0.5h-6.8c-0.7,0-1.2,0.6-1.2,1.2
		C60.1,66.2,60.6,66.7,61.3,66.7z"/>
	<path fill="#40975F" d="M85.5,40.6c-0.3-0.6-1.1-0.8-1.7-0.5c-2.2,1.1-4.5,1.7-7,1.7c-3.8,0-7.3-1.4-10-3.7l-1.5-1.5
		c-2.3-2.7-3.7-6.2-3.7-10c0-3.4,1.1-6.6,3.1-9.3c0.4-0.5,0.3-1.3-0.2-1.7c-0.5-0.4-1.3-0.3-1.7,0.2c-2.4,3.1-3.7,6.8-3.7,10.8
		c0,1.5,0.2,2.9,0.5,4.3l-6.5-6.5c0,0,0,0,0,0l-5.4-5.4c-0.5-0.5-1.3-0.5-1.7,0l-5.4,5.4c-0.5,0.5-0.5,1.3,0,1.7l5.4,5.4
		c0.2,0.2,0.5,0.4,0.9,0.4c0.3,0,0.6-0.1,0.9-0.4l4.6-4.6l8,8l-4.6,4.6c-0.5,0.5-0.5,1.3,0,1.7l5.4,5.4c0.2,0.2,0.6,0.4,0.9,0.4
		c0.3,0,0.6-0.1,0.9-0.4l4.6-4.6l8,8L71,54.7c-0.2,0.2-0.4,0.5-0.4,0.9c0,0.3,0.1,0.6,0.4,0.9l5.4,5.4c0.2,0.2,0.6,0.4,0.9,0.4
		s0.6-0.1,0.9-0.4l5.4-5.4c0.5-0.5,0.5-1.3,0-1.7l-5.4-5.4c0,0,0,0,0,0l-5.6-5.6c1.4,0.3,2.8,0.5,4.3,0.5c2.8,0,5.7-0.7,8.1-2
		C85.6,41.9,85.8,41.2,85.5,40.6z M46.9,28.9l-3.7-3.7l3.7-3.7l3.7,3.7L46.9,28.9z M62.1,44.1l-3.7-3.7l3.7-3.7l3.7,3.7L62.1,44.1z
		 M81,55.6l-3.7,3.7l-3.7-3.7l3.7-3.7L81,55.6z"/>
</g>
</svg>
