<?xml version="1.0" standalone="no"?>
<!DOCTYPE svg PUBLIC "-//W3C//DTD SVG 20010904//EN"
 "http://www.w3.org/TR/2001/REC-SVG-20010904/DTD/svg10.dtd">
<svg version="1.0" xmlns="http://www.w3.org/2000/svg"
 width="700.000000pt" height="700.000000pt" viewBox="0 0 700.000000 700.000000"
 preserveAspectRatio="xMidYMid meet">
<metadata>
Created by potrace 1.11, written by Peter Selinger 2001-2013
</metadata>
<g transform="translate(0.000000,700.000000) scale(0.100000,-0.100000)"
fill="#000000" stroke="none">
<path d="M1872 5633 c-5 -16 -267 -728 -581 -1585 -314 -856 -571 -1559 -571
-1562 0 -4 183 -5 407 -4 l407 3 90 293 90 292 526 0 526 0 94 -295 93 -295
414 0 413 0 -23 63 c-13 34 -277 749 -588 1590 l-564 1527 -361 0 -362 0 -10
-27z m537 -1410 c90 -291 166 -536 169 -545 4 -17 -17 -18 -337 -18 -187 0
-341 3 -341 8 -1 15 334 1082 340 1082 3 0 79 -237 169 -527z"/>
<path d="M3950 3280 l0 -1590 1050 0 1050 0 0 295 0 295 -670 0 -670 0 0 1295
0 1295 -380 0 -380 0 0 -1590z"/>
</g>
</svg>
