<?xml version="1.0" encoding="utf-8"?>
<!-- Generator: Adobe Illustrator 24.0.1, SVG Export Plug-In . SVG Version: 6.00 Build 0)  -->
<svg version="1.1" id="Слой_1" xmlns="http://www.w3.org/2000/svg" xmlns:xlink="http://www.w3.org/1999/xlink" x="0px" y="0px"
	 viewBox="0 0 664 774" enable-background="new 0 0 664 774" xml:space="preserve">
<g>
	<path fill="#F3F6FB" d="M704.9,323.6c-0.5-31.6-3.9-62.8-12-93.4c-7.6-29-20.8-55.1-39.7-78.5c-20.5-25.3-45.4-45.5-71.6-64.3
		c-15.6-11.1-31.9-21-48.5-30.4c-5.4-3-10.5-1.5-15.5-0.7c-20.5,3.4-40.5,8.3-60.4,14.5c-24,7.5-47.4,16.5-70,27.3
		c-19.2,9.2-36.7,21.2-53,35c-13.6,11.5-26.7,23.5-39,36.3c-15.8,16.4-31.3,33.1-46.8,49.7c-11.1,11.9-22.5,23.6-32.9,36.1
		c-12.5,15.1-23.9,31-34.1,47.8c-19.4,31.9-34.2,65.8-45,101.4c-6.4,20.9-11,42.3-14.6,63.9c-5.3,32.7-6.8,65.7-5.8,98.7
		c0.5,16.3,2,32.7,4.6,48.9c2.2,13.9,4.1,27.8,7.3,41.5c5,21.8,10.9,43.4,18.9,64.4c2,5.1,4.2,10.1,5.9,15.3c1,2.9,2.7,4.1,5.5,5.1
		c20.5,7.3,41.4,13.1,62.6,17.7c18.1,3.9,36.3,7.1,54.8,9.1c6.4,0.7,12.8,2,19.2,1.9c0-2.1-1.6-3.2-3-4.4
		c-26.6-24.7-45.8-54.7-60.8-87.4c-12.9-28.3-22-57.9-27.2-88.6c-2.5-14.7-4-29.5-5.2-44.3c-1-12-0.9-23.9-0.6-35.9
		c0.3-14.2,2.2-28.4,4.4-42.4c4.2-26.2,11.8-51.4,21.4-76c7.7-19.6,16.6-38.7,27.4-56.9c7.8-13.3,16-26.4,25.2-38.8
		c7.6-10.3,15.9-19.9,24.3-29.6c8.6-9.8,17.8-18.8,27.5-27.4c16.6-14.8,34.4-28.1,53.5-39.6c19-11.4,38.8-21,59.7-28.3
		c17.7-6.3,35.8-10.7,54.3-14.2c25.3-4.8,51-4.9,76.4-3.7c29.4,1.4,58,8.1,86,17c3.7,1.2,6.1,2.9,5.7,7.6
		c-0.5,7.8-0.2,15.6-0.1,23.5c0,3.3-1.2,4.1-4.3,2.9c-18.9-7.5-38.6-12.2-58.4-15.9c-10.4-1.9-20.9-2.9-31.5-3.6
		c-9.5-0.6-18.9-1.1-28.4-0.7c-26.8,1-53,5.2-78.5,13.4c-18.1,5.8-35.7,12.8-52.3,21.9c-16,8.8-31.3,18.8-45.6,30.2
		c-21.5,17.2-40.6,36.6-57.6,58.3c-14.3,18.3-26.7,37.6-37.2,58.2c-13.9,27.2-24.9,55.7-32.3,85.4c-3.4,13.8-5.8,27.8-6.9,42.1
		c-0.9,11.7-2.4,23.5-1.8,35.2c0.9,16,2,32,4.5,47.9c2.9,18.7,7.1,37.1,13,55.1c7.3,22.5,16.9,44,29.2,64.3
		c9.2,15.3,19.5,29.7,32.3,42.2c13.5,13.2,28.9,23.8,46.2,31.7c1.8,0.8,4.4,1.1,4.8,3.8c11.3,0,22.7,0,34,0c0.2-1.7,1.4-2,2.9-2
		c10.9-0.2,21.8-1.6,32.6-2.9c16.3-1.9,32.4-4.6,48.4-8.1c25-5.4,49.6-12.4,73.4-21.9c1.6-0.7,4.2-0.8,4-3c-0.2-2.1-2.7-1.8-4.5-2.1
		c-21.8-3.7-43.1-9.3-63.5-18.2c-16.4-7.1-31.9-15.6-46.4-26.1c-17-12.3-32.4-26.3-45.7-42.6c-9.9-12.1-18.7-25-26.1-38.7
		c-10.8-20-18.2-41.3-23.1-63.4c-3.2-14.4-5.1-28.9-6.2-43.7c-0.8-10.2-0.8-20.3-0.7-30.4c0.4-26.3,4.4-52.1,11.7-77.4
		c4.4-15.4,10-30.3,17.1-44.6c8.5-17.1,18.9-33.1,31.5-47.7c17.7-20.6,38.5-37,63-48.7c17.6-8.4,36.1-13.9,55.5-16.5
		c37.6-5,72.8,2.9,106.6,18.9c13.3,6.3,25.8,13.8,37.6,22.5c2.1,1.6,3,3.1,3,5.7c-0.1,10.5,0,21-0.1,31.5c0,1.4,0.7,3.2-1,4.1
		c-1.7,0.8-2.6-0.9-3.7-1.8c-24.4-21.9-51.8-38.4-83.7-46.3c-39.7-9.8-77.4-3.6-112.6,17c-29.2,17.2-50.1,42-65.6,71.8
		c-13.1,25.4-21,52.3-25.1,80.4c-1.4,9.8-1.9,19.8-2.4,29.7c-1.3,26.1,1.7,51.5,8.1,76.7c8,31.4,22.3,59.4,43.6,84
		c25.2,29.2,56.2,49.5,92.3,62.1c17.4,6,35.2,10.4,53.7,11.8c10.7,0.8,21.5,1.3,32.2,2.1c10.4,0.7,18.5-2.8,26.4-9
		c19.4-15.4,36.7-32.6,49.7-53.8c12.3-20.1,20.3-41.7,23-65.2c1.2-10.7,1.7-21.5,2-32.2c0.5-22.6,1.4-45.2,2.1-67.7
		c0.7-21.7,1.9-43.5,1.9-65.2c0-1.8-1.1-4.2,2-4.9c0-26.7,0-53.3,0-80C704.2,327.5,705,325.3,704.9,323.6z M663.9,447.2
		c0,0.8,0.2,1.7-1.2,2.4c-2.1-3.2-4.1-6.5-6.4-9.6c-12.3-16.8-29.4-25.1-49.7-28c-14.6-2.1-28.8-0.6-42.6,4.3
		c-29.8,10.6-47.2,32.1-53,63c-6.1,32.4,5.9,57.8,30.3,78.7c15.6,13.3,33.3,22.6,52.6,28.6c12.7,4,25.9,6.5,39.4,7.6
		c9.6,0.8,18.8,0,28.2-1c2.3-0.2,2.5,1,2.5,2.7c0,8.7,0,17.3,0,26c0,2.5-1.4,2.8-3.4,3.1c-12.9,2-25.9,1.3-38.7-0.2
		c-23.7-2.9-46.5-9.5-67.8-20.4c-13.3-6.8-25.5-15.3-36.7-25.4c-20.1-18.1-33-40.2-37.9-66.6c-3.9-21.2-0.5-41.8,7.3-61.9
		c5.4-14,13.2-26.6,23.7-37.1c13.3-13.3,29.2-22.7,47.3-28.5c16.4-5.2,33.1-5.9,49.8-4.7c19.3,1.4,37.1,8.2,52.9,19.8
		c2,1.4,3.6,3.2,3.6,6.2C663.8,419.9,663.9,433.5,663.9,447.2z"/>
	<path fill="#F3F6FB" d="M105.7,149.9c15.1,33,25.6,67.4,28.1,103.6c1.6,23,1.1,46.1-4.2,68.9c-1,4.2-2.7,8.5-1.8,14
		c1-1.3,1.5-1.8,1.7-2.4c5.8-13.5,12.8-26.3,20.1-39c9.6-16.7,20.5-32.6,32-48c11-14.6,23.5-27.9,36.1-41
		c14.8-15.5,28.9-31.6,43.9-46.9c17.8-18.1,35.2-36.7,55.2-52.6c14.6-11.6,29.5-22.7,46-31.3c31.4-16.5,64.5-29,98.6-38.8
		c2.8-0.8,7.5-0.5,7.5-3.3c0.1-2.8-4.7-2.8-7.4-3.6c-36-10.3-72.5-18.2-109.8-22.6c-18.9-2.2-37.8-4.4-56.8-4.9
		c-1.6,0-3.5,0.5-3.9-2c-19.7,0-39.3,0-59,0c-0.3,2.1-1.9,2-3.4,2c-8.8-0.2-17.5,1.2-26.2,1.9c-15.2,1.3-30.2,3.8-45,7.3
		C137.3,16,117.6,22.1,100.3,34c-9.5,6.6-17.9,14.5-22.2,25.6c-5.6,14.4-3.7,28.4,2.8,42C88.8,117.9,98.1,133.4,105.7,149.9z"/>
	<path fill="#F3F6FB" d="M101.1,679.7C95,655.1,90.5,630.2,87.9,605c-2.3-22.3-3.7-44.6-3.9-67c0-3.5,1.2-6.9,1.1-10.4
		c-0.4-17.8,2-35.4,4.2-52.9c3.2-24.8,8.4-49.3,15.4-73.3c0.5-1.8,1.9-3.8,0.7-6.1c-2.1,1.1-2.4,3.1-3.2,4.6
		c-5,9-9.6,18.2-14.8,27.1c-17.9,30.9-39,59.8-57.3,90.5c-12.6,21.2-24.7,42.6-28,67.6c-0.2,1.2-0.9,1.7-2,1.9c0,7.7,0,15.3,0,23
		c2.2,0.2,1.8,1.9,2.1,3.4c1.9,9.5,5,18.6,9.8,27c9,15.6,21.4,28.2,34.8,40c18.8,16.4,39.8,29.2,61.7,40.8c1.2,0.6,2.6,2.3,4,1
		c1.3-1.2,0.1-2.8-0.3-4.2C107.7,705.4,104.3,692.6,101.1,679.7z"/>
</g>
</svg>
