<?xml version="1.0" encoding="utf-8"?>
<!-- Generator: Adobe Illustrator 24.0.1, SVG Export Plug-In . SVG Version: 6.00 Build 0)  -->
<svg version="1.1" id="Objects" xmlns="http://www.w3.org/2000/svg" xmlns:xlink="http://www.w3.org/1999/xlink" x="0px" y="0px"
	 viewBox="0 0 202.5 409.5" enable-background="new 0 0 202.5 409.5" xml:space="preserve">
<linearGradient id="SVGID_1_" gradientUnits="userSpaceOnUse" x1="12.7991" y1="-14.7622" x2="220.6413" y2="501.1319">
	<stop  offset="8.218610e-02" style="stop-color:#FFFFFF"/>
	<stop  offset="1" style="stop-color:#DBE1E2"/>
</linearGradient>
<path fill="url(#SVGID_1_)" d="M169.4,409.5H33.1C14.8,409.5,0,394.7,0,376.4V33.1C0,14.8,14.8,0,33.1,0h136.2
	c18.3,0,33.1,14.8,33.1,33.1v343.3C202.5,394.7,187.6,409.5,169.4,409.5z"/>
<path fill="#251A51" d="M164.9,399.5h-127c-14.4,0-26.1-11.7-26.1-26.1V36.1C11.7,21.7,23.4,10,37.8,10h127
	c14.4,0,26.1,11.7,26.1,26.1v337.3C191,387.8,179.3,399.5,164.9,399.5z"/>
<path fill="#E0E6E9" d="M129.8,385.9H69c-0.6,0-1-0.5-1-1v-0.4c0-0.6,0.5-1,1-1h60.8c0.6,0,1,0.5,1,1v0.4
	C130.9,385.5,130.4,385.9,129.8,385.9z"/>
<g>
	<path fill="#FFFFFF" d="M38.1,298.1h-1.2v2.3h-0.4v-4.9h0.4v2.3h1.2l1.8-2.3h0.4l-1.9,2.4l2,2.5h-0.4L38.1,298.1z"/>
	<path fill="#FFFFFF" d="M41.9,300.2c-0.3-0.2-0.5-0.4-0.7-0.7c-0.2-0.3-0.2-0.6-0.2-1c0-0.4,0.1-0.7,0.2-1c0.2-0.3,0.4-0.5,0.7-0.7
		c0.3-0.2,0.6-0.2,1-0.2c0.3,0,0.6,0.1,0.8,0.2c0.2,0.1,0.4,0.3,0.6,0.5l-0.3,0.2c-0.1-0.2-0.3-0.3-0.5-0.4
		c-0.2-0.1-0.4-0.1-0.6-0.1c-0.3,0-0.5,0.1-0.8,0.2c-0.2,0.1-0.4,0.3-0.5,0.5c-0.1,0.2-0.2,0.5-0.2,0.8c0,0.3,0.1,0.6,0.2,0.8
		c0.1,0.2,0.3,0.4,0.5,0.5c0.2,0.1,0.5,0.2,0.8,0.2c0.2,0,0.4,0,0.6-0.1c0.2-0.1,0.4-0.2,0.5-0.4l0.3,0.2c-0.1,0.2-0.3,0.4-0.6,0.5
		c-0.2,0.1-0.5,0.2-0.8,0.2C42.5,300.5,42.2,300.4,41.9,300.2z"/>
	<path fill="#FFFFFF" d="M48,297.1h-1.4v3.4h-0.4v-3.4h-1.4v-0.3H48V297.1z"/>
	<path fill="#FFFFFF" d="M51.4,297.1c0.2,0.2,0.4,0.6,0.4,1v2.3h-0.3v-0.7c-0.1,0.2-0.3,0.4-0.5,0.5c-0.2,0.1-0.5,0.2-0.8,0.2
		c-0.4,0-0.7-0.1-1-0.3c-0.2-0.2-0.4-0.4-0.4-0.8c0-0.3,0.1-0.6,0.3-0.7s0.6-0.3,1-0.3h1.3v-0.3c0-0.3-0.1-0.6-0.3-0.8
		c-0.2-0.2-0.5-0.3-0.8-0.3c-0.2,0-0.5,0-0.7,0.1c-0.2,0.1-0.4,0.2-0.6,0.3l-0.2-0.3c0.2-0.2,0.4-0.3,0.7-0.4
		c0.3-0.1,0.5-0.1,0.8-0.1C50.8,296.8,51.2,296.9,51.4,297.1z M50.9,300c0.2-0.1,0.4-0.3,0.5-0.6v-0.7h-1.2c-0.4,0-0.6,0.1-0.8,0.2
		s-0.2,0.3-0.2,0.5c0,0.2,0.1,0.4,0.3,0.6c0.2,0.1,0.4,0.2,0.8,0.2C50.5,300.2,50.7,300.1,50.9,300z"/>
	<path fill="#FFFFFF" d="M56,297.1h-1.4v3.4h-0.4v-3.4h-1.4v-0.3H56V297.1z"/>
	<path fill="#FFFFFF" d="M57.1,296.8h0.4v3.1l2.6-3.1h0.3v3.7H60v-3.1l-2.6,3.1h-0.3V296.8z"/>
	<path fill="#FFFFFF" d="M62.4,300c0.1,0.1,0.1,0.1,0.1,0.2c0,0,0,0.1,0,0.1c0,0.1,0,0.1,0,0.2l-0.3,1h-0.3l0.2-1
		c-0.1,0-0.1-0.1-0.2-0.1s-0.1-0.1-0.1-0.2c0-0.1,0-0.2,0.1-0.2c0.1-0.1,0.1-0.1,0.2-0.1C62.2,299.9,62.3,299.9,62.4,300z"/>
	<path fill="#FFFFFF" d="M68.4,297.1c0.2,0.2,0.4,0.6,0.4,1v2.3h-0.3v-0.7c-0.1,0.2-0.3,0.4-0.5,0.5c-0.2,0.1-0.5,0.2-0.8,0.2
		c-0.4,0-0.7-0.1-1-0.3c-0.2-0.2-0.4-0.4-0.4-0.8c0-0.3,0.1-0.6,0.3-0.7s0.6-0.3,1-0.3h1.3v-0.3c0-0.3-0.1-0.6-0.3-0.8
		c-0.2-0.2-0.5-0.3-0.8-0.3c-0.2,0-0.5,0-0.7,0.1c-0.2,0.1-0.4,0.2-0.6,0.3l-0.2-0.3c0.2-0.2,0.4-0.3,0.7-0.4
		c0.3-0.1,0.5-0.1,0.8-0.1C67.8,296.8,68.1,296.9,68.4,297.1z M67.9,300c0.2-0.1,0.4-0.3,0.5-0.6v-0.7h-1.2c-0.4,0-0.6,0.1-0.8,0.2
		s-0.2,0.3-0.2,0.5c0,0.2,0.1,0.4,0.3,0.6c0.2,0.1,0.4,0.2,0.8,0.2C67.4,300.2,67.7,300.1,67.9,300z"/>
	<path fill="#FFFFFF" d="M71.8,298.7h-0.9v1.7h-0.4v-3.7h0.4v1.7h0.9l1.4-1.7h0.4l-1.5,1.8l1.6,1.9h-0.4L71.8,298.7z"/>
	<path fill="#FFFFFF" d="M77.2,297.1h-1.4v3.4h-0.4v-3.4H74v-0.3h3.2V297.1z"/>
	<path fill="#FFFFFF" d="M78.3,296.8h0.4v3.1l2.6-3.1h0.3v3.7h-0.4v-3.1l-2.6,3.1h-0.3V296.8z"/>
	<path fill="#FFFFFF" d="M86.4,299.5c0,0.3-0.1,0.6-0.3,0.7c-0.2,0.2-0.6,0.3-1,0.3h-1.6v-3.7H85c0.4,0,0.7,0.1,1,0.2
		c0.2,0.2,0.3,0.4,0.3,0.7c0,0.2-0.1,0.4-0.2,0.5c-0.1,0.1-0.3,0.2-0.5,0.3C86.1,298.7,86.4,299,86.4,299.5z M83.8,298.5H85
		c0.3,0,0.6-0.1,0.7-0.2c0.2-0.1,0.3-0.3,0.3-0.5c0-0.2-0.1-0.4-0.2-0.5c-0.2-0.1-0.4-0.2-0.7-0.2h-1.2V298.5z M86.1,299.4
		c0-0.2-0.1-0.4-0.2-0.5c-0.2-0.1-0.4-0.2-0.8-0.2h-1.3v1.4H85C85.7,300.2,86.1,299.9,86.1,299.4z"/>
	<path fill="#FFFFFF" d="M88,296.8h0.3v1.7h2.5v-1.7h0.3v3.7h-0.3v-1.7h-2.5v1.7H88V296.8z"/>
	<path fill="#FFFFFF" d="M93.6,300.2c-0.3-0.2-0.5-0.4-0.7-0.7s-0.2-0.6-0.2-1c0-0.4,0.1-0.7,0.2-1s0.4-0.5,0.7-0.7s0.6-0.2,0.9-0.2
		c0.3,0,0.7,0.1,0.9,0.2c0.3,0.2,0.5,0.4,0.7,0.7s0.2,0.6,0.2,1c0,0.4-0.1,0.7-0.2,1s-0.4,0.5-0.7,0.7c-0.3,0.2-0.6,0.2-0.9,0.2
		C94.2,300.5,93.9,300.4,93.6,300.2z M95.3,300c0.2-0.1,0.4-0.3,0.5-0.5c0.1-0.2,0.2-0.5,0.2-0.8s-0.1-0.6-0.2-0.8
		c-0.1-0.2-0.3-0.4-0.5-0.5c-0.2-0.1-0.5-0.2-0.8-0.2c-0.3,0-0.5,0.1-0.8,0.2c-0.2,0.1-0.4,0.3-0.5,0.5c-0.1,0.2-0.2,0.5-0.2,0.8
		s0.1,0.6,0.2,0.8c0.1,0.2,0.3,0.4,0.5,0.5c0.2,0.1,0.5,0.2,0.8,0.2C94.8,300.2,95,300.1,95.3,300z"/>
	<path fill="#FFFFFF" d="M102.8,297c0.3,0.2,0.5,0.4,0.6,0.7c0.2,0.3,0.2,0.6,0.2,1c0,0.4-0.1,0.7-0.2,1c-0.2,0.3-0.4,0.5-0.6,0.7
		c-0.3,0.2-0.6,0.2-0.9,0.2c-0.3,0-0.6-0.1-0.9-0.2s-0.5-0.4-0.6-0.6v2.2H100v-5h0.3v0.9c0.1-0.3,0.3-0.5,0.6-0.7
		c0.3-0.2,0.6-0.2,0.9-0.2C102.2,296.8,102.5,296.8,102.8,297z M102.6,300c0.2-0.1,0.4-0.3,0.5-0.5s0.2-0.5,0.2-0.8
		s-0.1-0.6-0.2-0.8s-0.3-0.4-0.5-0.5c-0.2-0.1-0.5-0.2-0.8-0.2s-0.5,0.1-0.8,0.2c-0.2,0.1-0.4,0.3-0.5,0.5c-0.1,0.2-0.2,0.5-0.2,0.8
		s0.1,0.6,0.2,0.8c0.1,0.2,0.3,0.4,0.5,0.5c0.2,0.1,0.5,0.2,0.8,0.2S102.3,300.1,102.6,300z"/>
	<path fill="#FFFFFF" d="M107.4,297.1c0.2,0.2,0.4,0.6,0.4,1v2.3h-0.3v-0.7c-0.1,0.2-0.3,0.4-0.5,0.5c-0.2,0.1-0.5,0.2-0.8,0.2
		c-0.4,0-0.7-0.1-1-0.3c-0.2-0.2-0.4-0.4-0.4-0.8c0-0.3,0.1-0.6,0.3-0.7c0.2-0.2,0.6-0.3,1-0.3h1.3v-0.3c0-0.3-0.1-0.6-0.3-0.8
		c-0.2-0.2-0.5-0.3-0.8-0.3c-0.2,0-0.5,0-0.7,0.1c-0.2,0.1-0.4,0.2-0.6,0.3l-0.2-0.3c0.2-0.2,0.4-0.3,0.7-0.4
		c0.3-0.1,0.5-0.1,0.8-0.1C106.8,296.8,107.1,296.9,107.4,297.1z M106.9,300c0.2-0.1,0.4-0.3,0.5-0.6v-0.7h-1.2
		c-0.4,0-0.6,0.1-0.8,0.2s-0.2,0.3-0.2,0.5c0,0.2,0.1,0.4,0.3,0.6c0.2,0.1,0.4,0.2,0.8,0.2C106.4,300.2,106.7,300.1,106.9,300z"/>
	<path fill="#FFFFFF" d="M111.7,298.8c0.1,0.2,0.2,0.3,0.2,0.6c0,0.2-0.1,0.4-0.2,0.6s-0.3,0.3-0.6,0.4s-0.5,0.1-0.8,0.1
		c-0.3,0-0.5,0-0.8-0.1s-0.5-0.2-0.7-0.4l0.1-0.3c0.2,0.1,0.4,0.2,0.6,0.3c0.2,0.1,0.5,0.1,0.7,0.1c0.3,0,0.6-0.1,0.9-0.2
		s0.4-0.3,0.4-0.6c0-0.2-0.1-0.4-0.3-0.5c-0.2-0.1-0.5-0.2-0.8-0.2h-0.6v-0.3h0.6c0.3,0,0.5-0.1,0.7-0.2c0.2-0.1,0.3-0.3,0.3-0.5
		c0-0.2-0.1-0.4-0.3-0.5s-0.5-0.2-0.8-0.2c-0.4,0-0.8,0.1-1.2,0.3l-0.1-0.3c0.4-0.2,0.8-0.3,1.3-0.3c0.4,0,0.7,0.1,1,0.3
		s0.4,0.4,0.4,0.7c0,0.2-0.1,0.4-0.2,0.5c-0.1,0.1-0.3,0.3-0.5,0.3C111.3,298.6,111.5,298.7,111.7,298.8z"/>
	<path fill="#FFFFFF" d="M116.4,299.5c0,0.3-0.1,0.6-0.3,0.7s-0.6,0.3-1,0.3h-1.6v-3.7h1.5c0.4,0,0.7,0.1,1,0.2
		c0.2,0.2,0.3,0.4,0.3,0.7c0,0.2-0.1,0.4-0.2,0.5s-0.3,0.2-0.5,0.3C116.2,298.7,116.4,299,116.4,299.5z M113.8,298.5h1.2
		c0.3,0,0.6-0.1,0.7-0.2c0.2-0.1,0.3-0.3,0.3-0.5c0-0.2-0.1-0.4-0.2-0.5c-0.2-0.1-0.4-0.2-0.7-0.2h-1.2V298.5z M116.1,299.4
		c0-0.2-0.1-0.4-0.2-0.5s-0.4-0.2-0.8-0.2h-1.3v1.4h1.2C115.7,300.2,116.1,299.9,116.1,299.4z"/>
	<path fill="#FFFFFF" d="M118,296.8h0.4v3.1l2.6-3.1h0.3v3.7h-0.3v-3.1l-2.6,3.1H118V296.8z"/>
	<path fill="#FFFFFF" d="M126.1,299.5c0,0.3-0.1,0.6-0.3,0.7s-0.6,0.3-1,0.3h-1.6v-3.7h1.5c0.4,0,0.7,0.1,1,0.2
		c0.2,0.2,0.3,0.4,0.3,0.7c0,0.2-0.1,0.4-0.2,0.5s-0.3,0.2-0.5,0.3C125.9,298.7,126.1,299,126.1,299.5z M123.5,298.5h1.2
		c0.3,0,0.6-0.1,0.7-0.2c0.2-0.1,0.3-0.3,0.3-0.5c0-0.2-0.1-0.4-0.2-0.5c-0.2-0.1-0.4-0.2-0.7-0.2h-1.2V298.5z M125.8,299.4
		c0-0.2-0.1-0.4-0.2-0.5s-0.4-0.2-0.8-0.2h-1.3v1.4h1.2C125.4,300.2,125.8,299.9,125.8,299.4z"/>
	<path fill="#FFFFFF" d="M130,297.1c0.2,0.2,0.4,0.6,0.4,1v2.3H130v-0.7c-0.1,0.2-0.3,0.4-0.5,0.5c-0.2,0.1-0.5,0.2-0.8,0.2
		c-0.4,0-0.7-0.1-1-0.3c-0.2-0.2-0.4-0.4-0.4-0.8c0-0.3,0.1-0.6,0.3-0.7c0.2-0.2,0.6-0.3,1-0.3h1.3v-0.3c0-0.3-0.1-0.6-0.3-0.8
		c-0.2-0.2-0.5-0.3-0.8-0.3c-0.2,0-0.5,0-0.7,0.1c-0.2,0.1-0.4,0.2-0.6,0.3l-0.2-0.3c0.2-0.2,0.4-0.3,0.7-0.4
		c0.3-0.1,0.5-0.1,0.8-0.1C129.4,296.8,129.7,296.9,130,297.1z M129.5,300c0.2-0.1,0.4-0.3,0.5-0.6v-0.7h-1.2
		c-0.4,0-0.6,0.1-0.8,0.2c-0.2,0.1-0.2,0.3-0.2,0.5c0,0.2,0.1,0.4,0.3,0.6c0.2,0.1,0.4,0.2,0.8,0.2
		C129.1,300.2,129.3,300.1,129.5,300z"/>
	<path fill="#FFFFFF" d="M136.1,297c0.3,0.2,0.5,0.4,0.6,0.7s0.2,0.6,0.2,1c0,0.4-0.1,0.7-0.2,1s-0.4,0.5-0.6,0.7
		c-0.3,0.2-0.6,0.2-0.9,0.2c-0.3,0-0.6-0.1-0.9-0.2c-0.3-0.1-0.5-0.3-0.6-0.6c-0.2-0.3-0.2-0.6-0.3-0.9h-0.9v1.7h-0.4v-3.7h0.4v1.6
		h0.9c0-0.3,0.1-0.6,0.3-0.9s0.4-0.5,0.6-0.6s0.6-0.2,0.9-0.2C135.5,296.8,135.8,296.8,136.1,297z M135.9,300
		c0.2-0.1,0.4-0.3,0.5-0.6c0.1-0.2,0.2-0.5,0.2-0.8c0-0.3-0.1-0.6-0.2-0.8c-0.1-0.2-0.3-0.4-0.5-0.5s-0.5-0.2-0.7-0.2
		c-0.3,0-0.5,0.1-0.7,0.2c-0.2,0.1-0.4,0.3-0.5,0.5s-0.2,0.5-0.2,0.8c0,0.3,0.1,0.6,0.2,0.8c0.1,0.2,0.3,0.4,0.5,0.6
		c0.2,0.1,0.5,0.2,0.7,0.2C135.5,300.2,135.7,300.1,135.9,300z"/>
	<path fill="#FFFFFF" d="M143.4,296.8v3.7h-4.9v-3.7h0.4v3.4h1.9v-3.4h0.4v3.4h1.9v-3.4H143.4z M144,300.1v1.1h-0.3v-0.8H143v-0.3
		H144z"/>
	<path fill="#FFFFFF" d="M145.3,296.8h0.4v3.1l2.6-3.1h0.3v3.7h-0.3v-3.1l-2.6,3.1h-0.3V296.8z"/>
	<path fill="#FFFFFF" d="M153.5,298.7h-3.1c0,0.3,0.1,0.5,0.2,0.8s0.3,0.4,0.6,0.5s0.5,0.2,0.8,0.2c0.2,0,0.5,0,0.7-0.1
		c0.2-0.1,0.4-0.2,0.5-0.4l0.2,0.2c-0.2,0.2-0.4,0.3-0.6,0.4c-0.2,0.1-0.5,0.2-0.8,0.2c-0.4,0-0.7-0.1-1-0.2s-0.5-0.4-0.7-0.7
		c-0.2-0.3-0.2-0.6-0.2-1c0-0.4,0.1-0.7,0.2-1c0.2-0.3,0.4-0.5,0.6-0.7c0.3-0.2,0.6-0.2,0.9-0.2c0.3,0,0.6,0.1,0.9,0.2
		c0.3,0.2,0.5,0.4,0.6,0.7C153.4,297.9,153.5,298.2,153.5,298.7L153.5,298.7z M151.1,297.2c-0.2,0.1-0.4,0.3-0.5,0.5
		c-0.1,0.2-0.2,0.4-0.2,0.7h2.8c0-0.3-0.1-0.5-0.2-0.7c-0.1-0.2-0.3-0.4-0.5-0.5s-0.4-0.2-0.7-0.2
		C151.5,297.1,151.3,297.1,151.1,297.2z"/>
	<path fill="#FFFFFF" d="M155.5,300.2c-0.3-0.2-0.5-0.4-0.7-0.7s-0.2-0.6-0.2-1c0-0.4,0.1-0.7,0.2-1s0.4-0.5,0.7-0.7
		c0.3-0.2,0.6-0.2,1-0.2c0.3,0,0.6,0.1,0.8,0.2c0.2,0.1,0.4,0.3,0.6,0.5l-0.3,0.2c-0.1-0.2-0.3-0.3-0.5-0.4
		c-0.2-0.1-0.4-0.1-0.6-0.1c-0.3,0-0.5,0.1-0.8,0.2s-0.4,0.3-0.5,0.5c-0.1,0.2-0.2,0.5-0.2,0.8c0,0.3,0.1,0.6,0.2,0.8
		c0.1,0.2,0.3,0.4,0.5,0.5s0.5,0.2,0.8,0.2c0.2,0,0.4,0,0.6-0.1c0.2-0.1,0.4-0.2,0.5-0.4l0.3,0.2c-0.1,0.2-0.3,0.4-0.6,0.5
		c-0.2,0.1-0.5,0.2-0.8,0.2C156.1,300.5,155.8,300.4,155.5,300.2z"/>
	<path fill="#FFFFFF" d="M161.8,296.8v3.7h-0.3v-1.3h-1.2c-0.1,0-0.1,0-0.2,0l-0.9,1.3h-0.4l0.9-1.3c-0.3-0.1-0.5-0.2-0.7-0.4
		c-0.2-0.2-0.2-0.4-0.2-0.7c0-0.4,0.1-0.7,0.4-0.9c0.3-0.2,0.6-0.3,1.1-0.3H161.8z M160.3,298.9h1.2v-1.8h-1.1
		c-0.8,0-1.2,0.3-1.2,0.9C159.2,298.6,159.6,298.9,160.3,298.9z"/>
	<path fill="#FFFFFF" d="M34.9,314.3c-0.3-0.2-0.5-0.4-0.7-0.7c-0.2-0.3-0.2-0.6-0.2-1c0-0.4,0.1-0.7,0.2-1c0.2-0.3,0.4-0.5,0.7-0.7
		c0.3-0.2,0.6-0.2,1-0.2c0.3,0,0.6,0.1,0.8,0.2c0.2,0.1,0.4,0.3,0.6,0.5l-0.3,0.2c-0.1-0.2-0.3-0.3-0.5-0.4
		c-0.2-0.1-0.4-0.1-0.6-0.1c-0.3,0-0.5,0.1-0.8,0.2c-0.2,0.1-0.4,0.3-0.5,0.5c-0.1,0.2-0.2,0.5-0.2,0.8c0,0.3,0.1,0.6,0.2,0.8
		c0.1,0.2,0.3,0.4,0.5,0.5c0.2,0.1,0.5,0.2,0.8,0.2c0.2,0,0.4,0,0.6-0.1c0.2-0.1,0.4-0.2,0.5-0.4l0.3,0.2c-0.1,0.2-0.3,0.4-0.6,0.5
		c-0.2,0.1-0.5,0.2-0.8,0.2C35.5,314.5,35.2,314.5,34.9,314.3z"/>
	<path fill="#FFFFFF" d="M41,311.2h-1.4v3.4h-0.4v-3.4h-1.4v-0.3H41V311.2z"/>
	<path fill="#FFFFFF" d="M44.9,311c0.3,0.2,0.5,0.4,0.6,0.7c0.2,0.3,0.2,0.6,0.2,1c0,0.4-0.1,0.7-0.2,1c-0.2,0.3-0.4,0.5-0.6,0.7
		c-0.3,0.2-0.6,0.2-0.9,0.2c-0.3,0-0.6-0.1-0.9-0.2s-0.5-0.4-0.6-0.6v2.2h-0.4v-5h0.3v0.9c0.1-0.3,0.3-0.5,0.6-0.7
		c0.3-0.2,0.6-0.2,0.9-0.2C44.3,310.8,44.6,310.9,44.9,311z M44.7,314c0.2-0.1,0.4-0.3,0.5-0.5s0.2-0.5,0.2-0.8s-0.1-0.6-0.2-0.8
		s-0.3-0.4-0.5-0.5c-0.2-0.1-0.5-0.2-0.8-0.2c-0.3,0-0.5,0.1-0.8,0.2c-0.2,0.1-0.4,0.3-0.5,0.5s-0.2,0.5-0.2,0.8s0.1,0.6,0.2,0.8
		s0.3,0.4,0.5,0.5c0.2,0.1,0.5,0.2,0.8,0.2C44.2,314.2,44.5,314.2,44.7,314z"/>
	<path fill="#FFFFFF" d="M49.5,311.2c0.2,0.2,0.4,0.6,0.4,1v2.3h-0.3v-0.7c-0.1,0.2-0.3,0.4-0.5,0.5c-0.2,0.1-0.5,0.2-0.8,0.2
		c-0.4,0-0.7-0.1-1-0.3c-0.2-0.2-0.4-0.4-0.4-0.8c0-0.3,0.1-0.6,0.3-0.7s0.6-0.3,1-0.3h1.3v-0.3c0-0.3-0.1-0.6-0.3-0.8
		c-0.2-0.2-0.5-0.3-0.8-0.3c-0.2,0-0.5,0-0.7,0.1c-0.2,0.1-0.4,0.2-0.6,0.3l-0.2-0.3c0.2-0.2,0.4-0.3,0.7-0.4
		c0.3-0.1,0.5-0.1,0.8-0.1C48.9,310.8,49.3,310.9,49.5,311.2z M49.1,314c0.2-0.1,0.4-0.3,0.5-0.6v-0.7h-1.2c-0.4,0-0.6,0.1-0.8,0.2
		s-0.2,0.3-0.2,0.5c0,0.2,0.1,0.4,0.3,0.6c0.2,0.1,0.4,0.2,0.8,0.2C48.6,314.2,48.8,314.2,49.1,314z"/>
	<path fill="#FFFFFF" d="M51.7,310.8H52v1.7h2.5v-1.7h0.4v3.7h-0.4v-1.7H52v1.7h-0.4V310.8z"/>
	<path fill="#FFFFFF" d="M59.2,312.5c0.2,0.2,0.4,0.5,0.4,0.9c0,0.4-0.1,0.7-0.4,0.9s-0.6,0.3-1.1,0.3l-1.4,0v-3.7h0.4v1.3l1.1,0
		C58.6,312.2,58.9,312.3,59.2,312.5z M58.9,314c0.2-0.2,0.3-0.4,0.3-0.7c0-0.3-0.1-0.5-0.3-0.7s-0.5-0.2-0.9-0.2l-1,0v1.8l1,0
		C58.4,314.2,58.7,314.2,58.9,314z M60.2,310.8h0.4v3.7h-0.4V310.8z"/>
	<path fill="#FFFFFF" d="M67,311.2h-1.4v3.4h-0.4v-3.4h-1.4v-0.3H67V311.2z"/>
	<path fill="#FFFFFF" d="M70.9,311c0.3,0.2,0.5,0.4,0.6,0.7c0.2,0.3,0.2,0.6,0.2,1c0,0.4-0.1,0.7-0.2,1c-0.2,0.3-0.4,0.5-0.6,0.7
		c-0.3,0.2-0.6,0.2-0.9,0.2c-0.3,0-0.6-0.1-0.9-0.2s-0.5-0.4-0.6-0.6v2.2h-0.4v-5h0.3v0.9c0.1-0.3,0.3-0.5,0.6-0.7
		c0.3-0.2,0.6-0.2,0.9-0.2C70.3,310.8,70.6,310.9,70.9,311z M70.7,314c0.2-0.1,0.4-0.3,0.5-0.5s0.2-0.5,0.2-0.8s-0.1-0.6-0.2-0.8
		s-0.3-0.4-0.5-0.5c-0.2-0.1-0.5-0.2-0.8-0.2c-0.3,0-0.5,0.1-0.8,0.2c-0.2,0.1-0.4,0.3-0.5,0.5s-0.2,0.5-0.2,0.8s0.1,0.6,0.2,0.8
		s0.3,0.4,0.5,0.5c0.2,0.1,0.5,0.2,0.8,0.2C70.2,314.2,70.5,314.2,70.7,314z"/>
	<path fill="#FFFFFF" d="M76.4,312.8h-3.1c0,0.3,0.1,0.5,0.2,0.8s0.3,0.4,0.6,0.5s0.5,0.2,0.8,0.2c0.2,0,0.5,0,0.7-0.1
		c0.2-0.1,0.4-0.2,0.5-0.4l0.2,0.2c-0.2,0.2-0.4,0.3-0.6,0.4c-0.2,0.1-0.5,0.2-0.8,0.2c-0.4,0-0.7-0.1-1-0.2s-0.5-0.4-0.7-0.7
		c-0.2-0.3-0.2-0.6-0.2-1c0-0.4,0.1-0.7,0.2-1s0.4-0.5,0.6-0.7c0.3-0.2,0.6-0.2,0.9-0.2c0.3,0,0.6,0.1,0.9,0.2
		c0.3,0.2,0.5,0.4,0.6,0.7S76.4,312.3,76.4,312.8L76.4,312.8z M74,311.3c-0.2,0.1-0.4,0.3-0.5,0.5c-0.1,0.2-0.2,0.4-0.2,0.7h2.8
		c0-0.3-0.1-0.5-0.2-0.7c-0.1-0.2-0.3-0.4-0.5-0.5s-0.4-0.2-0.7-0.2C74.4,311.1,74.2,311.2,74,311.3z"/>
	<path fill="#FFFFFF" d="M80.2,311.2h-1.4v3.4h-0.4v-3.4H77v-0.3h3.2V311.2z"/>
	<path fill="#FFFFFF" d="M83.8,312.5c0.2,0.2,0.4,0.5,0.4,0.9c0,0.4-0.1,0.7-0.4,0.9s-0.6,0.3-1.1,0.3l-1.4,0v-3.7h0.4v1.3l1.1,0
		C83.2,312.2,83.5,312.3,83.8,312.5z M83.5,314c0.2-0.2,0.3-0.4,0.3-0.7c0-0.3-0.1-0.5-0.3-0.7c-0.2-0.1-0.5-0.2-0.8-0.2l-1,0v1.8
		l1,0C83,314.2,83.3,314.2,83.5,314z"/>
	<path fill="#FFFFFF" d="M88.6,312.8h-3.1c0,0.3,0.1,0.5,0.2,0.8s0.3,0.4,0.6,0.5s0.5,0.2,0.8,0.2c0.2,0,0.5,0,0.7-0.1
		c0.2-0.1,0.4-0.2,0.5-0.4l0.2,0.2c-0.2,0.2-0.4,0.3-0.6,0.4c-0.2,0.1-0.5,0.2-0.8,0.2c-0.4,0-0.7-0.1-1-0.2s-0.5-0.4-0.7-0.7
		c-0.2-0.3-0.2-0.6-0.2-1c0-0.4,0.1-0.7,0.2-1s0.4-0.5,0.6-0.7c0.3-0.2,0.6-0.2,0.9-0.2c0.3,0,0.6,0.1,0.9,0.2
		c0.3,0.2,0.5,0.4,0.6,0.7C88.5,312,88.6,312.3,88.6,312.8L88.6,312.8z M86.2,311.3c-0.2,0.1-0.4,0.3-0.5,0.5
		c-0.1,0.2-0.2,0.4-0.2,0.7h2.8c0-0.3-0.1-0.5-0.2-0.7c-0.1-0.2-0.3-0.4-0.5-0.5s-0.4-0.2-0.7-0.2C86.6,311.1,86.4,311.2,86.2,311.3
		z"/>
	<path fill="#FFFFFF" d="M92.6,311.2h-2.2v3.4h-0.4v-3.7h2.5V311.2z"/>
	<path fill="#FFFFFF" d="M94.1,314.3c-0.3-0.2-0.5-0.4-0.7-0.7s-0.2-0.6-0.2-1c0-0.4,0.1-0.7,0.2-1s0.4-0.5,0.7-0.7s0.6-0.2,0.9-0.2
		c0.3,0,0.7,0.1,0.9,0.2c0.3,0.2,0.5,0.4,0.7,0.7s0.2,0.6,0.2,1c0,0.4-0.1,0.7-0.2,1s-0.4,0.5-0.7,0.7c-0.3,0.2-0.6,0.2-0.9,0.2
		C94.7,314.5,94.3,314.5,94.1,314.3z M95.8,314c0.2-0.1,0.4-0.3,0.5-0.5c0.1-0.2,0.2-0.5,0.2-0.8s-0.1-0.6-0.2-0.8
		c-0.1-0.2-0.3-0.4-0.5-0.5c-0.2-0.1-0.5-0.2-0.8-0.2c-0.3,0-0.5,0.1-0.8,0.2c-0.2,0.1-0.4,0.3-0.5,0.5c-0.1,0.2-0.2,0.5-0.2,0.8
		s0.1,0.6,0.2,0.8c0.1,0.2,0.3,0.4,0.5,0.5c0.2,0.1,0.5,0.2,0.8,0.2C95.3,314.2,95.5,314.2,95.8,314z"/>
	<path fill="#FFFFFF" d="M104.5,310.8v3.7h-0.3v-3.1l-1.6,2.6h-0.2l-1.6-2.6v3.1h-0.3v-3.7h0.3l1.7,2.8l1.7-2.8H104.5z"/>
	<path fill="#FFFFFF" d="M106.3,310.8h0.4v3.1l2.6-3.1h0.3v3.7h-0.3v-3.1l-2.6,3.1h-0.3V310.8z"/>
	<path fill="#FFFFFF" d="M114.2,311c0.3,0.2,0.5,0.4,0.6,0.7c0.2,0.3,0.2,0.6,0.2,1c0,0.4-0.1,0.7-0.2,1c-0.2,0.3-0.4,0.5-0.6,0.7
		c-0.3,0.2-0.6,0.2-0.9,0.2c-0.3,0-0.6-0.1-0.9-0.2s-0.5-0.4-0.6-0.6v2.2h-0.4v-5h0.3v0.9c0.1-0.3,0.3-0.5,0.6-0.7
		c0.3-0.2,0.6-0.2,0.9-0.2C113.6,310.8,114,310.9,114.2,311z M114,314c0.2-0.1,0.4-0.3,0.5-0.5s0.2-0.5,0.2-0.8s-0.1-0.6-0.2-0.8
		s-0.3-0.4-0.5-0.5c-0.2-0.1-0.5-0.2-0.8-0.2s-0.5,0.1-0.8,0.2c-0.2,0.1-0.4,0.3-0.5,0.5c-0.1,0.2-0.2,0.5-0.2,0.8s0.1,0.6,0.2,0.8
		c0.1,0.2,0.3,0.4,0.5,0.5c0.2,0.1,0.5,0.2,0.8,0.2S113.8,314.2,114,314z"/>
	<path fill="#FFFFFF" d="M118.9,311.2c0.2,0.2,0.4,0.6,0.4,1v2.3h-0.3v-0.7c-0.1,0.2-0.3,0.4-0.5,0.5c-0.2,0.1-0.5,0.2-0.8,0.2
		c-0.4,0-0.7-0.1-1-0.3c-0.2-0.2-0.4-0.4-0.4-0.8c0-0.3,0.1-0.6,0.3-0.7c0.2-0.2,0.6-0.3,1-0.3h1.3v-0.3c0-0.3-0.1-0.6-0.3-0.8
		c-0.2-0.2-0.5-0.3-0.8-0.3c-0.2,0-0.5,0-0.7,0.1c-0.2,0.1-0.4,0.2-0.6,0.3l-0.2-0.3c0.2-0.2,0.4-0.3,0.7-0.4
		c0.3-0.1,0.5-0.1,0.8-0.1C118.3,310.8,118.6,310.9,118.9,311.2z M118.4,314c0.2-0.1,0.4-0.3,0.5-0.6v-0.7h-1.2
		c-0.4,0-0.6,0.1-0.8,0.2s-0.2,0.3-0.2,0.5c0,0.2,0.1,0.4,0.3,0.6c0.2,0.1,0.4,0.2,0.8,0.2C117.9,314.2,118.2,314.2,118.4,314z"/>
	<path fill="#FFFFFF" d="M127.1,310.8v3.7h-0.3v-3.1l-1.6,2.6H125l-1.6-2.6v3.1h-0.3v-3.7h0.3l1.7,2.8l1.7-2.8H127.1z"/>
	<path fill="#FFFFFF" d="M129.5,314.3c-0.3-0.2-0.5-0.4-0.7-0.7s-0.2-0.6-0.2-1c0-0.4,0.1-0.7,0.2-1s0.4-0.5,0.7-0.7
		s0.6-0.2,0.9-0.2c0.3,0,0.7,0.1,0.9,0.2c0.3,0.2,0.5,0.4,0.7,0.7s0.2,0.6,0.2,1c0,0.4-0.1,0.7-0.2,1s-0.4,0.5-0.7,0.7
		c-0.3,0.2-0.6,0.2-0.9,0.2C130.1,314.5,129.8,314.5,129.5,314.3z M131.2,314c0.2-0.1,0.4-0.3,0.5-0.5c0.1-0.2,0.2-0.5,0.2-0.8
		s-0.1-0.6-0.2-0.8c-0.1-0.2-0.3-0.4-0.5-0.5c-0.2-0.1-0.5-0.2-0.8-0.2c-0.3,0-0.5,0.1-0.8,0.2c-0.2,0.1-0.4,0.3-0.5,0.5
		c-0.1,0.2-0.2,0.5-0.2,0.8s0.1,0.6,0.2,0.8c0.1,0.2,0.3,0.4,0.5,0.5c0.2,0.1,0.5,0.2,0.8,0.2C130.7,314.2,131,314.2,131.2,314z"/>
	<path fill="#FFFFFF" d="M136.3,311.2h-2.2v3.4h-0.4v-3.7h2.5V311.2z"/>
	<path fill="#FFFFFF" d="M140.4,310.8l-1.9,4.2c-0.1,0.3-0.3,0.6-0.5,0.7s-0.4,0.2-0.7,0.2c-0.2,0-0.3,0-0.5-0.1
		c-0.1-0.1-0.3-0.1-0.4-0.2l0.2-0.3c0.2,0.2,0.4,0.3,0.7,0.3c0.2,0,0.3,0,0.5-0.1s0.2-0.3,0.4-0.5l0.2-0.4l-1.6-3.7h0.4l1.5,3.3
		l1.5-3.3H140.4z"/>
	<path fill="#FFFFFF" d="M144,311.2h-1.4v3.4h-0.4v-3.4h-1.4v-0.3h3.2V311.2z"/>
	<path fill="#FFFFFF" d="M149.9,311.1c0.3,0.2,0.5,0.4,0.6,0.6c0.2,0.3,0.2,0.6,0.2,0.9c0,0.4-0.1,0.7-0.2,1
		c-0.2,0.3-0.4,0.5-0.6,0.7s-0.6,0.2-0.9,0.2c-0.4,0-0.7-0.1-1-0.3c-0.3-0.2-0.5-0.5-0.6-0.8c-0.1-0.4-0.2-0.8-0.2-1.3
		c0-0.5,0.1-1,0.2-1.4c0.1-0.4,0.3-0.6,0.6-0.9c0.3-0.2,0.6-0.4,1-0.5l1.6-0.4l0.1,0.3l-1.5,0.4c-0.4,0.1-0.7,0.2-0.9,0.4
		c-0.2,0.2-0.4,0.4-0.5,0.7c-0.1,0.3-0.2,0.7-0.2,1.1c0.1-0.3,0.3-0.6,0.6-0.8s0.6-0.3,1-0.3C149.3,310.9,149.6,311,149.9,311.1z
		 M149.7,314c0.2-0.1,0.4-0.3,0.5-0.5c0.1-0.2,0.2-0.5,0.2-0.8c0-0.3-0.1-0.6-0.2-0.8c-0.1-0.2-0.3-0.4-0.5-0.5
		c-0.2-0.1-0.5-0.2-0.7-0.2c-0.3,0-0.5,0.1-0.8,0.2s-0.4,0.3-0.5,0.5c-0.1,0.2-0.2,0.5-0.2,0.8c0,0.3,0.1,0.6,0.2,0.8
		c0.1,0.2,0.3,0.4,0.5,0.5s0.5,0.2,0.8,0.2C149.2,314.2,149.4,314.2,149.7,314z"/>
	<path fill="#FFFFFF" d="M154.7,312.5c0.2,0.2,0.4,0.5,0.4,0.9c0,0.4-0.1,0.7-0.4,0.9s-0.6,0.3-1.1,0.3l-1.4,0v-3.7h0.4v1.3l1.1,0
		C154.1,312.2,154.5,312.3,154.7,312.5z M154.4,314c0.2-0.2,0.3-0.4,0.3-0.7c0-0.3-0.1-0.5-0.3-0.7c-0.2-0.1-0.5-0.2-0.9-0.2l-1,0
		v1.8l1,0C153.9,314.2,154.2,314.2,154.4,314z M155.7,310.8h0.4v3.7h-0.4V310.8z"/>
	<path fill="#FFFFFF" d="M160.4,311.2h-1.4v3.4h-0.4v-3.4h-1.4v-0.3h3.2V311.2z"/>
	<path fill="#FFFFFF" d="M164,312.5c0.2,0.2,0.4,0.5,0.4,0.9c0,0.4-0.1,0.7-0.4,0.9c-0.3,0.2-0.6,0.3-1.1,0.3l-1.4,0v-3.7h0.4v1.3
		l1.1,0C163.4,312.2,163.7,312.3,164,312.5z M163.7,314c0.2-0.2,0.3-0.4,0.3-0.7c0-0.3-0.1-0.5-0.3-0.7c-0.2-0.1-0.5-0.2-0.8-0.2
		l-1,0v1.8l1,0C163.2,314.2,163.5,314.2,163.7,314z"/>
	<path fill="#FFFFFF" d="M39.2,324.9v3.7h-0.4v-3.4h-2.5v3.4H36v-3.7H39.2z"/>
	<path fill="#FFFFFF" d="M43.8,325.1c0.3,0.2,0.5,0.4,0.6,0.7c0.2,0.3,0.2,0.6,0.2,1c0,0.4-0.1,0.7-0.2,1c-0.2,0.3-0.4,0.5-0.6,0.7
		c-0.3,0.2-0.6,0.2-0.9,0.2c-0.3,0-0.6-0.1-0.9-0.2s-0.5-0.4-0.6-0.6v2.2h-0.4v-5h0.3v0.9c0.1-0.3,0.3-0.5,0.6-0.7
		c0.3-0.2,0.6-0.2,0.9-0.2C43.2,324.9,43.6,324.9,43.8,325.1z M43.6,328.1c0.2-0.1,0.4-0.3,0.5-0.5s0.2-0.5,0.2-0.8
		s-0.1-0.6-0.2-0.8s-0.3-0.4-0.5-0.5c-0.2-0.1-0.5-0.2-0.8-0.2c-0.3,0-0.5,0.1-0.8,0.2c-0.2,0.1-0.4,0.3-0.5,0.5s-0.2,0.5-0.2,0.8
		s0.1,0.6,0.2,0.8s0.3,0.4,0.5,0.5c0.2,0.1,0.5,0.2,0.8,0.2C43.2,328.3,43.4,328.2,43.6,328.1z"/>
	<path fill="#FFFFFF" d="M49.3,326.8h-3.1c0,0.3,0.1,0.5,0.2,0.8s0.3,0.4,0.6,0.5s0.5,0.2,0.8,0.2c0.2,0,0.5,0,0.7-0.1
		c0.2-0.1,0.4-0.2,0.5-0.4l0.2,0.2c-0.2,0.2-0.4,0.3-0.6,0.4c-0.2,0.1-0.5,0.2-0.8,0.2c-0.4,0-0.7-0.1-1-0.2s-0.5-0.4-0.7-0.7
		c-0.2-0.3-0.2-0.6-0.2-1c0-0.4,0.1-0.7,0.2-1s0.4-0.5,0.6-0.7c0.3-0.2,0.6-0.2,0.9-0.2c0.3,0,0.6,0.1,0.9,0.2
		c0.3,0.2,0.5,0.4,0.6,0.7S49.3,326.4,49.3,326.8L49.3,326.8z M46.9,325.3c-0.2,0.1-0.4,0.3-0.5,0.5c-0.1,0.2-0.2,0.4-0.2,0.7H49
		c0-0.3-0.1-0.5-0.2-0.7c-0.1-0.2-0.3-0.4-0.5-0.5s-0.4-0.2-0.7-0.2C47.3,325.2,47.1,325.2,46.9,325.3z"/>
	<path fill="#FFFFFF" d="M54.2,328.3v1.2h-0.3v-0.9h-3.5v0.9h-0.3v-1.2h0.2c0.2,0,0.4-0.2,0.5-0.6c0.1-0.4,0.2-0.9,0.2-1.6l0-1.2
		h2.6v3.4H54.2z M51.2,327.5c-0.1,0.4-0.2,0.6-0.4,0.7h2.5v-3h-1.9l0,0.9C51.3,326.7,51.2,327.1,51.2,327.5z"/>
	<path fill="#FFFFFF" d="M56.1,328.4c-0.3-0.2-0.5-0.4-0.7-0.7c-0.2-0.3-0.2-0.6-0.2-1c0-0.4,0.1-0.7,0.2-1c0.2-0.3,0.4-0.5,0.7-0.7
		c0.3-0.2,0.6-0.2,1-0.2c0.3,0,0.6,0.1,0.8,0.2c0.2,0.1,0.4,0.3,0.6,0.5l-0.3,0.2c-0.1-0.2-0.3-0.3-0.5-0.4
		c-0.2-0.1-0.4-0.1-0.6-0.1c-0.3,0-0.5,0.1-0.8,0.2c-0.2,0.1-0.4,0.3-0.5,0.5c-0.1,0.2-0.2,0.5-0.2,0.8c0,0.3,0.1,0.6,0.2,0.8
		c0.1,0.2,0.3,0.4,0.5,0.5c0.2,0.1,0.5,0.2,0.8,0.2c0.2,0,0.4,0,0.6-0.1c0.2-0.1,0.4-0.2,0.5-0.4l0.3,0.2c-0.1,0.2-0.3,0.4-0.6,0.5
		c-0.2,0.1-0.5,0.2-0.8,0.2C56.7,328.6,56.4,328.5,56.1,328.4z"/>
	<path fill="#FFFFFF" d="M62.2,325.2h-1.4v3.4h-0.4v-3.4H59v-0.3h3.2V325.2z"/>
	<path fill="#FFFFFF" d="M65.5,325.2c0.2,0.2,0.4,0.6,0.4,1v2.3h-0.3v-0.7c-0.1,0.2-0.3,0.4-0.5,0.5c-0.2,0.1-0.5,0.2-0.8,0.2
		c-0.4,0-0.7-0.1-1-0.3c-0.2-0.2-0.4-0.4-0.4-0.8c0-0.3,0.1-0.6,0.3-0.7s0.6-0.3,1-0.3h1.3v-0.3c0-0.3-0.1-0.6-0.3-0.8
		c-0.2-0.2-0.5-0.3-0.8-0.3c-0.2,0-0.5,0-0.7,0.1c-0.2,0.1-0.4,0.2-0.6,0.3l-0.2-0.3c0.2-0.2,0.4-0.3,0.7-0.4
		c0.3-0.1,0.5-0.1,0.8-0.1C65,324.9,65.3,325,65.5,325.2z M65.1,328.1c0.2-0.1,0.4-0.3,0.5-0.6v-0.7h-1.2c-0.4,0-0.6,0.1-0.8,0.2
		s-0.2,0.3-0.2,0.5c0,0.2,0.1,0.4,0.3,0.6c0.2,0.1,0.4,0.2,0.8,0.2C64.6,328.3,64.9,328.2,65.1,328.1z"/>
	<path fill="#FFFFFF" d="M70.7,327.6c0,0.3-0.1,0.6-0.3,0.7c-0.2,0.2-0.6,0.3-1,0.3h-1.6v-3.7h1.5c0.4,0,0.7,0.1,1,0.2
		c0.2,0.2,0.3,0.4,0.3,0.7c0,0.2-0.1,0.4-0.2,0.5c-0.1,0.1-0.3,0.2-0.5,0.3C70.4,326.8,70.7,327.1,70.7,327.6z M68,326.6h1.2
		c0.3,0,0.6-0.1,0.7-0.2c0.2-0.1,0.3-0.3,0.3-0.5c0-0.2-0.1-0.4-0.2-0.5c-0.2-0.1-0.4-0.2-0.7-0.2H68V326.6z M70.3,327.6
		c0-0.2-0.1-0.4-0.2-0.5c-0.2-0.1-0.4-0.2-0.8-0.2H68v1.4h1.2C70,328.3,70.3,328,70.3,327.6z"/>
	<path fill="#FFFFFF" d="M75.1,324.9v3.7h-0.4v-3.4h-1.9l0,1c0,0.5-0.1,0.9-0.1,1.3s-0.2,0.6-0.3,0.8c-0.1,0.2-0.3,0.3-0.6,0.3
		c-0.1,0-0.2,0-0.3,0l0-0.3c0.1,0,0.1,0,0.2,0c0.2,0,0.3-0.1,0.4-0.3c0.1-0.2,0.2-0.4,0.2-0.7c0-0.3,0.1-0.7,0.1-1.1l0.1-1.3H75.1z"
		/>
	<path fill="#FFFFFF" d="M80.1,326.8h-3.1c0,0.3,0.1,0.5,0.2,0.8s0.3,0.4,0.6,0.5s0.5,0.2,0.8,0.2c0.2,0,0.5,0,0.7-0.1
		c0.2-0.1,0.4-0.2,0.5-0.4l0.2,0.2c-0.2,0.2-0.4,0.3-0.6,0.4c-0.2,0.1-0.5,0.2-0.8,0.2c-0.4,0-0.7-0.1-1-0.2s-0.5-0.4-0.7-0.7
		c-0.2-0.3-0.2-0.6-0.2-1c0-0.4,0.1-0.7,0.2-1s0.4-0.5,0.6-0.7c0.3-0.2,0.6-0.2,0.9-0.2c0.3,0,0.6,0.1,0.9,0.2
		c0.3,0.2,0.5,0.4,0.6,0.7S80.1,326.4,80.1,326.8L80.1,326.8z M77.7,325.3c-0.2,0.1-0.4,0.3-0.5,0.5c-0.1,0.2-0.2,0.4-0.2,0.7h2.8
		c0-0.3-0.1-0.5-0.2-0.7c-0.1-0.2-0.3-0.4-0.5-0.5s-0.4-0.2-0.7-0.2C78.1,325.2,77.9,325.2,77.7,325.3z"/>
	<path fill="#FFFFFF" d="M81.6,324.9h0.4v1.7h2.5v-1.7h0.4v3.7h-0.4v-1.7h-2.5v1.7h-0.4V324.9z"/>
	<path fill="#FFFFFF" d="M89.1,326.5c0.2,0.2,0.4,0.5,0.4,0.9c0,0.4-0.1,0.7-0.4,0.9s-0.6,0.3-1.1,0.3l-1.4,0v-3.7H87v1.3l1.1,0
		C88.5,326.2,88.9,326.3,89.1,326.5z M88.8,328.1c0.2-0.2,0.3-0.4,0.3-0.7c0-0.3-0.1-0.5-0.3-0.7s-0.5-0.2-0.9-0.2l-1,0v1.8l1,0
		C88.4,328.3,88.7,328.2,88.8,328.1z M90.2,324.9h0.3v3.7h-0.3V324.9z"/>
	<path fill="#FFFFFF" d="M97.5,327.6c0,0.3-0.1,0.6-0.3,0.7s-0.6,0.3-1,0.3h-1.6v-3.7h1.5c0.4,0,0.7,0.1,1,0.2
		c0.2,0.2,0.3,0.4,0.3,0.7c0,0.2-0.1,0.4-0.2,0.5s-0.3,0.2-0.5,0.3C97.2,326.8,97.5,327.1,97.5,327.6z M94.9,326.6H96
		c0.3,0,0.6-0.1,0.7-0.2c0.2-0.1,0.3-0.3,0.3-0.5c0-0.2-0.1-0.4-0.2-0.5c-0.2-0.1-0.4-0.2-0.7-0.2h-1.2V326.6z M97.1,327.6
		c0-0.2-0.1-0.4-0.2-0.5s-0.4-0.2-0.8-0.2h-1.3v1.4h1.2C96.8,328.3,97.1,328,97.1,327.6z"/>
	<path fill="#FFFFFF" d="M104.4,324.9v3.7h-0.4v-3.4h-2.5v3.4h-0.4v-3.7H104.4z"/>
	<path fill="#FFFFFF" d="M106.8,328.4c-0.3-0.2-0.5-0.4-0.7-0.7s-0.2-0.6-0.2-1c0-0.4,0.1-0.7,0.2-1s0.4-0.5,0.7-0.7
		s0.6-0.2,0.9-0.2c0.3,0,0.7,0.1,0.9,0.2c0.3,0.2,0.5,0.4,0.7,0.7s0.2,0.6,0.2,1c0,0.4-0.1,0.7-0.2,1s-0.4,0.5-0.7,0.7
		c-0.3,0.2-0.6,0.2-0.9,0.2C107.4,328.6,107.1,328.5,106.8,328.4z M108.5,328.1c0.2-0.1,0.4-0.3,0.5-0.5c0.1-0.2,0.2-0.5,0.2-0.8
		s-0.1-0.6-0.2-0.8c-0.1-0.2-0.3-0.4-0.5-0.5c-0.2-0.1-0.5-0.2-0.8-0.2c-0.3,0-0.5,0.1-0.8,0.2c-0.2,0.1-0.4,0.3-0.5,0.5
		c-0.1,0.2-0.2,0.5-0.2,0.8s0.1,0.6,0.2,0.8c0.1,0.2,0.3,0.4,0.5,0.5c0.2,0.1,0.5,0.2,0.8,0.2C108,328.3,108.3,328.2,108.5,328.1z"
		/>
	<path fill="#FFFFFF" d="M113.9,324.9v3.7h-0.4v-3.4h-1.9l0,1c0,0.5-0.1,0.9-0.1,1.3c-0.1,0.3-0.2,0.6-0.3,0.8s-0.3,0.3-0.6,0.3
		c-0.1,0-0.2,0-0.3,0l0-0.3c0.1,0,0.1,0,0.2,0c0.2,0,0.3-0.1,0.4-0.3c0.1-0.2,0.2-0.4,0.2-0.7c0-0.3,0.1-0.7,0.1-1.1l0.1-1.3H113.9z
		"/>
	<path fill="#FFFFFF" d="M116.3,328.4c-0.3-0.2-0.5-0.4-0.7-0.7s-0.2-0.6-0.2-1c0-0.4,0.1-0.7,0.2-1s0.4-0.5,0.7-0.7
		s0.6-0.2,0.9-0.2c0.3,0,0.7,0.1,0.9,0.2c0.3,0.2,0.5,0.4,0.7,0.7s0.2,0.6,0.2,1c0,0.4-0.1,0.7-0.2,1s-0.4,0.5-0.7,0.7
		c-0.3,0.2-0.6,0.2-0.9,0.2C116.9,328.6,116.6,328.5,116.3,328.4z M118,328.1c0.2-0.1,0.4-0.3,0.5-0.5c0.1-0.2,0.2-0.5,0.2-0.8
		s-0.1-0.6-0.2-0.8c-0.1-0.2-0.3-0.4-0.5-0.5c-0.2-0.1-0.5-0.2-0.8-0.2c-0.3,0-0.5,0.1-0.8,0.2c-0.2,0.1-0.4,0.3-0.5,0.5
		c-0.1,0.2-0.2,0.5-0.2,0.8s0.1,0.6,0.2,0.8c0.1,0.2,0.3,0.4,0.5,0.5c0.2,0.1,0.5,0.2,0.8,0.2C117.5,328.3,117.8,328.2,118,328.1z"
		/>
	<path fill="#FFFFFF" d="M123.5,326.9h-0.9v1.7h-0.4v-1.7h-0.9l-1.2,1.7h-0.4l1.4-1.9l-1.3-1.8h0.4l1.2,1.7h0.9v-1.7h0.4v1.7h0.9
		l1.2-1.7h0.4l-1.3,1.8l1.4,1.9h-0.4L123.5,326.9z"/>
	<path fill="#FFFFFF" d="M126.4,324.9h0.4v3.1l2.6-3.1h0.3v3.7h-0.3v-3.1l-2.6,3.1h-0.3V324.9z"/>
	<path fill="#FFFFFF" d="M134,325.2h-1.4v3.4h-0.4v-3.4h-1.4v-0.3h3.2V325.2z"/>
	<path fill="#FFFFFF" d="M138.1,326.8h-3.1c0,0.3,0.1,0.5,0.2,0.8s0.3,0.4,0.6,0.5s0.5,0.2,0.8,0.2c0.2,0,0.5,0,0.7-0.1
		c0.2-0.1,0.4-0.2,0.5-0.4l0.2,0.2c-0.2,0.2-0.4,0.3-0.6,0.4c-0.2,0.1-0.5,0.2-0.8,0.2c-0.4,0-0.7-0.1-1-0.2s-0.5-0.4-0.7-0.7
		c-0.2-0.3-0.2-0.6-0.2-1c0-0.4,0.1-0.7,0.2-1c0.2-0.3,0.4-0.5,0.6-0.7c0.3-0.2,0.6-0.2,0.9-0.2c0.3,0,0.6,0.1,0.9,0.2
		c0.3,0.2,0.5,0.4,0.6,0.7C138,326,138.1,326.4,138.1,326.8L138.1,326.8z M135.6,325.3c-0.2,0.1-0.4,0.3-0.5,0.5
		c-0.1,0.2-0.2,0.4-0.2,0.7h2.8c0-0.3-0.1-0.5-0.2-0.7c-0.1-0.2-0.3-0.4-0.5-0.5s-0.4-0.2-0.7-0.2
		C136.1,325.2,135.8,325.2,135.6,325.3z"/>
	<path fill="#FFFFFF" d="M142.3,324.9v3.7H142v-3.4h-1.9l0,1c0,0.5-0.1,0.9-0.1,1.3c-0.1,0.3-0.2,0.6-0.3,0.8s-0.3,0.3-0.6,0.3
		c-0.1,0-0.2,0-0.3,0l0-0.3c0.1,0,0.1,0,0.2,0c0.2,0,0.3-0.1,0.4-0.3c0.1-0.2,0.2-0.4,0.2-0.7c0-0.3,0.1-0.7,0.1-1.1l0.1-1.3H142.3z
		"/>
	<path fill="#FFFFFF" d="M146.7,326.5c0.2,0.2,0.4,0.5,0.4,0.9c0,0.4-0.1,0.7-0.4,0.9c-0.3,0.2-0.6,0.3-1.1,0.3l-1.4,0v-3.7h0.4v1.3
		l1.1,0C146.1,326.2,146.5,326.3,146.7,326.5z M146.4,328.1c0.2-0.2,0.3-0.4,0.3-0.7c0-0.3-0.1-0.5-0.3-0.7
		c-0.2-0.1-0.5-0.2-0.8-0.2l-1,0v1.8l1,0C146,328.3,146.2,328.2,146.4,328.1z"/>
	<path fill="#FFFFFF" d="M148.4,324.9h0.4v1.7h2.5v-1.7h0.4v3.7h-0.4v-1.7h-2.5v1.7h-0.4V324.9z"/>
	<path fill="#FFFFFF" d="M154,328.4c-0.3-0.2-0.5-0.4-0.7-0.7s-0.2-0.6-0.2-1c0-0.4,0.1-0.7,0.2-1s0.4-0.5,0.7-0.7s0.6-0.2,0.9-0.2
		c0.3,0,0.7,0.1,0.9,0.2c0.3,0.2,0.5,0.4,0.7,0.7s0.2,0.6,0.2,1c0,0.4-0.1,0.7-0.2,1s-0.4,0.5-0.7,0.7c-0.3,0.2-0.6,0.2-0.9,0.2
		C154.6,328.6,154.3,328.5,154,328.4z M155.7,328.1c0.2-0.1,0.4-0.3,0.5-0.5c0.1-0.2,0.2-0.5,0.2-0.8s-0.1-0.6-0.2-0.8
		c-0.1-0.2-0.3-0.4-0.5-0.5c-0.2-0.1-0.5-0.2-0.8-0.2c-0.3,0-0.5,0.1-0.8,0.2c-0.2,0.1-0.4,0.3-0.5,0.5c-0.1,0.2-0.2,0.5-0.2,0.8
		s0.1,0.6,0.2,0.8c0.1,0.2,0.3,0.4,0.5,0.5c0.2,0.1,0.5,0.2,0.8,0.2C155.2,328.3,155.5,328.2,155.7,328.1z"/>
	<path fill="#FFFFFF" d="M162.3,324.9v3.7h-0.3v-3.1l-1.6,2.6h-0.2l-1.6-2.6v3.1h-0.3v-3.7h0.3l1.7,2.8l1.7-2.8H162.3z"/>
</g>
<g>
	<path fill="#FFFFFF" d="M30.3,275.7v5.5h-1v-4.6h-2.8v4.6h-1v-5.5H30.3z"/>
	<path fill="#FFFFFF" d="M32.8,281c-0.3-0.2-0.6-0.4-0.8-0.8c-0.2-0.3-0.3-0.7-0.3-1.1s0.1-0.8,0.3-1.1c0.2-0.3,0.5-0.6,0.8-0.8
		c0.3-0.2,0.7-0.3,1.1-0.3c0.4,0,0.8,0.1,1.1,0.3c0.3,0.2,0.6,0.4,0.8,0.8c0.2,0.3,0.3,0.7,0.3,1.1s-0.1,0.8-0.3,1.1
		c-0.2,0.3-0.5,0.6-0.8,0.8c-0.3,0.2-0.7,0.3-1.1,0.3C33.5,281.3,33.1,281.2,32.8,281z M34.8,280.1c0.2-0.2,0.4-0.6,0.4-0.9
		s-0.1-0.7-0.4-0.9c-0.2-0.2-0.5-0.4-0.9-0.4c-0.4,0-0.7,0.1-0.9,0.4s-0.3,0.6-0.3,0.9s0.1,0.7,0.3,0.9c0.2,0.2,0.5,0.4,0.9,0.4
		C34.3,280.4,34.6,280.3,34.8,280.1z"/>
	<path fill="#FFFFFF" d="M41.3,280c0,0.4-0.1,0.7-0.4,0.9c-0.3,0.2-0.7,0.3-1.2,0.3h-2.1V277h2c0.5,0,0.9,0.1,1.2,0.3
		c0.3,0.2,0.4,0.5,0.4,0.8c0,0.2-0.1,0.4-0.2,0.6c-0.1,0.2-0.3,0.3-0.5,0.4C41,279.2,41.3,279.5,41.3,280z M38.4,278.8h1
		c0.5,0,0.8-0.2,0.8-0.5c0-0.3-0.3-0.5-0.8-0.5h-1V278.8z M40.4,280c0-0.2-0.1-0.3-0.2-0.4c-0.1-0.1-0.3-0.1-0.6-0.1h-1.1v1.1h1.1
		C40.1,280.5,40.4,280.3,40.4,280z"/>
	<path fill="#FFFFFF" d="M46,278.8c0.3,0.2,0.4,0.6,0.4,1c0,0.5-0.2,0.8-0.5,1.1c-0.3,0.3-0.7,0.4-1.3,0.4l-1.9,0V277h1v1.4l1.1,0
		C45.3,278.4,45.7,278.5,46,278.8z M45.2,280.3c0.2-0.1,0.2-0.3,0.2-0.5c0-0.2-0.1-0.4-0.2-0.5s-0.4-0.2-0.7-0.2l-0.8,0v1.4l0.8,0
		C44.8,280.5,45,280.4,45.2,280.3z M46.9,277h1v4.2h-1V277z"/>
	<path fill="#FFFFFF" d="M55.7,277v4.2h-6.1V277h1v3.3h1.6V277h1v3.3h1.6V277H55.7z"/>
	<path fill="#FFFFFF" d="M61.3,279.4H58c0.1,0.3,0.2,0.5,0.4,0.7c0.2,0.2,0.5,0.3,0.9,0.3c0.5,0,0.8-0.2,1.1-0.5l0.5,0.6
		c-0.2,0.2-0.4,0.4-0.7,0.5s-0.6,0.2-1,0.2c-0.5,0-0.9-0.1-1.2-0.3c-0.3-0.2-0.6-0.4-0.8-0.8c-0.2-0.3-0.3-0.7-0.3-1.1
		c0-0.4,0.1-0.8,0.3-1.1c0.2-0.3,0.4-0.6,0.8-0.8c0.3-0.2,0.7-0.3,1.1-0.3c0.4,0,0.8,0.1,1.1,0.3s0.6,0.4,0.7,0.8
		c0.2,0.3,0.3,0.7,0.3,1.1C61.3,279.2,61.3,279.3,61.3,279.4z M58.4,278c-0.2,0.2-0.3,0.4-0.4,0.7h2.4c0-0.3-0.2-0.5-0.4-0.7
		s-0.5-0.3-0.8-0.3C58.9,277.8,58.6,277.9,58.4,278z"/>
	<path fill="#FFFFFF" d="M62.8,277h1v1.7h2.1V277h1v4.2h-1v-1.6h-2.1v1.6h-1V277z"/>
	<path fill="#FFFFFF" d="M68.5,277h1v2.7l2.3-2.7h0.9v4.2h-1v-2.7l-2.3,2.7h-0.9V277z"/>
	<path fill="#FFFFFF" d="M78.2,279.4H75c0.1,0.3,0.2,0.5,0.4,0.7c0.2,0.2,0.5,0.3,0.9,0.3c0.5,0,0.8-0.2,1.1-0.5l0.5,0.6
		c-0.2,0.2-0.4,0.4-0.7,0.5s-0.6,0.2-1,0.2c-0.5,0-0.9-0.1-1.2-0.3c-0.3-0.2-0.6-0.4-0.8-0.8c-0.2-0.3-0.3-0.7-0.3-1.1
		c0-0.4,0.1-0.8,0.3-1.1c0.2-0.3,0.4-0.6,0.8-0.8c0.3-0.2,0.7-0.3,1.1-0.3c0.4,0,0.8,0.1,1.1,0.3s0.6,0.4,0.7,0.8
		c0.2,0.3,0.3,0.7,0.3,1.1C78.3,279.2,78.3,279.3,78.2,279.4z M75.4,278c-0.2,0.2-0.3,0.4-0.4,0.7h2.4c0-0.3-0.2-0.5-0.4-0.7
		s-0.5-0.3-0.8-0.3C75.8,277.8,75.6,277.9,75.4,278z"/>
	<path fill="#FFFFFF" d="M87.2,275.7v5.5h-1v-4.6h-2.8v4.6h-1v-5.5H87.2z"/>
	<path fill="#FFFFFF" d="M92.4,277.2c0.3,0.2,0.6,0.4,0.8,0.7c0.2,0.3,0.3,0.7,0.3,1.1s-0.1,0.8-0.3,1.1c-0.2,0.3-0.4,0.6-0.8,0.8
		s-0.7,0.3-1.1,0.3c-0.6,0-1-0.2-1.3-0.6v2h-1V277h0.9v0.5c0.2-0.2,0.4-0.3,0.6-0.4c0.2-0.1,0.5-0.1,0.8-0.1
		C91.7,277,92.1,277.1,92.4,277.2z M92.1,280.1c0.2-0.2,0.3-0.6,0.3-0.9s-0.1-0.7-0.3-0.9s-0.5-0.4-0.9-0.4c-0.2,0-0.4,0.1-0.6,0.2
		c-0.2,0.1-0.3,0.3-0.4,0.5c-0.1,0.2-0.2,0.4-0.2,0.7c0,0.3,0.1,0.5,0.2,0.7c0.1,0.2,0.3,0.3,0.4,0.5c0.2,0.1,0.4,0.2,0.6,0.2
		C91.6,280.4,91.9,280.3,92.1,280.1z"/>
	<path fill="#FFFFFF" d="M95.5,281c-0.3-0.2-0.6-0.4-0.8-0.8c-0.2-0.3-0.3-0.7-0.3-1.1s0.1-0.8,0.3-1.1c0.2-0.3,0.5-0.6,0.8-0.8
		c0.3-0.2,0.7-0.3,1.1-0.3c0.4,0,0.8,0.1,1.1,0.3c0.3,0.2,0.6,0.4,0.8,0.8c0.2,0.3,0.3,0.7,0.3,1.1s-0.1,0.8-0.3,1.1
		c-0.2,0.3-0.5,0.6-0.8,0.8c-0.3,0.2-0.7,0.3-1.1,0.3C96.2,281.3,95.8,281.2,95.5,281z M97.5,280.1c0.2-0.2,0.4-0.6,0.4-0.9
		s-0.1-0.7-0.4-0.9c-0.2-0.2-0.5-0.4-0.9-0.4c-0.4,0-0.7,0.1-0.9,0.4s-0.3,0.6-0.3,0.9s0.1,0.7,0.3,0.9c0.2,0.2,0.5,0.4,0.9,0.4
		C97,280.4,97.3,280.3,97.5,280.1z"/>
	<path fill="#FFFFFF" d="M100.2,277h1v2.7l2.3-2.7h0.9v4.2h-1v-2.7l-2.3,2.7h-0.9V277z"/>
	<path fill="#FFFFFF" d="M109.1,279.4c0.1,0.2,0.2,0.4,0.2,0.6c0,0.3-0.1,0.5-0.3,0.7c-0.2,0.2-0.4,0.3-0.7,0.5
		c-0.3,0.1-0.6,0.2-1,0.2c-0.3,0-0.6,0-0.9-0.1c-0.3-0.1-0.6-0.2-0.8-0.3l0.3-0.7c0.2,0.1,0.4,0.2,0.7,0.3c0.3,0.1,0.5,0.1,0.8,0.1
		c0.3,0,0.6-0.1,0.8-0.2c0.2-0.1,0.3-0.2,0.3-0.4c0-0.2-0.1-0.3-0.2-0.4c-0.1-0.1-0.3-0.1-0.6-0.1h-0.8v-0.7h0.7
		c0.2,0,0.4,0,0.6-0.1s0.2-0.2,0.2-0.4c0-0.2-0.1-0.3-0.2-0.4c-0.2-0.1-0.4-0.1-0.7-0.1c-0.4,0-0.9,0.1-1.3,0.3l-0.2-0.7
		c0.5-0.3,1.1-0.4,1.7-0.4c0.4,0,0.7,0,1,0.1c0.3,0.1,0.5,0.2,0.7,0.4c0.2,0.2,0.2,0.4,0.2,0.6c0,0.2-0.1,0.4-0.2,0.5
		c-0.1,0.2-0.3,0.3-0.5,0.4C108.7,279.1,109,279.2,109.1,279.4z"/>
	<path fill="#FFFFFF" d="M114.5,280c0,0.4-0.1,0.7-0.4,0.9s-0.7,0.3-1.2,0.3h-2.1V277h2c0.5,0,0.9,0.1,1.2,0.3
		c0.3,0.2,0.4,0.5,0.4,0.8c0,0.2-0.1,0.4-0.2,0.6c-0.1,0.2-0.3,0.3-0.5,0.4C114.2,279.2,114.5,279.5,114.5,280z M111.6,278.8h1
		c0.5,0,0.8-0.2,0.8-0.5c0-0.3-0.3-0.5-0.8-0.5h-1V278.8z M113.6,280c0-0.2-0.1-0.3-0.2-0.4c-0.1-0.1-0.3-0.1-0.6-0.1h-1.1v1.1h1.1
		C113.3,280.5,113.6,280.3,113.6,280z"/>
	<path fill="#FFFFFF" d="M116.6,281c-0.3-0.2-0.6-0.4-0.8-0.8c-0.2-0.3-0.3-0.7-0.3-1.1s0.1-0.8,0.3-1.1c0.2-0.3,0.5-0.6,0.8-0.8
		c0.3-0.2,0.7-0.3,1.1-0.3c0.4,0,0.8,0.1,1.1,0.3c0.3,0.2,0.6,0.4,0.8,0.8c0.2,0.3,0.3,0.7,0.3,1.1s-0.1,0.8-0.3,1.1
		c-0.2,0.3-0.5,0.6-0.8,0.8c-0.3,0.2-0.7,0.3-1.1,0.3C117.4,281.3,117,281.2,116.6,281z M118.7,280.1c0.2-0.2,0.4-0.6,0.4-0.9
		s-0.1-0.7-0.4-0.9s-0.5-0.4-0.9-0.4c-0.4,0-0.7,0.1-0.9,0.4c-0.2,0.2-0.3,0.6-0.3,0.9s0.1,0.7,0.3,0.9c0.2,0.2,0.5,0.4,0.9,0.4
		C118.1,280.4,118.4,280.3,118.7,280.1z"/>
	<path fill="#FFFFFF" d="M125.7,280.4v1.8h-0.9v-0.9h-3.2v0.9h-0.9v-1.8h0.2c0.3,0,0.4-0.2,0.5-0.5c0.1-0.3,0.2-0.8,0.2-1.4l0.1-1.4
		h3.4v3.3H125.7z M122.4,279.7c-0.1,0.3-0.2,0.5-0.3,0.7h2v-2.5h-1.6l0,0.7C122.5,279,122.5,279.4,122.4,279.7z"/>
	<path fill="#FFFFFF" d="M127,277h1v2.7l2.3-2.7h0.9v4.2h-1v-2.7l-2.3,2.7H127V277z"/>
	<path fill="#FFFFFF" d="M136.1,277.9h-1.5v3.3h-1v-3.3h-1.5V277h3.9V277.9z"/>
	<path fill="#FFFFFF" d="M140.9,279.4h-3.3c0.1,0.3,0.2,0.5,0.4,0.7c0.2,0.2,0.5,0.3,0.9,0.3c0.5,0,0.8-0.2,1.1-0.5l0.5,0.6
		c-0.2,0.2-0.4,0.4-0.7,0.5s-0.6,0.2-1,0.2c-0.5,0-0.9-0.1-1.2-0.3c-0.3-0.2-0.6-0.4-0.8-0.8c-0.2-0.3-0.3-0.7-0.3-1.1
		c0-0.4,0.1-0.8,0.3-1.1c0.2-0.3,0.4-0.6,0.8-0.8c0.3-0.2,0.7-0.3,1.1-0.3c0.4,0,0.8,0.1,1.1,0.3s0.6,0.4,0.7,0.8
		c0.2,0.3,0.3,0.7,0.3,1.1C141,279.2,141,279.3,140.9,279.4z M138.1,278c-0.2,0.2-0.3,0.4-0.4,0.7h2.4c0-0.3-0.2-0.5-0.4-0.7
		s-0.5-0.3-0.8-0.3C138.5,277.8,138.3,277.9,138.1,278z"/>
	<path fill="#FFFFFF" d="M146.1,277v4.2h-1v-3.3h-1.6l0,0.8c0,0.6-0.1,1-0.2,1.4c-0.1,0.4-0.2,0.7-0.4,0.9s-0.4,0.3-0.7,0.3
		c-0.1,0-0.3,0-0.5-0.1l0-0.8c0.1,0,0.1,0,0.2,0c0.2,0,0.3-0.1,0.4-0.2c0.1-0.2,0.2-0.3,0.2-0.6c0-0.2,0.1-0.5,0.1-0.9l0.1-1.6
		H146.1z"/>
	<path fill="#FFFFFF" d="M151.1,278.8c0.3,0.2,0.4,0.6,0.4,1c0,0.5-0.2,0.8-0.5,1.1s-0.8,0.4-1.3,0.4l-1.9,0V277h1v1.4l1.1,0
		C150.5,278.4,150.9,278.5,151.1,278.8z M150.3,280.3c0.2-0.1,0.2-0.3,0.2-0.5c0-0.2-0.1-0.4-0.2-0.5s-0.4-0.2-0.7-0.2l-0.9,0v1.4
		l0.9,0C150,280.5,150.2,280.4,150.3,280.3z"/>
	<path fill="#FFFFFF" d="M152.8,277h1v1.7h2.1V277h1v4.2h-1v-1.6h-2.1v1.6h-1V277z"/>
	<path fill="#FFFFFF" d="M159.3,281c-0.3-0.2-0.6-0.4-0.8-0.8c-0.2-0.3-0.3-0.7-0.3-1.1s0.1-0.8,0.3-1.1c0.2-0.3,0.5-0.6,0.8-0.8
		c0.3-0.2,0.7-0.3,1.1-0.3c0.4,0,0.8,0.1,1.1,0.3c0.3,0.2,0.6,0.4,0.8,0.8c0.2,0.3,0.3,0.7,0.3,1.1s-0.1,0.8-0.3,1.1
		c-0.2,0.3-0.5,0.6-0.8,0.8c-0.3,0.2-0.7,0.3-1.1,0.3C160,281.3,159.6,281.2,159.3,281z M161.3,280.1c0.2-0.2,0.4-0.6,0.4-0.9
		s-0.1-0.7-0.4-0.9c-0.2-0.2-0.5-0.4-0.9-0.4s-0.7,0.1-0.9,0.4s-0.3,0.6-0.3,0.9s0.1,0.7,0.3,0.9c0.2,0.2,0.5,0.4,0.9,0.4
		S161.1,280.3,161.3,280.1z"/>
	<path fill="#FFFFFF" d="M164.7,281c-0.3-0.2-0.6-0.4-0.8-0.8c-0.2-0.3-0.3-0.7-0.3-1.1s0.1-0.8,0.3-1.1c0.2-0.3,0.5-0.6,0.8-0.8
		c0.3-0.2,0.7-0.3,1.2-0.3c0.4,0,0.8,0.1,1.1,0.3c0.3,0.2,0.5,0.4,0.7,0.7l-0.7,0.4c-0.1-0.2-0.3-0.3-0.4-0.4
		c-0.2-0.1-0.4-0.1-0.6-0.1c-0.4,0-0.7,0.1-0.9,0.4c-0.2,0.2-0.4,0.6-0.4,0.9s0.1,0.7,0.4,0.9c0.2,0.2,0.5,0.4,0.9,0.4
		c0.2,0,0.4,0,0.6-0.1c0.2-0.1,0.3-0.2,0.4-0.4l0.7,0.4c-0.2,0.3-0.4,0.6-0.7,0.7s-0.7,0.3-1.1,0.3C165.4,281.3,165,281.2,164.7,281
		z"/>
	<path fill="#FFFFFF" d="M172.1,277.9h-1.5v3.3h-1v-3.3h-1.5V277h3.9V277.9z"/>
	<path fill="#FFFFFF" d="M173.2,277h1v2.7l2.3-2.7h0.9v4.2h-1v-2.7l-2.3,2.7h-0.9V277z"/>
</g>
<g>
	<linearGradient id="SVGID_2_" gradientUnits="userSpaceOnUse" x1="40.8815" y1="349.6274" x2="172.6168" y2="369.2476">
		<stop  offset="5.004130e-02" style="stop-color:#6BC1CD"/>
		<stop  offset="1" style="stop-color:#A8EBA4"/>
	</linearGradient>
	<path fill="url(#SVGID_2_)" d="M146.9,372.1H50.4c-6.4,0-11.6-5.2-11.6-11.6V356c0-6.4,5.2-11.6,11.6-11.6h96.5
		c6.4,0,11.6,5.2,11.6,11.6v4.5C158.5,366.9,153.3,372.1,146.9,372.1z"/>
	<g>
		<path fill="#FFFFFF" d="M72.7,355.1v5.5h-1v-4.6h-2.8v4.6h-1v-5.5H72.7z"/>
		<path fill="#FFFFFF" d="M78.1,355.3c0.4,0.2,0.6,0.4,0.8,0.7c0.2,0.3,0.3,0.6,0.3,1c0,0.4-0.1,0.7-0.3,1s-0.5,0.5-0.8,0.7
			s-0.8,0.2-1.2,0.2h-1.2v1.6h-1v-5.5h2.2C77.3,355.1,77.7,355.1,78.1,355.3z M77.8,357.8c0.2-0.2,0.3-0.5,0.3-0.8
			c0-0.3-0.1-0.6-0.3-0.8s-0.6-0.3-1-0.3h-1.2v2.2h1.2C77.2,358.1,77.6,358,77.8,357.8z"/>
		<path fill="#FFFFFF" d="M81.6,360.2c-0.4-0.2-0.8-0.6-1.1-1c-0.3-0.4-0.4-0.9-0.4-1.4s0.1-1,0.4-1.4c0.3-0.4,0.6-0.8,1.1-1
			s0.9-0.4,1.5-0.4s1.1,0.1,1.5,0.4c0.4,0.2,0.8,0.6,1.1,1s0.4,0.9,0.4,1.4s-0.1,1-0.4,1.4c-0.3,0.4-0.6,0.8-1.1,1
			c-0.4,0.2-0.9,0.4-1.5,0.4S82.1,360.5,81.6,360.2z M84.1,359.5c0.3-0.2,0.5-0.4,0.7-0.7c0.2-0.3,0.2-0.6,0.2-1s-0.1-0.7-0.2-1
			c-0.2-0.3-0.4-0.5-0.7-0.7c-0.3-0.2-0.6-0.2-1-0.2c-0.4,0-0.7,0.1-1,0.2c-0.3,0.2-0.5,0.4-0.7,0.7c-0.2,0.3-0.2,0.6-0.2,1
			s0.1,0.7,0.2,1s0.4,0.5,0.7,0.7c0.3,0.2,0.6,0.2,1,0.2C83.5,359.7,83.8,359.6,84.1,359.5z"/>
		<path fill="#FFFFFF" d="M92.8,359.7v2h-0.9v-1.2h-4.2v1.2h-0.9l0-2H87c0.3,0,0.6-0.3,0.7-0.8c0.1-0.5,0.2-1.2,0.3-2.1l0.1-1.7h4
			v4.6H92.8z M88.7,358.6c-0.1,0.5-0.2,0.8-0.4,1H91v-3.7h-2.1l0,1C88.8,357.6,88.8,358.2,88.7,358.6z"/>
		<path fill="#FFFFFF" d="M95.2,360.2c-0.4-0.2-0.8-0.6-1.1-1c-0.3-0.4-0.4-0.9-0.4-1.4s0.1-1,0.4-1.4c0.3-0.4,0.6-0.8,1.1-1
			s0.9-0.4,1.5-0.4s1.1,0.1,1.5,0.4c0.4,0.2,0.8,0.6,1.1,1c0.3,0.4,0.4,0.9,0.4,1.4s-0.1,1-0.4,1.4c-0.3,0.4-0.6,0.8-1.1,1
			c-0.4,0.2-0.9,0.4-1.5,0.4S95.6,360.5,95.2,360.2z M97.7,359.5c0.3-0.2,0.5-0.4,0.7-0.7c0.2-0.3,0.2-0.6,0.2-1s-0.1-0.7-0.2-1
			c-0.2-0.3-0.4-0.5-0.7-0.7c-0.3-0.2-0.6-0.2-1-0.2c-0.4,0-0.7,0.1-1,0.2c-0.3,0.2-0.5,0.4-0.7,0.7c-0.2,0.3-0.2,0.6-0.2,1
			s0.1,0.7,0.2,1s0.4,0.5,0.7,0.7c0.3,0.2,0.6,0.2,1,0.2C97,359.7,97.4,359.6,97.7,359.5z"/>
		<path fill="#FFFFFF" d="M105.6,355.1v5.5h-1v-4.6h-2.1l0,1.4c0,0.8-0.1,1.4-0.2,1.9c-0.1,0.5-0.3,0.8-0.5,1.1s-0.5,0.4-0.9,0.4
			c-0.1,0-0.3,0-0.6-0.1l0.1-0.9c0.1,0,0.1,0,0.2,0c0.3,0,0.5-0.2,0.7-0.6c0.1-0.4,0.2-1,0.2-1.8l0.1-2.3H105.6z"/>
		<path fill="#FFFFFF" d="M112.3,358.2h-0.9v2.3h-1v-2.3h-0.9l-1.4,2.3h-1.2l1.7-2.9l-1.6-2.6h1.1l1.3,2.3h1v-2.3h1v2.3h0.9l1.3-2.3
			h1.1l-1.6,2.6l1.7,2.8h-1.2L112.3,358.2z"/>
		<path fill="#FFFFFF" d="M116,355.1h1v3.9l2.9-3.9h0.9v5.5h-1v-3.9l-2.9,3.9H116V355.1z"/>
		<path fill="#FFFFFF" d="M126.7,355.9h-1.8v4.6h-1v-4.6h-1.8v-0.9h4.6V355.9z"/>
		<path fill="#FFFFFF" d="M132,357.3c0.4,0.3,0.5,0.7,0.5,1.3c0,0.6-0.2,1.1-0.6,1.4c-0.4,0.3-0.9,0.5-1.6,0.5H128v-5.5h1v1.9h1.5
			C131.1,356.9,131.6,357.1,132,357.3z M131.2,359.5c0.2-0.2,0.3-0.4,0.3-0.8c0-0.7-0.4-1-1.2-1H129v2.1h1.3
			C130.7,359.7,131,359.6,131.2,359.5z"/>
	</g>
</g>
<g>
	<defs>
		<path id="SVGID_3_" d="M164.9,399.5h-127c-14.4,0-26.1-11.7-26.1-26.1V36.1C11.7,21.7,23.4,10,37.8,10h127
			c14.4,0,26.1,11.7,26.1,26.1v337.3C191,387.8,179.3,399.5,164.9,399.5z"/>
	</defs>
	<clipPath id="SVGID_4_">
		<use xlink:href="#SVGID_3_"  overflow="visible"/>
	</clipPath>
	<g opacity="0.29" clip-path="url(#SVGID_4_)">
		<g opacity="0.25">
			<path fill="#3D3D3D" d="M23,99.2c-4.5-11.7-5.8-24.2,7.2-30c9.7-4.3,17.7,0.9,27.6,2.4c11.2,1.8,22.5-1.1,30.8-9.1
				c15.8-15.1,14-47.9-9.3-54.2c-5.8-1.6-12.1,5.4-8.3,10.8c4.6,6.6,11.9,13.6,9.9,22.5c-3.1,13.4-17.8,12.8-28,10.4
				c-11.5-2.6-22-4.5-32.8,1.6C1.7,64.2-4,90.9,13.5,104.8C17.4,107.8,25.3,105.2,23,99.2L23,99.2z"/>
		</g>
		<g>
			<g>
				<path fill="#E3707F" d="M21,97.2c-4.5-11.7-5.8-24.2,7.2-30c9.7-4.3,17.7,0.9,27.6,2.4c11.2,1.8,22.5-1.1,30.8-9.1
					c15.8-15.1,14-47.9-9.3-54.2c-5.8-1.6-12.1,5.4-8.3,10.8c4.6,6.6,11.9,13.6,9.9,22.5c-3.1,13.4-17.8,12.8-28,10.4
					c-11.5-2.6-22-4.5-32.8,1.6C-0.3,62.2-6,88.9,11.5,102.8C15.4,105.8,23.3,103.2,21,97.2L21,97.2z"/>
			</g>
		</g>
	</g>
	<g opacity="0.36" clip-path="url(#SVGID_4_)">
		<g opacity="0.25">
			<path fill="#3D3D3D" d="M168.5,262.9c-25.2,3.6-42.5,26.6-32.7,52.2c9.1,23.9,40.3,35.2,62.2,21.6c20.3-12.6,26.6-42.4,12.6-61.9
				c-13.5-18.8-47.4-25.6-62.7-5.6c-4.8,6.3,3.2,15.6,10.2,13.3c12.3-4.1,23.9-9.4,35.3,0.7c10.7,9.5,8,27.7-2.7,36.3
				c-11.4,9-29.9,3.7-36.7-8.6c-7.6-13.6,2.1-36.6,16.1-42.3C173.7,267.2,172.3,262.3,168.5,262.9L168.5,262.9z"/>
		</g>
		<g>
			<g>
				<path fill="#8AA9FC" d="M166.5,260.9c-25.2,3.6-42.5,26.6-32.7,52.2c9.1,23.9,40.3,35.2,62.2,21.6
					c20.3-12.6,26.6-42.4,12.6-61.9c-13.5-18.8-47.4-25.6-62.7-5.6c-4.8,6.3,3.2,15.6,10.2,13.3c12.3-4.1,23.9-9.4,35.3,0.7
					c10.7,9.5,8,27.7-2.7,36.3c-11.4,9-29.9,3.7-36.7-8.6c-7.6-13.6,2.1-36.6,16.1-42.3C171.7,265.2,170.3,260.3,166.5,260.9
					L166.5,260.9z"/>
			</g>
		</g>
	</g>
	<g opacity="0.46" clip-path="url(#SVGID_4_)">
		<g opacity="0.25">
			<path fill="#3D3D3D" d="M171.9,81.1c6.9-2.2,12.1-8.2,17.4-12.9c6.2-5.5,12.4-11,18.6-16.5c5.2-4.6-2.4-12.2-7.6-7.6
				c-5.9,5.2-11.7,10.5-17.5,15.8c-5.2,4.7-12.1,9.3-15.1,15.8C166.5,78.3,168.6,82.1,171.9,81.1L171.9,81.1z"/>
		</g>
		<g>
			<g>
				<path fill="#E8947E" d="M169.9,79.1c6.9-2.2,12.1-8.2,17.4-12.9c6.2-5.5,12.4-11,18.6-16.5c5.2-4.6-2.4-12.2-7.6-7.6
					c-5.9,5.2-11.7,10.5-17.5,15.8c-5.2,4.7-12.1,9.3-15.1,15.8C164.5,76.3,166.6,80.1,169.9,79.1L169.9,79.1z"/>
			</g>
		</g>
	</g>
	<g opacity="0.34" clip-path="url(#SVGID_4_)">
		<g opacity="0.25">
			<path fill="#3D3D3D" d="M-5.6,234.3c2.3,6.8,8.4,12,13.2,17.2c5.6,6.1,11.1,12.3,16.8,18.4c4.7,5.1,12.1-2.6,7.5-7.7
				c-5.3-5.8-10.7-11.5-16-17.3c-4.8-5.2-9.5-12-16-14.9C-3,228.8-6.7,230.9-5.6,234.3L-5.6,234.3z"/>
		</g>
		<g>
			<g>
				<path fill="#F5F7FC" d="M-7.6,232.3c2.3,6.8,8.4,12,13.2,17.2c5.6,6.1,11.1,12.3,16.8,18.4c4.7,5.1,12.1-2.6,7.5-7.7
					c-5.3-5.8-10.7-11.5-16-17.3c-4.8-5.2-9.5-12-16-14.9C-5,226.8-8.7,228.9-7.6,232.3L-7.6,232.3z"/>
			</g>
		</g>
	</g>
</g>
<g>
	<g>
		<g>
			<g>
				<polygon fill="#FCB1AD" points="53.1,245.1 53.7,251.6 65.1,253.9 63.9,246.7 				"/>
				<path fill="#8AA9FC" d="M53.7,251.6c0,0-16-0.1-14.9,1c1.2,1.1,27.2,5,27.2,5l-0.9-3.7L53.7,251.6z"/>
				<g>
					<path fill="#38486D" d="M48.6,253.8c-0.1,0-0.3-0.5-0.5-1.1c-0.2-0.6-0.2-1.2-0.1-1.2c0.1,0,0.3,0.5,0.5,1.1
						C48.6,253.2,48.7,253.7,48.6,253.8z"/>
				</g>
				<g>
					<path fill="#38486D" d="M49.9,253.8c-0.1,0-0.3-0.4-0.4-1c-0.1-0.6-0.1-1.1,0-1.1c0.1,0,0.3,0.4,0.4,1
						C50,253.2,50,253.7,49.9,253.8z"/>
				</g>
				<g>
					<path fill="#38486D" d="M51.5,254.1c-0.1,0.1-0.5-0.5-0.7-1.2c-0.2-0.7-0.3-1.4-0.2-1.4c0.1,0,0.3,0.6,0.5,1.3
						C51.4,253.5,51.6,254.1,51.5,254.1z"/>
				</g>
				<g>
					<path fill="#38486D" d="M51.9,252c0,0-0.1-0.1-0.3-0.4c-0.1-0.3-0.3-0.7-0.2-1.2c0-0.3,0.2-0.6,0.3-0.8
						c0.1-0.1,0.2-0.3,0.3-0.4c0.1-0.1,0.1-0.1,0.3-0.2c0.1-0.1,0.3,0,0.4,0.1c0.2,0.3,0,0.5,0,0.7c0,0.2-0.1,0.4-0.2,0.5
						c-0.1,0.4-0.3,0.7-0.6,1c-0.1,0.1-0.1,0.2-0.3,0.3c-0.1,0.1-0.3,0.1-0.5,0.1c-0.3-0.1-0.3-0.3-0.5-0.4c-0.2-0.3-0.4-0.6-0.6-1
						c-0.1-0.2-0.1-0.3-0.2-0.5c0-0.2,0-0.5,0.3-0.6c0.3-0.1,0.5,0.1,0.6,0.2c0.1,0.1,0.2,0.2,0.2,0.4c0.5,1,0.3,1.7,0.3,1.7
						c-0.1,0,0-0.7-0.5-1.5c-0.1-0.2-0.3-0.5-0.4-0.4c0,0-0.1,0.1-0.1,0.2c0,0.1,0.1,0.3,0.1,0.4c0.1,0.3,0.3,0.6,0.5,0.8
						c0.1,0.1,0.3,0.3,0.3,0.3c0,0,0.1,0,0.2-0.2c0.2-0.3,0.4-0.6,0.5-1c0.1-0.2,0.1-0.3,0.2-0.5c0-0.2,0.1-0.3,0-0.4
						c0.1,0,0,0-0.2,0.1c-0.1,0.1-0.2,0.2-0.3,0.3c-0.2,0.2-0.3,0.5-0.3,0.7c-0.1,0.5,0,0.9,0,1.1C51.9,251.9,52,252,51.9,252z"/>
				</g>
				<g>
					<path fill="#38486D" d="M65.7,256.7c0,0-0.1,0-0.3,0c-0.2,0-0.5,0-0.8-0.1c-0.8-0.1-1.7-0.2-2.9-0.3c-2.4-0.3-5.8-0.7-9.5-1.3
						c-3.7-0.6-7.1-1.2-9.5-1.7c-1.1-0.2-2.1-0.4-2.9-0.6c-0.3-0.1-0.5-0.1-0.8-0.2c-0.2,0-0.3-0.1-0.3-0.1c0,0,0.1,0,0.3,0
						c0.2,0,0.5,0.1,0.8,0.1c0.8,0.1,1.7,0.3,2.9,0.6c2.4,0.5,5.8,1.1,9.5,1.6c3.7,0.6,7.1,1,9.5,1.3c1.2,0.1,2.1,0.3,2.9,0.4
						c0.3,0,0.6,0.1,0.8,0.1C65.6,256.7,65.7,256.7,65.7,256.7z"/>
				</g>
				<g>
					<path fill="#38486D" d="M61.8,256.4c0,0,0.3-1,1.4-1.5c1.1-0.5,2.1-0.2,2.1-0.2c0,0.1-1-0.2-2,0.3
						C62.3,255.6,61.9,256.5,61.8,256.4z"/>
				</g>
				<g>
					<path fill="#38486D" d="M59.9,255.1c0,0-0.9-0.1-2-0.3c-1.1-0.2-2-0.5-2-0.5c0,0,0.9,0.1,2,0.3
						C59.1,254.9,59.9,255.1,59.9,255.1z"/>
				</g>
			</g>
			<polygon fill="#FFFFFF" points="53.7,251.6 53.6,250.2 64.7,251.2 65.1,253.9 			"/>
		</g>
		<g>
			<g>
				<polygon fill="#FCB1AD" points="92.6,247.1 95,253.2 106.6,252.3 103.5,245.7 				"/>
				<path fill="#8AA9FC" d="M95,253.2c0,0-15.4,4.3-14,5.1c1.4,0.8,27.5-2.7,27.5-2.7l-1.9-3.2L95,253.2z"/>
				<g>
					<path fill="#38486D" d="M90.6,256.7c-0.1,0.1-0.4-0.4-0.8-0.9c-0.3-0.6-0.5-1.1-0.4-1.1c0.1-0.1,0.4,0.4,0.8,0.9
						C90.5,256.1,90.7,256.7,90.6,256.7z"/>
				</g>
				<g>
					<path fill="#38486D" d="M91.9,256.3c-0.1,0.1-0.4-0.3-0.7-0.9c-0.3-0.5-0.4-1-0.3-1.1c0.1-0.1,0.4,0.3,0.7,0.9
						C91.9,255.8,92,256.3,91.9,256.3z"/>
				</g>
				<g>
					<path fill="#38486D" d="M93.5,256.2c-0.1,0.1-0.6-0.3-1-1c-0.4-0.6-0.6-1.2-0.5-1.3c0.1-0.1,0.4,0.4,0.9,1.1
						C93.3,255.6,93.6,256.1,93.5,256.2z"/>
				</g>
				<g>
					<path fill="#38486D" d="M93.4,254.1c0,0-0.2,0-0.4-0.3c-0.2-0.2-0.5-0.6-0.5-1.1c0-0.3,0-0.6,0.1-0.9c0.1-0.2,0.1-0.3,0.2-0.5
						c0-0.1,0.1-0.2,0.2-0.2c0.1-0.1,0.3-0.1,0.5,0c0.2,0.2,0.2,0.5,0.2,0.6c0,0.2,0,0.4,0,0.6c0,0.4-0.1,0.8-0.2,1.2
						c0,0.1-0.1,0.2-0.2,0.3c-0.1,0.1-0.3,0.2-0.4,0.2c-0.3-0.1-0.4-0.2-0.6-0.3c-0.3-0.2-0.6-0.5-0.8-0.8c-0.1-0.1-0.2-0.3-0.3-0.5
						c-0.1-0.2-0.1-0.5,0.1-0.6c0.2-0.2,0.5-0.1,0.6,0c0.1,0.1,0.2,0.2,0.3,0.3c0.7,0.8,0.8,1.5,0.7,1.5c-0.1,0-0.2-0.6-0.9-1.3
						c-0.2-0.2-0.4-0.4-0.5-0.3c0,0-0.1,0.1,0,0.2c0.1,0.1,0.2,0.2,0.3,0.4c0.2,0.2,0.5,0.5,0.7,0.7c0.1,0.1,0.3,0.2,0.4,0.2
						c0,0,0.1-0.1,0.2-0.2c0.1-0.3,0.2-0.7,0.2-1.1c0-0.2,0-0.3,0-0.5c0-0.2,0-0.3,0-0.4c0,0,0,0-0.1,0.1c-0.1,0.1-0.1,0.2-0.2,0.4
						c-0.1,0.3-0.1,0.5-0.1,0.8c0,0.5,0.2,0.8,0.4,1.1C93.3,254,93.4,254.1,93.4,254.1z"/>
				</g>
				<g>
					<path fill="#38486D" d="M107.9,254.8c0,0-0.1,0-0.3,0.1c-0.2,0-0.5,0.1-0.8,0.2c-0.8,0.1-1.7,0.3-2.9,0.5
						c-2.4,0.4-5.8,0.9-9.5,1.4c-3.7,0.5-7.1,0.8-9.6,1c-1.2,0.1-2.1,0.2-2.9,0.2c-0.3,0-0.6,0-0.8,0c-0.2,0-0.3,0-0.3,0
						c0,0,0.1,0,0.3,0c0.2,0,0.5,0,0.8-0.1c0.8-0.1,1.7-0.2,2.9-0.3c2.5-0.2,5.8-0.6,9.6-1c3.7-0.5,7.1-1,9.5-1.3
						c1.2-0.2,2.1-0.3,2.9-0.5c0.3,0,0.6-0.1,0.8-0.1C107.8,254.8,107.9,254.8,107.9,254.8z"/>
				</g>
				<g>
					<path fill="#38486D" d="M104.1,255.6c0,0,0-1,1-1.9c0.9-0.8,2-0.8,2-0.7c0,0-1,0.1-1.9,0.9
						C104.3,254.6,104.1,255.6,104.1,255.6z"/>
				</g>
				<g>
					<path fill="#38486D" d="M101.9,254.9c0,0-0.9,0.1-2,0.2c-1.1,0.1-2,0.1-2,0.1c0,0,0.9-0.1,2-0.2
						C101,254.9,101.9,254.8,101.9,254.9z"/>
				</g>
			</g>
			<polygon fill="#FFFFFF" points="95,253.2 94.5,251.9 105.5,249.8 106.6,252.3 			"/>
		</g>
		<path fill="#6A437C" d="M115.3,71.8c1.6-1.4,3.1-2.3,5-2.7c1.9-0.4,3.9-0.2,5.9,0.1c1.8,0.2,3.6,0.5,5.2,1.2
			c1.6,0.7,3.2,1.9,3.9,3.5c0.6,1.4,0.6,3,0.8,4.6c0.2,1.5,0.7,3.2,2,4.1c1.3,0.9,3.1,0.7,4.5,1.4c2,0.9,3.1,3.2,3.2,5.4
			s-0.6,4.4-1.4,6.4c2.4,0.2,4.9,0.4,7.1,1.5c2.2,1.1,4,3.1,4.2,5.6c0.1,2.3-1.2,4.4-2.5,6.3c2.1-1.1,4.8,0.1,5.9,2.1
			c1.1,2.1,0.6,4.7-0.8,6.6c-1.4,1.9-3.6,3-5.8,3.6c-2.2,0.6-4.6,0.6-6.9,0.6c-5.3,0-10.6,0-15.8-0.9c-5.2-0.9-10.4-2.7-14.7-5.8
			c-2.1-1.5-4-3.4-4.8-5.8c-0.9-2.4-0.4-5.4,1.6-7c0.5-0.4,1.1-0.7,1.3-1.3c0.5-1.1-0.5-2.2-1.5-2.8c-1-0.5-2.2-0.9-2.9-1.8
			c-0.8-1.2-0.3-2.9,0.6-4.1c0.9-1.2,2.1-2,3-3.2c1.8-2.5,1.8-5.8,1.8-8.9C114.1,77.4,113,73.9,115.3,71.8"/>
		<path fill="#FFFFFF" d="M151.9,117.4c-2.4-4.2-5-7.6-6.9-8.9l0,0c0,0-5.8-5.9-23-5.9c-4.4,0-8,1.6-10.5,3.7l0,0l0,0
			c-0.2,0.2,0.2-0.2,0,0L79.9,135l3.8,17.2l26.1-21l1.2,11.7l-5.3,26.4l38.4,0.9c0,0,0-3.8,0-9.5c8.8-0.3,17.6-1.1,20-3
			C169.6,153.4,155,122.6,151.9,117.4z M144.8,146.8c0-3.3-1.8-13.8-1.8-17.1l6.3,16.3L144.8,146.8z"/>
		<path fill="#312A77" d="M77.2,169.4H56.4c0,0-8.2,1.9-8,10.3c0.2,8.4,0,67.4,0,67.4h21.4l-1.2-58.7l14.1-0.8L77.2,169.4z"/>
		<path fill="#3E308E" d="M74.5,169.4c0,0-10.3,2.7-8.3,14.3c2,11.7,19.1,64.9,19.1,64.9l24.9-1.7l-17.5-54.5h34.9
			c8,0,14.9-5.7,16.3-13.6c0.4-2.6,0.6-5.7,0.3-9.4H74.5z"/>
		<path fill="#F9B9B4" d="M135.9,79.6l-0.4,5.6c0,0,4.4,0.6,3.1,4.6c-1.3,4-4.3,2.3-4.3,2.3s-0.8,10.3-11.3,7
			c-8.4-2.6-7.8-13.6-6.8-22.9c0.4-3.5,3.7-5.9,7.1-5.2l7,1.4C133.8,73,136.1,76.1,135.9,79.6z"/>
		<path fill="#F9B9B4" d="M135.4,89.5l-2.8,15.1c-0.6,3.4-4,5.6-7.4,4.8l0,0c-3.1-0.7-5.1-3.8-4.6-7l1.5-8.7L135.4,89.5z"/>
		<g>
			<path fill="#251A51" d="M123.7,89.7c0,0-0.1,0.1-0.4,0.2c-0.2,0.1-0.6,0-0.9-0.4c-0.3-0.4-0.3-0.9-0.2-1.6
				c0.1-0.7,0.1-1.4,0.2-2.1c0.1-1.5,0.2-2.8,0.3-3.8c0.1-1,0.1-1.6,0-1.6c-0.1,0-0.2,0.6-0.3,1.6c-0.1,1-0.3,2.3-0.4,3.8
				c-0.1,0.7-0.1,1.4-0.2,2.1c-0.1,0.6,0,1.3,0.3,1.8c0.4,0.4,0.9,0.5,1.2,0.3C123.7,89.9,123.8,89.7,123.7,89.7z"/>
		</g>
		<g>
			<path fill="#251A51" d="M119.9,97.7c0,0,0.4,0.5,1.3,0.9c0.9,0.5,2.2,0.9,3.7,1c1.5,0,2.9-0.4,3.7-0.8c0.9-0.4,1.3-0.9,1.3-0.9
				c0-0.1-0.5,0.3-1.4,0.6c-0.9,0.4-2.2,0.7-3.6,0.7c-1.4,0-2.7-0.4-3.6-0.8C120.5,98,120,97.7,119.9,97.7z"/>
		</g>
		<g>
			<path fill="#251A51" d="M122.4,91.8c0,0,0.1,0.3,0.6,0.6c0.4,0.3,1.2,0.5,2.1,0.3c0.8-0.3,1.3-0.9,1.5-1.4
				c0.2-0.5,0.1-0.9,0.1-0.9c-0.1,0-0.1,0.3-0.3,0.7c-0.2,0.4-0.7,1-1.4,1.2c-0.7,0.2-1.4,0.1-1.8-0.1
				C122.7,92,122.5,91.8,122.4,91.8z"/>
		</g>
		<g>
			<path fill="#251A51" d="M126.2,90.2c0,0.1,0.4,0.2,0.8,0.5c0.4,0.3,0.6,0.7,0.7,0.6c0.1,0,0-0.6-0.4-0.9
				C126.7,90.1,126.2,90.1,126.2,90.2z"/>
		</g>
		<g>
			<path fill="#251A51" d="M135.8,90.3c0,0,0.3,0.1,0.7,0c0.2-0.1,0.5-0.3,0.6-0.6c0.1-0.1,0.1-0.3,0-0.5c0-0.2-0.2-0.4-0.4-0.4
				c-0.3-0.1-0.6,0-0.8,0.2l0.3,0.2c0.3-0.8,0.5-1.5,0.5-1.5c-0.1,0-0.4,0.5-0.8,1.4l0.3,0.2c0-0.1,0.2-0.1,0.3-0.1
				c0.2,0.1,0.2,0.3,0.2,0.5c-0.1,0.2-0.2,0.3-0.3,0.4C136,90.3,135.8,90.3,135.8,90.3z"/>
		</g>
		<g>
			<path fill="#251A51" d="M118.8,83.1c0.1,0,0.3-0.3,0.4-0.8c0.1-0.5,0.1-0.8,0-0.9c-0.1,0-0.3,0.3-0.4,0.8
				C118.7,82.7,118.7,83,118.8,83.1z"/>
		</g>
		<g>
			<path fill="#251A51" d="M127.1,83.9c0.1,0,0.3-0.3,0.4-0.8c0.1-0.5,0.1-0.9,0-0.9c-0.1,0-0.3,0.3-0.4,0.8
				C127,83.5,127,83.9,127.1,83.9z"/>
		</g>
		<g>
			<ellipse fill="#F5F7FC" cx="66" cy="105.3" rx="12.2" ry="12.3"/>
			<polygon fill="#F5F7FC" points="76.8,118.5 71.1,115.7 75.8,112.3 			"/>
		</g>
		<g>
			<linearGradient id="SVGID_5_" gradientUnits="userSpaceOnUse" x1="55.5468" y1="151.8757" x2="128.762" y2="151.8757">
				<stop  offset="0" style="stop-color:#E58F7E"/>
				<stop  offset="0.1391" style="stop-color:#E4857E"/>
				<stop  offset="0.6977" style="stop-color:#E0637F"/>
				<stop  offset="1" style="stop-color:#DE567F"/>
			</linearGradient>
			<polygon fill="url(#SVGID_5_)" points="55.5,134.5 62.9,169.3 128.8,169.3 128.8,167.5 103.6,167.8 96.1,134.5 			"/>
			<linearGradient id="SVGID_6_" gradientUnits="userSpaceOnUse" x1="88.4646" y1="128.9876" x2="95.3526" y2="180.9917">
				<stop  offset="0" style="stop-color:#E58F7E"/>
				<stop  offset="0.1391" style="stop-color:#E4857E"/>
				<stop  offset="0.6977" style="stop-color:#E0637F"/>
				<stop  offset="1" style="stop-color:#DE567F"/>
			</linearGradient>
			<polygon fill="url(#SVGID_6_)" points="54,134.5 61.4,169.3 128.8,169.3 128.8,167.5 102,167.8 95.3,134.5 			"/>
			<path opacity="0.24" fill="#F5F7FC" d="M81.9,151.2c0,2.2-1.8,4-4,4c-2.2,0-4-1.8-4-4c0-2.2,1.8-4,4-4
				C80.2,147.2,81.9,149,81.9,151.2z"/>
			<ellipse opacity="0.71" fill="#F5F7FC" cx="77.9" cy="151.2" rx="2.5" ry="2.5"/>
		</g>
		<path fill="#FCB1AD" d="M124.7,153.8h-12.8c0,0-7.9,7-6.5,7.4c1.4,0.3,6.2-4.4,6.2-4.4l-3.7,8.1c0,0,5.6-0.8,7.4-2.3
			c1.8-1.5,3.5-2.7,3.5-2.7l7.3,0.7L124.7,153.8z"/>
		<g opacity="0.45">
			<path fill="#251A51" d="M150.1,145.8c0,0-0.4,0.1-1,0.3c-0.8,0.2-1.7,0.4-2.9,0.6c-2.4,0.5-5.8,1.3-9.4,2.3
				c-3.6,1-6.9,1.9-9.3,2.6c-1.2,0.3-2.2,0.6-2.8,0.8c-0.7,0.2-1,0.2-1.1,0.2c0,0,0.4-0.2,1-0.4c0.7-0.2,1.7-0.5,2.8-0.9
				c2.4-0.7,5.7-1.7,9.3-2.7c3.7-1,7-1.7,9.5-2.2c1.2-0.2,2.2-0.4,2.9-0.5C149.7,145.8,150,145.7,150.1,145.8z"/>
		</g>
		<g opacity="0.45">
			<path fill="#251A51" d="M142.7,129c0,0,0.6,0.9,1.2,2.4c0.6,1.5,1.4,3.6,2.3,6c0.8,2.3,1.6,4.4,2.2,6c0.6,1.5,1,2.5,0.9,2.5
				c0,0-0.6-0.9-1.2-2.4c-0.6-1.5-1.4-3.6-2.3-6c-0.8-2.3-1.6-4.4-2.2-6C143,129.9,142.6,129,142.7,129z"/>
		</g>
		<g opacity="0.45">
			<path fill="#251A51" d="M132.5,103.4c0,0,0.1,0.3,0,0.8c0,0.5-0.2,1.3-0.6,2.1c-0.4,0.8-1.1,1.8-2.1,2.5c-1,0.7-2.4,1.1-3.9,1
				c-1.4-0.1-2.8-0.6-3.7-1.5c-1-0.8-1.5-1.8-1.9-2.7c-0.3-0.9-0.4-1.6-0.4-2.2c0-0.5,0.1-0.8,0.1-0.8c0.1,0-0.1,1.2,0.5,2.9
				c0.3,0.8,0.9,1.8,1.8,2.5c0.9,0.8,2.2,1.3,3.5,1.3c1.4,0.1,2.7-0.3,3.6-0.9c1-0.6,1.7-1.5,2.1-2.3
				C132.5,104.5,132.4,103.3,132.5,103.4z"/>
		</g>
		<g opacity="0.45">
			<path fill="#251A51" d="M127.3,161.7c-0.1,0-0.8-2-1.6-4.6c-0.8-2.6-1.3-4.7-1.2-4.7c0.1,0,0.8,2,1.6,4.6
				C126.9,159.5,127.4,161.7,127.3,161.7z"/>
		</g>
		<g opacity="0.45">
			<path fill="#251A51" d="M151.7,160.3c0,0.1-5.4,0.7-12,1.3c-6.7,0.6-12.1,1-12.1,0.9c0-0.1,5.4-0.7,12-1.3
				C146.2,160.6,151.6,160.2,151.7,160.3z"/>
		</g>
		<g opacity="0.51">
			<path fill="#E3707F" d="M119.7,133.7c-0.4-1.1-0.6-2.3,0.7-2.9c0.9-0.4,1.7,0.1,2.6,0.2c1.1,0.2,2.1-0.1,2.9-0.9
				c1.5-1.4,1.3-4.6-0.9-5.2c-0.6-0.2-1.2,0.5-0.8,1c0.4,0.6,1.1,1.3,0.9,2.1c-0.3,1.3-1.7,1.2-2.7,1c-1.1-0.3-2.1-0.4-3.1,0.2
				c-1.7,1-2.3,3.5-0.6,4.9C119.2,134.5,119.9,134.3,119.7,133.7L119.7,133.7z"/>
		</g>
		<g opacity="0.51">
			<path fill="#8AA9FC" d="M139,156.6c-0.7,1-1.6,1.8-2.7,1.1c-0.9-0.5-0.9-1.4-1.3-2.3c-0.5-1-1.3-1.7-2.4-1.9
				c-2-0.4-4.5,1.5-3.7,3.7c0.2,0.5,1.1,0.7,1.3,0.1c0.3-0.7,0.4-1.7,1.2-2c1.2-0.5,2,0.7,2.3,1.6c0.4,1,0.8,2,1.9,2.5
				c1.8,0.9,4.2-0.1,4.3-2.2C140,156.5,139.3,156.1,139,156.6L139,156.6z"/>
		</g>
		<g opacity="0.51">
			<path fill="#E3707F" d="M151.6,128.4c-0.7,1-1.6,1.8-2.7,1.1c-0.9-0.5-0.9-1.4-1.3-2.3c-0.5-1-1.3-1.7-2.4-1.9
				c-2-0.4-4.5,1.5-3.7,3.7c0.2,0.5,1.1,0.7,1.3,0.1c0.3-0.7,0.4-1.7,1.2-2c1.2-0.5,2,0.7,2.3,1.6c0.4,1,0.8,2,1.9,2.5
				c1.8,0.9,4.2-0.1,4.3-2.2C152.5,128.4,151.9,127.9,151.6,128.4L151.6,128.4z"/>
		</g>
		<g opacity="0.51">
			<path fill="#89CFC6" d="M114.6,132.2c1.1,0.6,1.9,1.4,1.3,2.6c-0.4,0.9-1.3,1-2.1,1.6c-0.9,0.6-1.6,1.5-1.7,2.6
				c-0.2,2.1,2,4.3,4.1,3.3c0.5-0.3,0.5-1.1-0.1-1.3c-0.7-0.2-1.7-0.2-2.1-1c-0.6-1.2,0.5-2,1.4-2.5c1-0.5,1.9-1.1,2.3-2.2
				c0.7-1.9-0.6-4.2-2.7-4.1C114.4,131.2,114,131.9,114.6,132.2L114.6,132.2z"/>
		</g>
		<g opacity="0.51">
			<path fill="#EDC483" d="M100.2,123.8c1.1,0.6,1.9,1.4,1.3,2.6c-0.4,0.9-1.3,1-2.1,1.6c-0.9,0.6-1.6,1.5-1.7,2.6
				c-0.2,2.1,2,4.3,4.1,3.3c0.5-0.3,0.5-1.1-0.1-1.3c-0.7-0.2-1.7-0.2-2.1-1c-0.6-1.2,0.5-2,1.4-2.5c1-0.5,1.9-1.1,2.3-2.2
				c0.7-1.9-0.6-4.2-2.7-4.1C100,122.8,99.6,123.5,100.2,123.8L100.2,123.8z"/>
		</g>
		<g opacity="0.51">
			<path fill="#8AA9FC" d="M131.9,145.3c-1,0.7-2.1,1.1-2.9,0c-0.6-0.8-0.3-1.7-0.4-2.6c-0.1-1.1-0.6-2.1-1.6-2.6
				c-1.8-1.1-4.7-0.2-4.8,2.1c0,0.6,0.8,1,1.2,0.5c0.5-0.6,1-1.4,1.8-1.4c1.3,0,1.6,1.4,1.6,2.3c0,1.1,0.1,2.1,0.9,3
				c1.4,1.5,4,1.4,4.9-0.6C132.8,145.6,132.4,145,131.9,145.3L131.9,145.3z"/>
		</g>
		<g opacity="0.51">
			<path fill="#E8947E" d="M134.8,129.3c0.8-0.3,1.4-1,2-1.5c0.7-0.6,1.5-1.3,2.2-1.9c0.6-0.5-0.3-1.4-0.9-0.9
				c-0.7,0.6-1.4,1.2-2,1.8c-0.6,0.6-1.4,1.1-1.8,1.9C134.2,129,134.4,129.5,134.8,129.3L134.8,129.3z"/>
		</g>
		<g opacity="0.51">
			<path fill="#E8947E" d="M132.3,111.8c0.8-0.3,1.4-1,2-1.5c0.7-0.6,1.5-1.3,2.2-1.9c0.6-0.5-0.3-1.4-0.9-0.9
				c-0.7,0.6-1.4,1.2-2,1.8c-0.6,0.6-1.4,1.1-1.8,1.9C131.6,111.4,131.9,111.9,132.3,111.8L132.3,111.8z"/>
		</g>
		<g opacity="0.51">
			<path fill="#E8947E" d="M117.9,166.6c0.8-0.3,1.4-1,2-1.5c0.7-0.6,1.5-1.3,2.2-1.9c0.6-0.5-0.3-1.4-0.9-0.9
				c-0.7,0.6-1.4,1.2-2,1.8c-0.6,0.6-1.4,1.1-1.8,1.9C117.2,166.3,117.5,166.7,117.9,166.6L117.9,166.6z"/>
		</g>
		<g opacity="0.51">
			<path fill="#E8947E" d="M93.3,127.7c0.8-0.3,1.4-1,2-1.5c0.7-0.6,1.5-1.3,2.2-1.9c0.6-0.5-0.3-1.4-0.9-0.9
				c-0.7,0.6-1.4,1.2-2,1.8c-0.6,0.6-1.4,1.1-1.8,1.9C92.6,127.4,92.9,127.8,93.3,127.7L93.3,127.7z"/>
		</g>
		<g opacity="0.51">
			<path fill="#E8947E" d="M144.9,155.9c0.5,0.7,1.4,1,2.1,1.4c0.8,0.5,1.7,0.9,2.5,1.4c0.7,0.4,1.2-0.7,0.5-1.1
				c-0.8-0.4-1.6-0.9-2.4-1.3c-0.7-0.4-1.5-1-2.3-1C144.9,155.2,144.6,155.6,144.9,155.9L144.9,155.9z"/>
		</g>
		<g opacity="0.51">
			<path fill="#251A51" d="M131,123.7c0.5,0,1-0.4,0.9-0.9c0-0.5-0.4-0.9-0.9-0.9c-0.5,0-1,0.4-0.9,0.9
				C130.1,123.3,130.5,123.7,131,123.7L131,123.7z"/>
		</g>
		<g opacity="0.51">
			<path fill="#251A51" d="M110.3,126.4c0.5,0,1-0.4,0.9-0.9c0-0.5-0.4-0.9-0.9-0.9c-0.5,0-1,0.4-0.9,0.9
				C109.4,125.9,109.8,126.4,110.3,126.4L110.3,126.4z"/>
		</g>
		<g opacity="0.51">
			<path fill="#251A51" d="M146.4,115.9c0.5,0,1-0.4,0.9-0.9c0-0.5-0.4-0.9-0.9-0.9c-0.5,0-1,0.4-0.9,0.9
				C145.5,115.4,145.9,115.9,146.4,115.9L146.4,115.9z"/>
		</g>
		<g opacity="0.51">
			<path fill="#251A51" d="M150.1,151.5c0.5,0,1-0.4,0.9-0.9c0-0.5-0.4-0.9-0.9-0.9c-0.5,0-1,0.4-0.9,0.9
				C149.1,151,149.5,151.5,150.1,151.5L150.1,151.5z"/>
		</g>
		<g opacity="0.51">
			<path fill="#251A51" d="M123.4,135.5c0.5,0,1-0.4,0.9-0.9c0-0.5-0.4-0.9-0.9-0.9c-0.5,0-1,0.4-0.9,0.9
				C122.5,135,122.8,135.5,123.4,135.5L123.4,135.5z"/>
		</g>
		<g opacity="0.51">
			<path fill="#251A51" d="M148.2,136.8c0.5,0,1-0.4,0.9-0.9c0-0.5-0.4-0.9-0.9-0.9c-0.5,0-1,0.4-0.9,0.9
				C147.3,136.4,147.7,136.8,148.2,136.8L148.2,136.8z"/>
		</g>
		<g opacity="0.51">
			<path fill="#8AA9FC" d="M136.3,114.6c-1.8,0.3-3.1,1.9-2.4,3.8c0.7,1.7,2.9,2.5,4.5,1.6c1.5-0.9,1.9-3.1,0.9-4.5
				c-1-1.4-3.4-1.9-4.5-0.4c-0.3,0.5,0.2,1.1,0.7,1c0.9-0.3,1.7-0.7,2.6,0.1c0.8,0.7,0.6,2-0.2,2.6c-0.8,0.7-2.2,0.3-2.7-0.6
				c-0.6-1,0.1-2.6,1.2-3.1C136.6,114.9,136.5,114.5,136.3,114.6L136.3,114.6z"/>
		</g>
		<g opacity="0.51">
			<path fill="#EDC483" d="M154.1,135.5c-1.8,0.3-3.1,1.9-2.4,3.8c0.7,1.7,2.9,2.5,4.5,1.6c1.5-0.9,1.9-3.1,0.9-4.5
				c-1-1.4-3.4-1.9-4.5-0.4c-0.3,0.5,0.2,1.1,0.7,1c0.9-0.3,1.7-0.7,2.6,0.1c0.8,0.7,0.6,2-0.2,2.6c-0.8,0.7-2.2,0.3-2.7-0.6
				c-0.6-1,0.1-2.6,1.2-3.1C154.5,135.8,154.4,135.5,154.1,135.5L154.1,135.5z"/>
		</g>
		<g opacity="0.51">
			<path fill="#E3707F" d="M106.3,115.9c-1.8,0.3-3.1,1.9-2.4,3.8c0.7,1.7,2.9,2.5,4.5,1.6c1.5-0.9,1.9-3.1,0.9-4.5
				c-1-1.4-3.4-1.9-4.5-0.4c-0.3,0.5,0.2,1.1,0.7,1c0.9-0.3,1.7-0.7,2.6,0.1c0.8,0.7,0.6,2-0.2,2.6c-0.8,0.7-2.2,0.3-2.7-0.6
				c-0.6-1,0.1-2.6,1.2-3.1C106.7,116.2,106.6,115.8,106.3,115.9L106.3,115.9z"/>
		</g>
		<g opacity="0.51">
			<path fill="#EDC483" d="M118.3,145c-1.8,0.3-3.1,1.9-2.4,3.8c0.7,1.7,2.9,2.5,4.5,1.6c1.5-0.9,1.9-3.1,0.9-4.5
				c-1-1.4-3.4-1.9-4.5-0.4c-0.3,0.5,0.2,1.1,0.7,1c0.9-0.3,1.7-0.7,2.6,0.1c0.8,0.7,0.6,2-0.2,2.6c-0.8,0.7-2.2,0.3-2.7-0.6
				c-0.6-1,0.1-2.6,1.2-3.1C118.7,145.3,118.6,144.9,118.3,145L118.3,145z"/>
		</g>
		<g opacity="0.51">
			<path fill="#6E3281" d="M126.3,120.3c0.7-1.4,1.4-3,1.6-4.5c0.1-0.7-0.9-1.3-1.3-0.5c-0.7,1.4-1,3.2-1.3,4.7
				C125.3,120.4,126.1,120.9,126.3,120.3L126.3,120.3z"/>
		</g>
		<g opacity="0.51">
			<path fill="#6E3281" d="M132.7,137.3c0.1-1.5,0.1-3.3-0.3-4.8c-0.2-0.7-1.3-0.8-1.4,0c-0.1,1.6,0.3,3.3,0.7,4.8
				C131.8,137.8,132.7,137.9,132.7,137.3L132.7,137.3z"/>
		</g>
		<g opacity="0.51">
			<path fill="#89CFC6" d="M137,131.9c0.8,1.3,1.8,2.8,2.9,3.8c0.5,0.5,1.6,0,1.1-0.8c-0.8-1.4-2.1-2.6-3.3-3.6
				C137.4,131,136.7,131.4,137,131.9L137,131.9z"/>
		</g>
		<g opacity="0.51">
			<path fill="#89CFC6" d="M147.1,120.8c0.8,1.3,1.8,2.8,2.9,3.8c0.5,0.5,1.6,0,1.1-0.8c-0.8-1.4-2.1-2.6-3.3-3.6
				C147.5,120,146.7,120.3,147.1,120.8L147.1,120.8z"/>
		</g>
		<g opacity="0.51">
			<path fill="#89CFC6" d="M135.9,163.9c0.8,1.3,1.8,2.8,2.9,3.8c0.5,0.5,1.6,0,1.1-0.8c-0.8-1.4-2.1-2.6-3.3-3.6
				C136.3,163,135.6,163.4,135.9,163.9L135.9,163.9z"/>
		</g>
		<g opacity="0.51">
			<path fill="#6E3281" d="M144.1,149.9c-1.4,0.7-3,1.5-4.1,2.6c-0.5,0.5-0.1,1.6,0.7,1.2c1.4-0.7,2.8-1.8,3.9-2.9
				C144.9,150.4,144.6,149.6,144.1,149.9L144.1,149.9z"/>
		</g>
		<g opacity="0.51">
			<path fill="#6E3281" d="M116.8,107.4c-1.4,0.7-3,1.5-4.1,2.6c-0.5,0.5-0.1,1.6,0.7,1.2c1.4-0.7,2.8-1.8,3.9-2.9
				C117.6,107.9,117.3,107.1,116.8,107.4L116.8,107.4z"/>
		</g>
		<g opacity="0.51">
			<path fill="#6E3281" d="M113.9,149.3c-1.4,0.7-3,1.5-4.1,2.6c-0.5,0.5-0.1,1.6,0.7,1.2c1.4-0.7,2.8-1.8,3.9-2.9
				C114.8,149.8,114.5,149,113.9,149.3L113.9,149.3z"/>
		</g>
		<g opacity="0.51">
			<path fill="#EDC483" d="M117.3,115.8c-0.7,1.4-1.8,3-1.9,4.6c-0.2,1.9,1.8,1.3,3,1.1c1.1-0.2,3.6-0.3,3.3-2
				c-0.1-0.7-0.9-1.3-1.4-1.8c-0.7-0.7-1.4-1.5-2.1-2.2c-0.7-0.7-1.9,0.4-1.1,1.1c0.6,0.5,1.1,1.1,1.7,1.6c0.3,0.3,1.6,1.3,1.6,1.7
				c0.1-0.2,0.1-0.3,0.2-0.5c-0.4,0.5-1.7,0.6-2.2,0.7c-0.4,0.1-0.8,0.2-1.1,0.3c-0.6,0.2-0.3,0.1-0.2-0.4c0.3-1.3,0.7-2.6,0.9-3.9
				C117.8,115.7,117.5,115.5,117.3,115.8L117.3,115.8z"/>
		</g>
		<g opacity="0.51">
			<path fill="#E3707F" d="M155.2,150c-0.1,1.5-0.4,3.5,0,5c0.6,1.8,2.2,0.5,3.1-0.2c0.9-0.6,3.2-1.8,2.2-3.2
				c-0.4-0.6-1.4-0.9-2-1.1c-0.9-0.4-1.9-0.8-2.8-1.2c-1-0.4-1.6,1.1-0.6,1.5c0.7,0.3,1.4,0.5,2.2,0.8c0.4,0.2,2,0.5,2.1,1
				c0-0.2,0-0.4,0-0.6c-0.2,0.6-1.3,1.2-1.8,1.5c-0.3,0.2-0.6,0.4-0.9,0.7c-0.5,0.4-0.2,0.2-0.3-0.3c-0.2-1.3-0.4-2.6-0.7-4
				C155.6,149.8,155.2,149.7,155.2,150L155.2,150z"/>
		</g>
		<g opacity="0.51">
			<path fill="#E3707F" d="M137.4,140c-0.1,1.5-0.4,3.5,0,5c0.6,1.8,2.2,0.5,3.1-0.2c0.9-0.6,3.2-1.8,2.2-3.2
				c-0.4-0.6-1.4-0.9-2-1.1c-0.9-0.4-1.9-0.8-2.8-1.2c-1-0.4-1.6,1.1-0.6,1.5c0.7,0.3,1.4,0.5,2.2,0.8c0.4,0.2,2,0.5,2.1,1
				c0-0.2,0-0.4,0-0.6c-0.2,0.6-1.3,1.2-1.8,1.5c-0.3,0.2-0.6,0.4-0.9,0.7c-0.5,0.4-0.2,0.2-0.3-0.3c-0.2-1.3-0.4-2.6-0.7-4
				C137.8,139.7,137.4,139.7,137.4,140L137.4,140z"/>
		</g>
		<g>
			<g>
				<path fill="#343B5B" d="M59.8,100.9c0,0,0.3,0,1,0c0.7,0,1.7,0.1,2.9,0.1c2.5,0.1,6,0.2,10.2,0.5l0.2,0l0,0.2
					c0.1,2.3,0.1,4.9,0.2,7.6l0,0.2l-0.2,0c-0.2,0-0.3,0-0.5,0c-5,0.2-9.6,0.3-13.3,0.4l-0.2,0l0-0.2c-0.1-2.7-0.1-4.9-0.2-6.5
					c0-0.7,0-1.3,0-1.8C59.8,101.1,59.8,100.9,59.8,100.9c0,0,0,0.2,0.1,0.7c0,0.5,0.1,1.1,0.1,1.8c0.1,1.6,0.2,3.8,0.4,6.4
					l-0.2-0.2c3.7-0.1,8.3-0.3,13.3-0.5c0.2,0,0.4,0,0.5,0l-0.2,0.2c-0.1-2.7-0.1-5.3-0.2-7.6l0.2,0.2c-4.1-0.2-7.5-0.5-10-0.6
					c-1.2-0.1-2.2-0.2-2.9-0.2c-0.3,0-0.6,0-0.8-0.1C59.9,100.9,59.8,100.9,59.8,100.9z"/>
			</g>
			<g>
				<path fill="#343B5B" d="M73.8,101.9c0,0-0.7,0.5-1.9,1.3c-1.2,0.8-2.9,1.8-4.9,2.9l-0.1,0.1l-0.1-0.1c-0.1-0.1-0.2-0.1-0.3-0.2
					c-1.9-1.3-3.6-2.5-4.8-3.4c-1.2-0.9-1.9-1.5-1.9-1.5c0,0,0.8,0.4,2.1,1.3c1.3,0.8,3,2,4.9,3.3c0.1,0.1,0.2,0.1,0.3,0.2l-0.2,0
					c1.9-1.1,3.7-2.1,4.9-2.8C73,102.2,73.8,101.8,73.8,101.9z"/>
			</g>
			<g>
				<path fill="#343B5B" d="M65.1,104.6c0.1,0.1-1,1.3-2.3,2.7c-1.4,1.4-2.5,2.5-2.6,2.4s1-1.3,2.3-2.7
					C63.9,105.6,65,104.5,65.1,104.6z"/>
			</g>
			<g>
				<path fill="#343B5B" d="M74,109.3c-0.1,0.1-1.1-1-2.2-2.5c-1.1-1.4-1.9-2.7-1.8-2.7c0.1-0.1,1.1,1,2.2,2.5
					C73.3,108,74.1,109.2,74,109.3z"/>
			</g>
		</g>
		<path fill="#6A437C" d="M115.7,76.8l6.8,0.7l0.4-2.3l0.5,2.7h6.6l0.5-2.3l0.5,3.5l2.7,0.4c0,0-0.8,5.7,1.7,5.7
			c0,0,3.3-11.7-2.9-13.6C126.3,69.7,115.7,68.1,115.7,76.8z"/>
		<path fill="#6A437C" d="M136.1,78.1c0-1.2,0.4-2.3,1.2-3.2c0.8-0.9,1.9-1.4,3.1-1.5c0.7,0,1.4,0.1,1.9,0.5
			c0.5,0.4,0.8,1.1,0.9,1.7c0.2,1.9-1.3,3.7-3.1,4.2c-1.8,0.5-3.8,0-5.4-0.9"/>
		<g>
			<path fill="#6A437C" d="M143.9,81.1c0,0-0.3,0.6-1.2,1.1c-0.9,0.5-2.4,0.9-3.9,0.3c-1.5-0.6-2.4-1.9-2.7-2.8
				c-0.3-1-0.2-1.6-0.2-1.6c0.1,0,0.1,0.6,0.4,1.5c0.4,0.9,1.2,2,2.6,2.5c1.4,0.5,2.8,0.2,3.6-0.2C143.5,81.5,143.9,81,143.9,81.1z"
				/>
		</g>
		<g>
			<path fill="#6A437C" d="M113.2,79.6c0,0-0.1-0.2-0.2-0.5c-0.1-0.3-0.3-0.8-0.3-1.4c-0.2-1.2,0-3.1,1.1-4.7c1.1-1.7,2.6-2.6,3.8-3
				c0.6-0.2,1.1-0.3,1.5-0.3c0.3,0,0.5,0,0.5,0c0,0.1-0.8,0.1-1.9,0.6c-1.1,0.4-2.6,1.4-3.6,2.9c-1,1.6-1.2,3.3-1.1,4.5
				C112.9,78.9,113.2,79.6,113.2,79.6z"/>
		</g>
		<g>
			<path fill="#6A437C" d="M152,93.6c0,0-0.1,0.1-0.3,0.1c-0.2,0.1-0.6,0.1-1-0.1c-0.2-0.1-0.4-0.3-0.5-0.5c-0.1-0.3,0-0.7,0.2-0.9
				c0.2-0.3,0.5-0.4,0.9-0.5c0.4-0.1,0.8,0,1.2,0.2c0.8,0.3,1.4,1.1,1.6,2.1c0.1,1-0.3,2-1,2.8c-0.8,0.8-1.9,1.2-3,1.3
				c-1.1,0.1-2.4-0.1-3.5-0.8c-0.5-0.3-1-0.9-1.1-1.5c-0.2-0.6-0.1-1.2,0-1.8c0.3-1.1,0.8-2.1,0.9-3.1c0.2-2-0.5-3.8-1.5-5
				c-1-1.1-2.2-1.7-3-1.9c-0.8-0.2-1.3-0.2-1.3-0.3c0,0,0.1,0,0.4,0c0.2,0,0.6,0,1,0.1c0.9,0.2,2.1,0.7,3.2,1.8
				c1.1,1.1,1.9,3.1,1.7,5.2c-0.1,1.1-0.6,2.1-0.9,3.1c-0.1,0.5-0.2,1.1,0,1.6c0.2,0.5,0.5,0.9,1,1.3c0.9,0.6,2.1,0.8,3.2,0.7
				c1.1-0.1,2.1-0.5,2.8-1.2c0.7-0.7,1.1-1.6,1-2.5c-0.1-0.9-0.7-1.6-1.3-1.9c-0.3-0.2-0.7-0.2-1-0.2c-0.3,0.1-0.6,0.2-0.8,0.4
				c-0.2,0.2-0.2,0.5-0.2,0.7c0.1,0.2,0.2,0.4,0.4,0.5c0.4,0.2,0.7,0.2,0.9,0.1C151.9,93.7,152,93.6,152,93.6z"/>
		</g>
		<g>
			<path fill="#251A51" d="M128.6,80.6c-0.1,0.1-0.5-0.1-1.1-0.2c-0.6-0.2-1-0.2-1-0.3c0-0.1,0.5-0.2,1.2,0
				C128.2,80.1,128.6,80.5,128.6,80.6z"/>
		</g>
		<g>
			<path fill="#251A51" d="M117.7,79.9c0-0.1,0.3-0.3,0.7-0.5c0.5-0.1,0.9-0.1,0.9,0c0,0.1-0.3,0.3-0.8,0.4
				C118.1,79.9,117.7,80,117.7,79.9z"/>
		</g>
		<g opacity="0.14">
			<path fill="#E3707F" d="M131,87.7c-0.1,1.1-1,2-2.1,2c-1.1,0-2-0.8-2.1-1.9c-0.1-1.1,0.8-2.1,2.1-2.1
				C130.1,85.6,131.1,86.6,131,87.7z"/>
		</g>
		<g opacity="0.14">
			<path fill="#E3707F" d="M120.8,88.6c-0.1,1.1-1,2-2.1,2c-1.1,0-2-0.8-2.1-1.9c-0.1-1.1,0.8-2.1,2.1-2.1
				C119.9,86.5,120.9,87.5,120.8,88.6z"/>
		</g>
		<g>
			<path fill="#322772" d="M108.9,241.8c0,0-0.3,0.1-1,0.1c-0.7,0-1.6,0.1-2.6,0.1c-2.2,0.1-5.2,0.3-8.6,0.7
				c-3.3,0.4-6.3,0.9-8.5,1.3c-1,0.2-1.9,0.3-2.6,0.5c-0.6,0.1-0.9,0.2-1,0.1c0,0,0.3-0.1,0.9-0.3c0.6-0.2,1.5-0.4,2.5-0.6
				c2.2-0.5,5.2-1,8.5-1.4c3.3-0.4,6.4-0.5,8.6-0.5c1.1,0,2,0,2.6,0C108.5,241.7,108.9,241.8,108.9,241.8z"/>
		</g>
		<g>
			<path fill="#322772" d="M143.2,180.9c0,0-0.1,0.4-0.5,1c-0.4,0.7-1,1.6-2.1,2.5c-1.1,0.9-2.6,1.8-4.6,2.4c-1.9,0.6-4.3,0.9-6.8,1
				c-5.1,0.1-11.1,0.2-17.9,0.3c-3.4,0-6.9,0.1-10.5,0.1c-1.8,0-3.7,0-5.6,0.1c-0.9,0-1.9,0-2.9,0c-1,0-1.9,0-2.8,0.1
				c-0.5,0.1-0.9,0.3-1.2,0.6c-0.3,0.3-0.4,0.7-0.4,1.2c0,0.9,0.3,1.8,0.4,2.8c0.4,1.8,0.8,3.7,1.3,5.4c0.9,3.5,2,6.9,3,10.1
				c2.1,6.4,4,12.1,5.5,17c1.6,4.8,2.8,8.7,3.7,11.5c0.4,1.3,0.8,2.4,1,3.1c0.1,0.3,0.2,0.6,0.2,0.8c0.1,0.2,0.1,0.3,0.1,0.3
				c0,0,0-0.1-0.1-0.3c-0.1-0.2-0.2-0.5-0.3-0.8c-0.3-0.7-0.6-1.8-1.1-3.1c-0.9-2.7-2.2-6.6-3.8-11.4c-1.6-4.8-3.5-10.6-5.6-16.9
				c-1-3.2-2.1-6.6-3-10.1c-0.5-1.8-0.9-3.6-1.3-5.4c-0.2-0.9-0.4-1.8-0.4-2.9c0-0.5,0.2-1.1,0.5-1.5c0.4-0.4,0.9-0.6,1.4-0.7
				c1-0.2,2-0.1,2.9-0.1c1,0,1.9,0,2.9,0c1.9,0,3.7,0,5.6-0.1c3.7,0,7.2-0.1,10.5-0.1c6.7-0.1,12.8-0.1,17.9-0.2
				c2.5-0.1,4.8-0.3,6.7-0.9c1.9-0.6,3.4-1.5,4.5-2.3c1.1-0.9,1.8-1.8,2.1-2.4C143,181.3,143.1,180.9,143.2,180.9z"/>
		</g>
		<g>
			<path fill="#322772" d="M69.3,242c0,0.1-4.7,0-10.4-0.3c-5.8-0.3-10.4-0.6-10.4-0.7c0-0.1,4.7,0,10.4,0.3
				C64.6,241.6,69.3,241.9,69.3,242z"/>
		</g>
		<g>
			<path fill="#322772" d="M67.9,187.7c0,0,0,0.2-0.1,0.6c-0.1,0.4-0.1,0.9-0.2,1.6c-0.2,1.4-0.5,3.3-0.8,5.8
				c-0.6,4.9-1.3,11.6-1.7,19.1c-0.3,7.5-0.2,14.3,0,19.2c0.1,2.5,0.2,4.4,0.3,5.8c0,0.7,0.1,1.2,0.1,1.6c0,0.4,0,0.6,0,0.6
				c0,0,0-0.2-0.1-0.5c0-0.4-0.1-0.9-0.2-1.6c-0.1-1.4-0.3-3.4-0.4-5.8c-0.3-4.9-0.4-11.7-0.1-19.2c0.3-7.5,1.1-14.3,1.8-19.1
				c0.4-2.4,0.7-4.4,0.9-5.8c0.1-0.6,0.2-1.2,0.3-1.6C67.8,187.8,67.9,187.7,67.9,187.7z"/>
		</g>
		<g opacity="0.46">
			<path fill="#322772" d="M85.4,188.9c0-0.1,1.9,0.3,4,1.4c2.1,1.1,3.5,2.4,3.4,2.5c-0.1,0.1-1.6-1-3.6-2.1
				C87.1,189.6,85.3,189,85.4,188.9z"/>
		</g>
		<g opacity="0.46">
			<path fill="#322772" d="M86.2,182.3c0.1-0.1,1.6,2.3,3.4,5.2c1.8,2.9,3.2,5.3,3.1,5.4c-0.1,0.1-1.6-2.3-3.4-5.2
				C87.5,184.7,86.1,182.3,86.2,182.3z"/>
		</g>
		<g opacity="0.46">
			<path fill="#322772" d="M138.3,180.1c0,0-0.7-0.4-1.6-1.3c-0.9-0.9-2.1-2.2-3.3-3.8c-0.6-0.8-1.1-1.7-0.9-2.6
				c0.1-0.9,0.8-1.5,1.3-1.9c0.5-0.4,1-0.5,1.4-0.7c0.3-0.1,0.5-0.2,0.5-0.1c0,0.1-0.7,0.3-1.7,1c-0.5,0.4-1,0.9-1.1,1.7
				c-0.1,0.8,0.3,1.6,0.9,2.4c1.1,1.5,2.3,2.9,3.1,3.8C137.8,179.5,138.3,180.1,138.3,180.1z"/>
		</g>
		<g opacity="0.46">
			<path fill="#322772" d="M135.8,180.8c-0.1,0.1-1.2-1.2-2.6-2.8c-1.3-1.6-2.3-3-2.3-3.1c0.1-0.1,1.2,1.2,2.6,2.8
				C134.9,179.4,135.9,180.8,135.8,180.8z"/>
		</g>
	</g>
	<g>
		<polygon fill="#EDC483" points="108,192.9 108,196.5 149.2,194.7 147.6,190.9 		"/>
		<path fill="#EDC483" d="M118.9,196c-0.3,1-7.5,58.6-7.5,58.6l1.2,0.1l10.4-59L118.9,196"/>
		<polygon fill="#EDC483" points="126.2,195.7 134.8,254.2 135.9,254 129.7,195.5 		"/>
		<polygon fill="#EDC483" points="134,195 155.7,251 157.3,250.6 137,194.4 		"/>
		<path fill="#EDC483" d="M117.2,222.7c0.3-0.1,28.5-0.1,28.5-0.1l-1.2-2.6l-26.7,1.3L117.2,222.7z"/>
	</g>
</g>
<linearGradient id="SVGID_7_" gradientUnits="userSpaceOnUse" x1="76.9032" y1="-45.2514" x2="286.5396" y2="475.0964">
	<stop  offset="8.218610e-02" style="stop-color:#FFFFFF"/>
	<stop  offset="1" style="stop-color:#DBE1E2"/>
</linearGradient>
<path fill="url(#SVGID_7_)" d="M47.5,6v5.6c0,6.3,5.1,11.4,11.3,11.4h79.6c6.3,0,11.3-5.1,11.3-11.4V3.6L47.5,6z"/>
<g>
	<g opacity="0.46">
		<g>
			<g>
				<path fill="#FFFFFF" d="M155.3,17.3c0.3,0,0.5,0.2,0.5,0.5c0,0.3-0.2,0.5-0.5,0.5c-0.3,0-0.5-0.2-0.5-0.5
					C154.8,17.5,155,17.3,155.3,17.3z"/>
				<path fill="#FFFFFF" d="M156.4,16.6C156.4,16.6,156.4,16.6,156.4,16.6L156.4,16.6C156.3,16.6,156.3,16.6,156.4,16.6
					c-0.6-0.6-1.6-0.6-2.1,0l-0.1,0.1l-0.1,0.1c-0.1,0.1-0.1,0.3,0,0.4c0.1,0.1,0.3,0.1,0.4,0l0.2-0.2c0.4-0.4,0.9-0.4,1.3,0
					l0.1,0.1c0.1,0.1,0.3,0.1,0.4,0c0.1-0.1,0.1-0.1,0.1-0.2c0-0.1,0-0.1-0.1-0.2L156.4,16.6z"/>
				<path fill="#FFFFFF" d="M157.1,16L157.1,16C157.1,15.9,157.1,15.9,157.1,16l-0.2-0.2c0,0,0,0,0,0c-1-0.9-2.4-0.8-3.4,0.1
					c0,0,0,0,0,0l-0.2,0.2c-0.1,0.1-0.1,0.3,0,0.4c0.1,0.1,0.3,0.1,0.4,0l0.2-0.2c0,0,0,0,0,0c0.8-0.7,2-0.7,2.7,0l0.1,0.1
					c0.1,0.1,0.3,0.1,0.4,0C157.2,16.3,157.2,16.1,157.1,16z"/>
			</g>
		</g>
	</g>
	<g>
		<g opacity="0.48">
			<path fill="#FFFFFF" d="M25.9,18.5C25.9,18.5,25.8,18.5,25.9,18.5C25.8,18.5,25.8,18.5,25.9,18.5l-0.1-2.8l0,0l-0.7,0.4
				c0,0,0,0,0,0c0,0,0,0-0.1,0c0,0,0,0,0-0.1c0,0,0,0,0-0.1l0.7-0.4c0,0,0,0,0.1,0c0,0,0,0,0,0c0,0,0,0,0,0.1L25.9,18.5
				C26,18.5,26,18.5,25.9,18.5C25.9,18.5,25.9,18.5,25.9,18.5z"/>
			<path fill="#FFFFFF" d="M27.6,18.6c-0.2,0-0.4-0.1-0.6-0.2c-0.1-0.1-0.3-0.3-0.3-0.6c-0.1-0.2-0.1-0.5-0.1-0.8
				c0-0.3,0-0.5,0.1-0.8c0.1-0.2,0.2-0.4,0.3-0.5c0.1-0.1,0.3-0.2,0.6-0.2c0.2,0,0.4,0.1,0.6,0.2c0.1,0.1,0.3,0.3,0.3,0.5
				c0.1,0.2,0.1,0.5,0.1,0.8c0,0.3,0,0.5-0.1,0.8c-0.1,0.2-0.2,0.4-0.3,0.6C28,18.5,27.9,18.6,27.6,18.6z M27.6,18.4
				c0.2,0,0.3-0.1,0.4-0.2s0.2-0.3,0.3-0.5c0.1-0.2,0.1-0.4,0.1-0.7c0-0.3,0-0.5-0.1-0.7c-0.1-0.2-0.1-0.4-0.3-0.5s-0.3-0.2-0.4-0.2
				c-0.2,0-0.3,0.1-0.4,0.2s-0.2,0.3-0.3,0.5c-0.1,0.2-0.1,0.4-0.1,0.7c0,0.3,0,0.5,0.1,0.7c0.1,0.2,0.1,0.4,0.3,0.5
				S27.5,18.4,27.6,18.4z"/>
			<path fill="#FFFFFF" d="M29.2,16.7C29.2,16.7,29.1,16.7,29.2,16.7c-0.1-0.1-0.1-0.1-0.1-0.1v-0.1c0,0,0-0.1,0-0.1s0,0,0.1,0h0
				c0,0,0.1,0,0.1,0s0,0.1,0,0.1v0.1c0,0,0,0.1,0,0.1C29.3,16.7,29.3,16.7,29.2,16.7L29.2,16.7z M29.2,18.5
				C29.2,18.5,29.1,18.5,29.2,18.5c-0.1-0.1-0.1-0.1-0.1-0.1v-0.1c0,0,0-0.1,0-0.1s0,0,0.1,0h0c0,0,0.1,0,0.1,0s0,0.1,0,0.1v0.1
				c0,0,0,0.1,0,0.1C29.3,18.5,29.3,18.5,29.2,18.5L29.2,18.5z"/>
			<path fill="#FFFFFF" d="M29.9,18.2C29.9,18.2,29.9,18.2,29.9,18.2C29.9,18.2,29.9,18.2,29.9,18.2c0.1,0.1,0.2,0.2,0.3,0.2
				s0.2,0.1,0.3,0.1c0.2,0,0.3,0,0.4-0.1c0.1-0.1,0.2-0.2,0.3-0.3c0.1-0.1,0.1-0.3,0.1-0.4c0-0.2,0-0.3-0.1-0.4
				c-0.1-0.1-0.2-0.2-0.3-0.2c-0.1-0.1-0.2-0.1-0.4-0.1c0,0,0,0-0.1,0c0,0,0,0-0.1,0s0,0,0,0c0,0,0,0-0.1,0c0,0,0,0,0-0.1
				c0,0,0,0,0,0c0,0,0,0,0,0l0.9-1l0,0.1h-1.4c0,0,0,0-0.1,0c0,0,0,0,0-0.1c0,0,0,0,0-0.1c0,0,0,0,0.1,0h1.5c0,0,0.1,0,0.1,0
				s0,0,0,0.1s0,0,0,0c0,0,0,0,0,0l-0.9,1l-0.1,0c0,0,0,0,0.1,0c0,0,0.1,0,0.1,0c0.1,0,0.3,0,0.4,0.1c0.1,0.1,0.3,0.2,0.3,0.3
				c0.1,0.1,0.1,0.3,0.1,0.5c0,0.2,0,0.4-0.1,0.5s-0.2,0.3-0.4,0.3c-0.2,0.1-0.3,0.1-0.5,0.1c-0.1,0-0.2,0-0.4-0.1
				c-0.1,0-0.2-0.1-0.3-0.2c0,0,0,0,0,0C29.8,18.3,29.8,18.3,29.9,18.2C29.8,18.2,29.8,18.2,29.9,18.2
				C29.8,18.2,29.9,18.2,29.9,18.2z"/>
			<path fill="#FFFFFF" d="M33,18.6c-0.2,0-0.4-0.1-0.6-0.2c-0.1-0.1-0.3-0.3-0.3-0.6C32,17.6,32,17.3,32,17.1c0-0.3,0-0.5,0.1-0.8
				c0.1-0.2,0.2-0.4,0.3-0.5c0.1-0.1,0.3-0.2,0.6-0.2c0.2,0,0.4,0.1,0.6,0.2c0.1,0.1,0.3,0.3,0.3,0.5c0.1,0.2,0.1,0.5,0.1,0.8
				c0,0.3,0,0.5-0.1,0.8c-0.1,0.2-0.2,0.4-0.3,0.6C33.4,18.5,33.2,18.6,33,18.6z M33,18.4c0.2,0,0.3-0.1,0.4-0.2s0.2-0.3,0.3-0.5
				c0.1-0.2,0.1-0.4,0.1-0.7c0-0.3,0-0.5-0.1-0.7c-0.1-0.2-0.1-0.4-0.3-0.5s-0.3-0.2-0.4-0.2c-0.2,0-0.3,0.1-0.4,0.2
				s-0.2,0.3-0.3,0.5c-0.1,0.2-0.1,0.4-0.1,0.7c0,0.3,0,0.5,0.1,0.7c0.1,0.2,0.1,0.4,0.3,0.5S32.8,18.4,33,18.4z"/>
			<path fill="#FFFFFF" d="M36.7,15.8l-1.1,2.7c0,0,0,0,0,0s0,0,0,0c0,0,0,0-0.1,0s0,0,0-0.1c0,0,0,0,0,0l1.1-2.8c0,0,0,0,0,0
				c0,0,0,0,0,0c0,0,0,0,0.1,0c0,0,0,0,0,0l1.1,2.8c0,0,0,0,0,0c0,0,0,0,0,0.1c0,0,0,0-0.1,0c0,0,0,0-0.1,0s0,0,0,0L36.7,15.8
				L36.7,15.8z M35.9,17.6l0.1-0.2h1.4l0,0.2H35.9z"/>
			<path fill="#FFFFFF" d="M38.6,15.6C38.6,15.6,38.6,15.6,38.6,15.6C38.6,15.6,38.6,15.6,38.6,15.6l1.3,1.8h-0.1l1.2-1.8
				c0,0,0,0,0.1,0c0,0,0,0,0.1,0c0,0,0,0,0,0.1v2.8c0,0,0,0,0,0.1c0,0,0,0-0.1,0c0,0,0,0-0.1,0c0,0,0,0,0-0.1v-2.6h0l-1.1,1.7
				c0,0,0,0,0,0c0,0,0,0,0,0s0,0,0,0c0,0,0,0,0,0l-1.2-1.7h0.1v2.6c0,0,0,0,0,0.1c0,0,0,0-0.1,0c0,0,0,0-0.1,0c0,0,0,0,0-0.1
				L38.6,15.6C38.5,15.6,38.5,15.6,38.6,15.6C38.5,15.6,38.5,15.6,38.6,15.6z"/>
		</g>
	</g>
	<g opacity="0.48">
		<g>
			<g>
				<path fill="#FFFFFF" d="M160.9,16.8L160.9,16.8c0.1,0,0.2,0.1,0.2,0.1c0.1,0.1,0.1,0.1,0.2,0.2c0,0.1,0.1,0.2,0.1,0.3
					c0,0.1,0,0.3-0.1,0.4s-0.2,0.2-0.3,0.3c-0.1,0.1-0.3,0.1-0.4,0.1c-0.2,0-0.3,0-0.4-0.1c-0.1-0.1-0.2-0.2-0.3-0.3
					s-0.1-0.2-0.1-0.4c0-0.1,0-0.2,0.1-0.3c0-0.1,0.1-0.2,0.2-0.2c0.1-0.1,0.2-0.1,0.2-0.1l0,0c-0.1,0-0.1-0.1-0.2-0.1
					c-0.1-0.1-0.1-0.1-0.2-0.2c0-0.1-0.1-0.2-0.1-0.3c0-0.1,0-0.3,0.1-0.4c0.1-0.1,0.2-0.2,0.3-0.3c0.1-0.1,0.2-0.1,0.4-0.1
					c0.1,0,0.3,0,0.4,0.1c0.1,0.1,0.2,0.2,0.3,0.3c0.1,0.1,0.1,0.2,0.1,0.4c0,0.1,0,0.2-0.1,0.3c0,0.1-0.1,0.2-0.2,0.2
					C161.1,16.7,161,16.7,160.9,16.8z M160.6,18c0.2,0,0.4-0.1,0.5-0.2s0.2-0.3,0.2-0.4c0-0.1,0-0.2-0.1-0.3
					c-0.1-0.1-0.1-0.2-0.2-0.2c-0.1-0.1-0.2-0.1-0.3-0.1c-0.1,0-0.2,0-0.3,0.1c-0.1,0.1-0.2,0.1-0.2,0.2c-0.1,0.1-0.1,0.2-0.1,0.3
					c0,0.2,0.1,0.3,0.2,0.4C160.2,18,160.4,18,160.6,18z M160,16.1c0,0.1,0,0.2,0.1,0.3c0.1,0.1,0.1,0.2,0.2,0.2s0.2,0.1,0.3,0.1
					c0.1,0,0.2,0,0.3-0.1s0.2-0.1,0.2-0.2c0.1-0.1,0.1-0.2,0.1-0.3c0-0.2-0.1-0.3-0.2-0.4c-0.1-0.1-0.3-0.2-0.4-0.2
					c-0.2,0-0.3,0.1-0.4,0.2C160,15.8,160,15.9,160,16.1z"/>
				<path fill="#FFFFFF" d="M162.6,18.1c-0.1,0-0.2,0-0.3-0.1c-0.1,0-0.2-0.1-0.3-0.2c0,0,0,0,0,0c0,0,0,0,0,0c0,0,0,0,0-0.1
					c0,0,0,0,0.1,0c0,0,0,0,0.1,0c0.1,0.1,0.2,0.1,0.3,0.1s0.2,0,0.3,0c0.2,0,0.3,0,0.4-0.1c0.1-0.1,0.2-0.2,0.3-0.3
					s0.1-0.3,0.1-0.4c0-0.1,0-0.3-0.1-0.4s-0.2-0.2-0.3-0.3c-0.1-0.1-0.3-0.1-0.4-0.1c-0.1,0-0.2,0-0.3,0c-0.1,0-0.2,0.1-0.2,0.1
					c-0.1,0-0.1,0-0.1,0c0,0,0,0,0,0c0,0,0,0,0,0s0,0,0,0l0.2-1.1c0,0,0,0,0,0s0,0,0.1,0h1.2c0,0,0,0,0.1,0s0,0,0,0.1s0,0,0,0.1
					s0,0-0.1,0h-1.2l0,0l-0.2,1l-0.1,0c0,0,0.1-0.1,0.2-0.1c0.1,0,0.1-0.1,0.2-0.1s0.2,0,0.3,0c0.2,0,0.3,0,0.5,0.1
					c0.1,0.1,0.2,0.2,0.3,0.3c0.1,0.1,0.1,0.3,0.1,0.5c0,0.1,0,0.3-0.1,0.4c0,0.1-0.1,0.2-0.2,0.3c-0.1,0.1-0.2,0.1-0.3,0.2
					C162.9,18.1,162.7,18.1,162.6,18.1z"/>
				<path fill="#FFFFFF" d="M164.5,16.8c-0.1,0-0.2,0-0.3-0.1s-0.1-0.2-0.2-0.3c0-0.1-0.1-0.2-0.1-0.3c0-0.1,0-0.2,0.1-0.4
					c0-0.1,0.1-0.2,0.2-0.3s0.2-0.1,0.3-0.1c0.1,0,0.2,0,0.3,0.1c0.1,0.1,0.1,0.2,0.2,0.3c0,0.1,0.1,0.2,0.1,0.4
					c0,0.1,0,0.2-0.1,0.4c0,0.1-0.1,0.2-0.2,0.3C164.8,16.7,164.7,16.8,164.5,16.8z M164.6,16.6c0.1,0,0.2-0.1,0.3-0.2
					c0.1-0.1,0.1-0.2,0.1-0.4c0-0.2,0-0.3-0.1-0.4s-0.1-0.2-0.3-0.2c-0.1,0-0.2,0.1-0.3,0.2c-0.1,0.1-0.1,0.2-0.1,0.4
					c0,0.2,0,0.3,0.1,0.4C164.4,16.5,164.4,16.6,164.6,16.6z M164.5,18.2C164.5,18.2,164.4,18.2,164.5,18.2
					C164.4,18.1,164.4,18.1,164.5,18.2c-0.1-0.1-0.1-0.1-0.1-0.1l1.7-2.7c0,0,0,0,0.1,0c0,0,0,0,0.1,0c0,0,0,0,0,0.1c0,0,0,0,0,0
					L164.5,18.2C164.5,18.2,164.5,18.2,164.5,18.2z M166.2,18.2c-0.1,0-0.2,0-0.3-0.1c-0.1-0.1-0.1-0.2-0.2-0.3
					c0-0.1-0.1-0.2-0.1-0.3c0-0.1,0-0.2,0.1-0.4s0.1-0.2,0.2-0.3s0.2-0.1,0.3-0.1c0.1,0,0.2,0,0.3,0.1c0.1,0.1,0.1,0.2,0.2,0.3
					c0,0.1,0.1,0.2,0.1,0.4s0,0.2-0.1,0.4s-0.1,0.2-0.2,0.3C166.4,18.1,166.3,18.2,166.2,18.2z M166.2,18c0.1,0,0.2-0.1,0.3-0.2
					s0.1-0.2,0.1-0.4c0-0.2,0-0.3-0.1-0.4c-0.1-0.1-0.1-0.2-0.3-0.2c-0.1,0-0.2,0.1-0.3,0.2c-0.1,0.1-0.1,0.2-0.1,0.4
					c0,0.2,0,0.3,0.1,0.4S166.1,18,166.2,18z"/>
			</g>
		</g>
		<path fill="#F8F8F6" d="M170.8,18.5c-0.2,0-0.4-0.1-0.4-0.3l0-2.6c0-0.2,0.2-0.3,0.4-0.3l6,0c0.2,0,0.4,0.1,0.4,0.3l0,0.5l0.5,0
			l0,1.5l-0.5,0l0,0.5c0,0.2-0.2,0.3-0.4,0.3L170.8,18.5z M177,15.5l-6.2,0l0,2.8l6.2,0L177,15.5z M171,15.8l4.5,0l0,2.3l-4.5,0
			L171,15.8z"/>
	</g>
</g>
</svg>
