<?xml version="1.0" encoding="utf-8"?>
<!-- Generator: Adobe Illustrator 24.0.1, SVG Export Plug-In . SVG Version: 6.00 Build 0)  -->
<svg version="1.1" id="Слой_1" xmlns="http://www.w3.org/2000/svg" xmlns:xlink="http://www.w3.org/1999/xlink" x="0px" y="0px"
	 viewBox="0 0 120 50" style="enable-background:new 0 0 120 50;" xml:space="preserve">
<g>
	<g>
		<linearGradient id="SVGID_1_" gradientUnits="userSpaceOnUse" x1="3.2105" y1="21.3545" x2="27.8744" y2="21.3545">
			<stop  offset="0" style="stop-color:#2500F9"/>
			<stop  offset="0" style="stop-color:#255EF9"/>
			<stop  offset="1" style="stop-color:#2500F9"/>
		</linearGradient>
		<path style="fill:url(#SVGID_1_);" d="M12.6,8.5L3.2,34.2h6.6l1.5-4.8h8.5l1.5,4.8h6.6L18.4,8.5H12.6z M12.8,24.6l2.7-8.9l2.8,8.9
			H12.8z"/>
		<linearGradient id="SVGID_2_" gradientUnits="userSpaceOnUse" x1="28.666" y1="28.1274" x2="46.2931" y2="28.1274">
			<stop  offset="0" style="stop-color:#2500F9"/>
			<stop  offset="0" style="stop-color:#255EF9"/>
			<stop  offset="1" style="stop-color:#2500F9"/>
		</linearGradient>
		<path style="fill:url(#SVGID_2_);" d="M38.9,14.8c-1.9,0-3.3,0.7-4.5,2.1l-0.2-1.8h-5.5v26.4h5.9v-8.9c1.1,1.3,2.6,1.9,4.3,1.9
			c2.3,0,4.1-0.9,5.4-2.6s2-4.1,2-7.1v-0.3c0-3-0.7-5.4-2-7.1S41.2,14.8,38.9,14.8z M40.4,25c-0.1,3.3-1,4.9-2.9,4.9
			c-1.4,0-2.3-0.5-2.8-1.6v-7.5c0.5-1,1.4-1.5,2.8-1.5c2,0,3,1.7,3,5.1V25z"/>
		<linearGradient id="SVGID_3_" gradientUnits="userSpaceOnUse" x1="48.9495" y1="28.1274" x2="66.5765" y2="28.1274">
			<stop  offset="0" style="stop-color:#2500F9"/>
			<stop  offset="0" style="stop-color:#255EF9"/>
			<stop  offset="1" style="stop-color:#2500F9"/>
		</linearGradient>
		<path style="fill:url(#SVGID_3_);" d="M64.6,17.4c-1.3-1.7-3.1-2.6-5.5-2.6c-1.9,0-3.3,0.7-4.5,2.1l-0.2-1.8h-5.5v26.4h5.9v-8.9
			c1.1,1.3,2.6,1.9,4.3,1.9c2.3,0,4.1-0.9,5.4-2.6c1.3-1.8,2-4.1,2-7.1v-0.3C66.6,21.5,65.9,19.1,64.6,17.4z M60.6,25
			c-0.1,3.3-1,4.9-2.9,4.9c-1.4,0-2.3-0.5-2.8-1.6v-7.5c0.5-1,1.4-1.5,2.8-1.5c2,0,3,1.7,3,5.1V25z"/>
	</g>
	<g>
		<path d="M74.6,29.3h10.7V34H68.5V8.4h6.2V29.3z"/>
		<path d="M87.7,10.1c0-0.8,0.3-1.5,0.9-2.1C89.2,7.5,90,7.2,91,7.2c1,0,1.8,0.3,2.4,0.8c0.6,0.5,0.9,1.2,0.9,2.1
			c0,0.8-0.3,1.5-0.9,2.1C92.7,12.7,91.9,13,91,13c-1,0-1.8-0.3-2.4-0.8C88,11.6,87.7,10.9,87.7,10.1z M94,34H88V15H94V34z"/>
		<path d="M115.3,24.7c0,3.1-0.6,5.5-1.9,7.2c-1.3,1.7-3.1,2.5-5.5,2.5c-1.9,0-3.5-0.8-4.7-2.3l-0.2,2h-5.3V7h5.9v9.5
			c1.1-1.3,2.5-1.9,4.3-1.9c2.4,0,4.2,0.9,5.5,2.6c1.3,1.7,1.9,4.1,1.9,7.2V24.7z M109.4,24.3c0-1.8-0.2-3.1-0.7-3.9
			c-0.5-0.8-1.2-1.2-2.2-1.2c-1.3,0-2.3,0.5-2.8,1.5v7.6c0.5,1,1.4,1.5,2.8,1.5c1.4,0,2.3-0.7,2.7-2
			C109.3,27.1,109.4,25.9,109.4,24.3z"/>
	</g>
</g>
</svg>
